<svg width="150" height="150" viewBox="0 0 150 150" fill="none" xmlns="http://www.w3.org/2000/svg">
<rect width="150" height="150" fill="#27282E"/>
<path d="M80.7966 19.5V76.0818C80.7966 78.7277 78.7627 80.5595 76.322 80.5595H69.6102C69.2034 80.5595 69 80.9665 69 81.1701V128.593C70.6271 128.593 72.2542 129 74.0847 129C104.39 129 129 104.373 129 74.0465C129 46.1626 108.051 22.7565 80.7966 19.5ZM79.5763 104.169C75.7119 104.169 72.8644 100.913 72.8644 97.4526C72.8644 93.5855 76.1186 90.7361 79.5763 90.7361C83.4407 90.7361 86.2881 93.9926 86.2881 97.4526C86.6949 101.116 83.4407 104.169 79.5763 104.169ZM95.6441 104.169C91.7797 104.169 88.9322 100.913 88.9322 97.4526C88.9322 93.5855 92.1864 90.7361 95.6441 90.7361C99.5085 90.7361 102.356 93.9926 102.356 97.4526C102.356 100.913 99.7119 104.169 95.6441 104.169ZM111.915 104.169C108.051 104.169 105.203 100.913 105.203 97.4526C105.203 93.5855 108.458 90.7361 111.915 90.7361C115.78 90.7361 118.627 93.9926 118.627 97.4526C118.627 100.913 115.78 104.169 111.915 104.169Z" fill="#00B956"/>
<path d="M73.5 19.5C43.7 19.5 19.5 44.0178 19.5 74.2092C19.5 100.753 37.7 122.434 62.1 127.5V78.2617C62.1 76.0328 64.1 74.2092 66.1 73.8039H72.7C73.1 73.8039 73.3 73.3987 73.3 73.1961L73.5 19.5ZM63.1 64.4831C59.3 64.4831 56.5 61.2411 56.5 57.7964C56.5 53.9465 59.7 51.1098 63.1 51.1098C66.9 51.1098 69.7 54.3518 69.7 57.7964C69.7 61.2411 66.7 64.4831 63.1 64.4831Z" fill="#00B956"/>
</svg>
