<svg width="150" height="150" viewBox="0 0 150 150" fill="none" xmlns="http://www.w3.org/2000/svg">
<rect width="150" height="150" fill="#27282E"/>
<path d="M88.9354 108.595C90.2437 104.59 91.0381 100.552 91.5197 96.4559C91.7864 94.1866 90.5939 92.934 88.2893 92.9334C79.4273 92.931 70.5653 92.9318 61.703 92.9354C59.3788 92.9364 58.2025 94.2455 58.4909 96.5732C58.9936 100.629 59.7714 104.631 61.0662 108.589C59.199 108.803 57.3215 108.882 55.5116 109.379C54.8903 109.55 54.2761 109.75 53.6673 109.962C52.2121 110.468 51.4028 111.43 51.2436 113.015C51.053 114.914 50.3971 115.454 48.4386 115.478C45.8147 115.511 43.1897 115.458 40.566 115.5C39.2984 115.519 38.504 114.934 38.0179 113.845C37.5999 112.91 37.3266 111.917 37.315 110.9C37.2818 108.01 36.3833 105.233 36.2423 102.359C36.1842 101.176 36.1384 99.9902 36.0122 98.8135C35.9334 98.0791 36.2383 97.9637 36.8729 98.0177C40.5729 98.3331 44.2748 98.6272 47.9763 98.925C49.5722 99.0535 51.1669 99.2258 52.7657 99.2849C54.9441 99.3654 55.8352 98.3333 55.5237 96.1989C55.1659 93.7472 54.0036 91.9464 51.5794 90.9705C49.3009 90.0532 46.9902 89.2928 44.5956 88.7474C42.8597 88.352 41.5144 88.8895 40.4512 90.2397C39.1711 91.8656 38.7753 93.7741 38.8123 95.7734C38.8291 96.6756 38.6488 97.0042 37.6447 96.8676C36.0478 96.6502 36.0382 96.7248 36.1372 95.1552C36.3019 92.5459 37.2605 90.2145 38.7701 88.1167C40.4729 85.7504 42.2848 83.4619 43.9974 81.1021C45.1878 79.4619 45.149 79.4306 43.1345 79.0656C41.6946 78.8047 40.2511 78.5641 38.8133 78.2936C38.1098 78.1614 37.3411 78.05 37.1752 77.1724C37.0007 76.2498 37.1941 75.4256 38.0032 74.8219C38.6443 74.3434 39.3825 74.0912 40.1417 73.8975C41.1689 73.6356 42.2259 73.5517 43.2797 73.505C44.5401 73.4491 45.0647 73.8587 45.1893 75.0812C45.2934 76.1023 45.426 76.9545 46.5866 77.4097C47.49 77.7639 47.9763 78.6604 48.3994 79.5313C49.5835 81.9694 50.4752 84.5253 51.4881 87.0322C52.5525 89.6665 53.4662 90.2794 56.3492 90.2796C68.8243 90.2802 81.2992 90.2804 93.7743 90.2794C96.5008 90.2792 97.4791 89.6242 98.4901 87.1141C99.5255 84.5434 100.436 81.9226 101.659 79.4273C102.232 78.2575 103.068 77.3559 104.302 76.9015C104.734 76.7426 104.636 76.4512 104.665 76.1779C104.949 73.5222 105.143 73.3733 107.856 73.5964C108.916 73.6836 109.949 73.861 110.94 74.2454C111.549 74.4818 112.114 74.7912 112.505 75.3387C113.386 76.5721 112.863 77.9797 111.382 78.2607C109.61 78.597 107.827 78.873 106.051 79.1867C104.909 79.3885 104.904 79.4021 105.505 80.3537C106.831 82.4508 108.461 84.3241 109.953 86.2988C111.492 88.3355 112.906 90.4381 113.525 92.9647C113.785 94.0236 113.87 95.0985 113.935 96.1804C113.96 96.6126 113.808 96.8201 113.365 96.7914C113.331 96.7892 113.296 96.7914 113.262 96.7947C111.293 96.9759 111.307 96.9751 111.194 95.0388C111.092 93.286 110.67 91.6301 109.544 90.22C108.469 88.8742 107.124 88.3617 105.39 88.7521C102.792 89.3369 100.269 90.1168 97.8596 91.2533C95.592 92.3228 94.0747 95.1036 94.4531 97.5388C94.6082 98.5365 95.356 99.1894 96.5458 99.2618C98.3567 99.3719 100.149 99.0687 101.947 98.9311C105.616 98.6505 109.283 98.3524 112.947 98.0198C113.794 97.943 114.068 98.1317 113.986 99.0348C113.747 101.692 113.73 104.361 113.076 106.984C112.636 108.751 112.919 110.632 112.453 112.418C112.291 113.043 112.112 113.657 111.79 114.22C111.314 115.052 110.618 115.495 109.627 115.49C106.934 115.476 104.242 115.51 101.549 115.478C99.6018 115.454 98.9566 114.905 98.7565 112.998C98.5963 111.47 97.8295 110.528 96.4222 109.981C94.5945 109.271 92.689 108.961 90.7529 108.775C90.1477 108.716 89.543 108.656 88.9362 108.596L88.9354 108.595Z" fill="#029ADD"/>
<path d="M148.483 105.725C148.483 109.157 148.46 111.884 148.5 114.61C148.509 115.275 148.358 115.505 147.585 115.499C142.885 115.464 138.184 115.461 133.484 115.5C132.597 115.507 132.505 115.324 132.788 114.581C135.279 108.051 136.46 101.309 136.352 94.3882C136.248 87.7 134.974 81.2106 132.161 75.0223C131.895 74.4372 131.91 74.1333 132.581 73.8014C134.574 72.816 136.529 71.7629 138.479 70.7052C139.028 70.4078 139.308 70.3796 139.657 70.9872C143.979 78.5016 146.72 86.4768 147.879 94.9289C148.403 98.7503 148.548 102.585 148.483 105.725Z" fill="#80CB23"/>
<path d="M1.5323 105.583C1.22611 96.0655 3.08895 86.1213 7.44909 76.6062C8.32061 74.7043 9.29349 72.8487 10.3268 71.0186C10.598 70.5383 10.8007 70.325 11.4242 70.6691C13.4255 71.7736 15.4592 72.8289 17.504 73.8632C18.0753 74.1522 18.0901 74.4222 17.8636 74.9478C12.2441 87.9865 12.4269 101.13 17.0969 114.344C17.5004 115.486 17.5205 115.48 16.2648 115.48C11.6729 115.481 7.08076 115.46 2.48928 115.5C1.67289 115.507 1.50135 115.283 1.51343 114.565C1.55966 111.838 1.53209 109.111 1.53209 105.584L1.5323 105.583Z" fill="#80CB23"/>
<path d="M98.9998 78.8001C97.8376 82.0919 96.7322 85.2929 95.572 88.4676C95.2108 89.4561 94.4726 89.9598 93.5168 89.9797C93.152 89.9872 92.7872 89.9991 92.4227 89.9991C80.3171 90 68.2116 90.0005 56.1062 89.9993C53.7412 89.9993 53.3659 89.7126 52.4808 87.1982C51.516 84.4571 50.6632 81.6649 49.5 78.8109C66.0475 77.7238 82.4799 77.7392 99 78.8001H98.9998Z" fill="#029ADD"/>
<path d="M138 68.0751C137.964 68.3768 137.711 68.4131 137.54 68.5061C135.516 69.6065 133.473 70.6743 131.466 71.8008C130.842 72.1513 130.598 72.0443 130.279 71.44C126.982 65.1963 122.525 59.7971 117.011 55.1996C111.427 50.5438 105.134 46.9752 98.2365 44.3806C97.5086 44.1069 97.3369 43.88 97.6479 43.1609C98.3704 41.4908 99.0159 39.7882 99.6265 38.0775C99.8445 37.4666 100.087 37.3896 100.697 37.6184C112.759 42.1442 123.051 48.975 131.14 58.7027C133.459 61.4914 135.67 64.3482 137.599 67.3975C137.746 67.6289 137.878 67.8686 138 68.0749L138 68.0751Z" fill="#80CB23"/>
<path d="M52.4998 43.7698C52.4481 44.2392 52.0102 44.2195 51.7086 44.3351C47.1283 46.091 42.786 48.2699 38.7136 50.9291C30.5542 56.2571 24.1166 63.0372 19.6469 71.4587C19.3079 72.0971 19.0379 72.1203 18.4465 71.79C16.4956 70.7009 14.5251 69.6419 12.5422 68.6064C12.0133 68.3301 11.8174 68.1588 12.1991 67.5596C21.0385 53.6805 33.187 43.5132 49.1819 37.6265C49.8374 37.3853 50.0901 37.4607 50.3194 38.1008C50.9321 39.8121 51.6196 41.4993 52.2775 43.196C52.3518 43.3877 52.4261 43.5794 52.5 43.7696L52.4998 43.7698Z" fill="#80CB23"/>
<path d="M75.0463 39.0701C68.4075 39.0804 61.9271 39.9891 55.6322 41.8937C54.8573 42.1281 54.5771 41.9773 54.3325 41.3166C53.8018 39.8847 53.201 38.4733 52.597 37.0646C52.4065 36.6203 52.4721 36.4318 53.0151 36.2699C61.1918 33.8349 69.5662 32.7014 78.1829 33.0673C84.51 33.336 90.6659 34.4029 96.6938 36.1364C97.5085 36.3706 97.6707 36.6332 97.3374 37.347C96.713 38.6845 96.163 40.0527 95.6526 41.4294C95.4384 42.007 95.2025 42.1031 94.5552 41.9084C88.2269 40.0038 81.7184 39.0752 75.0463 39.0701V39.0701Z" fill="#80CB23"/>
<path d="M50.9704 77.9865C49.1984 76.4992 49.2242 76.5132 50.0187 74.2555C50.9364 71.6474 51.9755 69.132 53.2445 66.753C55.2115 63.0658 58.0096 61.098 61.4862 60.7038C69.7433 59.7675 78.0167 59.8914 86.2896 60.3487C88.0996 60.4487 89.9084 60.5756 91.6828 61.1191C94.1596 61.8782 96.1453 63.5077 97.6746 66.0461C99.4815 69.0453 100.647 72.4619 101.911 75.8189C102.064 76.2238 102.026 76.4641 101.748 76.7178C101.313 77.1144 100.895 77.5377 100.418 78C99.8789 76.992 99.5708 75.8857 99.2004 74.8242C98.6443 73.2302 97.9919 71.7012 97.3415 70.1646C95.2043 65.1161 91.7634 62.8812 87.2785 62.5747C79.5145 62.0441 71.7578 62.0399 63.9944 62.5808C59.5491 62.8904 56.1689 65.1448 53.9945 70.1127C52.8846 72.6485 52.0281 75.3194 50.9704 77.9865V77.9865Z" fill="#029ADD"/>
<path d="M96 112.008C95.2806 112.008 94.8041 112.006 94.3277 112.008C92.9506 112.015 91.5603 111.918 90.2896 112.348C89.7894 112.517 89.1098 112.5 88.4854 112.499C79.4902 112.496 70.4953 112.496 61.5002 112.499C60.5356 112.5 59.6233 112.411 58.8131 112.138C58.4597 112.018 58.0966 112.005 57.7033 112.007C56.5458 112.01 55.3883 112.008 54 112.008C55.2415 111.456 56.5715 111.336 57.877 111.215C59.5073 111.064 61.1597 111 62.8193 111.001C70.9376 111.001 79.0558 110.997 87.1741 111.003C89.386 111.005 91.5847 111.098 93.7274 111.404C94.4735 111.511 95.2099 111.639 96 112.008V112.008Z" fill="#029ADD"/>
<path d="M98.9745 97.439C98.4259 97.4624 97.8814 97.5553 97.3279 97.4528C96.1985 97.2434 95.6841 96.3626 96.202 95.3866C96.7344 94.3836 97.4524 93.5656 98.626 93.1156C100.343 92.4572 102.092 91.9384 103.901 91.5744C105.117 91.3297 106.077 91.6946 106.829 92.5785C107.747 93.6572 108.037 94.9214 107.996 96.2869C107.982 96.7813 107.691 96.8068 107.308 96.8339C104.53 97.0308 101.752 97.2362 98.9744 97.439H98.9745Z" fill="#029ADD"/>
<path d="M51.0923 97.4431C48.3159 97.239 45.5408 97.0201 42.7625 96.8427C42.1794 96.8054 41.999 96.6175 42 96.0603C42.0018 95.1113 42.1656 94.214 42.608 93.3662C43.4426 91.7672 44.5679 91.2648 46.4048 91.5974C48.1952 91.9214 49.8963 92.4933 51.5723 93.1588C52.7016 93.6073 53.3623 94.481 53.8427 95.4738C54.2966 96.412 53.7293 97.2602 52.6413 97.4565C52.1197 97.5507 51.6085 97.466 51.0923 97.4431V97.4431Z" fill="#029ADD"/>
</svg>
