<svg width="150" height="150" viewBox="0 0 150 150" fill="none" xmlns="http://www.w3.org/2000/svg">
<rect width="150" height="150" fill="#27282E"/>
<path d="M136.267 54.6236C139.693 49.5396 138.353 42.6383 133.273 39.2091C128.194 35.7799 121.299 37.1214 117.873 42.2054L81.766 95.7829C78.3399 100.867 79.6802 107.768 84.7597 111.197C89.8392 114.627 96.7343 113.285 100.161 108.201L136.267 54.6236Z" fill="#017FC8"/>
<path d="M102.986 54.6236C106.412 49.5396 105.072 42.6383 99.9921 39.2091C94.9127 35.7799 88.0175 37.1214 84.5913 42.2054L48.4848 95.7829C45.0586 100.867 46.3989 107.768 51.4784 111.197C56.5579 114.627 63.4531 113.285 66.8793 108.201L102.986 54.6236Z" fill="#017FC8"/>
<path d="M69.7045 54.6236C73.1307 49.5396 71.7904 42.6383 66.7109 39.2091C61.6314 35.7799 54.7362 37.1214 51.3101 42.2054L15.2035 95.7829C11.7774 100.867 13.1177 107.768 18.1972 111.197C23.2767 114.627 30.1718 113.285 33.598 108.201L69.7045 54.6236Z" fill="#017FC8"/>
<path d="M26.2562 63.045C33.0639 63.045 38.5827 57.5213 38.5827 50.7075C38.5827 43.8938 33.0639 38.3701 26.2562 38.3701C19.4485 38.3701 13.9297 43.8938 13.9297 50.7075C13.9297 57.5213 19.4485 63.045 26.2562 63.045Z" fill="#017FC8"/>
</svg>
