<svg width="150" height="150" viewBox="0 0 150 150" fill="none" xmlns="http://www.w3.org/2000/svg">
<rect width="150" height="150" fill="#27282E"/>
<path d="M40.5 85.7034C40.5 85.0791 40.7562 84.4841 41.2052 84.0653L50.3124 75.5709C51.1286 74.8097 52.3714 74.8097 53.1876 75.5709L62.2948 84.0653C62.7438 84.4841 63 85.0791 63 85.7034V103.5H40.5V85.7034Z" fill="#FF8F03"/>
<path d="M87 85.7034C87 85.0791 87.2562 84.4841 87.7052 84.0653L96.8124 75.5709C97.6286 74.8097 98.8714 74.8097 99.6876 75.5709L108.795 84.0653C109.244 84.4841 109.5 85.0791 109.5 85.7034V103.5H87V85.7034Z" fill="#FF8F03"/>
<path d="M109.5 55.7034C109.5 55.0792 109.773 54.4841 110.252 54.0653L119.967 45.571C120.837 44.8097 122.163 44.8097 123.033 45.571L132.748 54.0653C133.227 54.4841 133.5 55.0792 133.5 55.7034V73.5H109.5V55.7034Z" fill="#FF8F03"/>
<path d="M63 55.7034C63 55.0792 63.2733 54.4841 63.7522 54.0653L73.4665 45.571C74.3371 44.8097 75.6629 44.8097 76.5335 45.571L86.2478 54.0653C86.7267 54.4841 87 55.0792 87 55.7034V73.5H63V55.7034Z" fill="#FF8F03"/>
<path d="M16.5 55.7034C16.5 55.0792 16.7733 54.4841 17.2522 54.0653L26.9665 45.571C27.8371 44.8097 29.1629 44.8097 30.0335 45.571L39.7478 54.0653C40.2267 54.4841 40.5 55.0792 40.5 55.7034V73.5H16.5V55.7034Z" fill="#FF8F03"/>
</svg>
