<svg width="150" height="150" viewBox="0 0 150 150" fill="none" xmlns="http://www.w3.org/2000/svg">
<rect width="150" height="150" fill="#27282E"/>
<path d="M105.067 20H44.9333C31.163 20 20 31.163 20 44.9333V105.067C20 118.837 31.163 130 44.9333 130H105.067C118.837 130 130 118.837 130 105.067V44.9333C130 31.163 118.837 20 105.067 20Z" fill="#232325"/>
<path d="M105 20H45C31.1929 20 20 31.1929 20 45V74.2667H130V45C130 31.1929 118.807 20 105 20Z" fill="url(#paint0_linear_534_2815)"/>
<path d="M75.7333 74.2666H20V105C20 118.807 31.1929 130 45 130H75.7333V74.2666Z" fill="url(#paint1_linear_534_2815)"/>
<defs>
<linearGradient id="paint0_linear_534_2815" x1="130" y1="20" x2="22.9333" y2="74.2667" gradientUnits="userSpaceOnUse">
<stop stop-color="#FFD304"/>
<stop offset="1" stop-color="#FDB001"/>
</linearGradient>
<linearGradient id="paint1_linear_534_2815" x1="75.7333" y1="74.2666" x2="16.1161" y2="125.479" gradientUnits="userSpaceOnUse">
<stop stop-color="#F3F5F7"/>
<stop offset="1" stop-color="#E0E8EA"/>
</linearGradient>
</defs>
</svg>
