<svg width="104" height="104" fill="none" xmlns="http://www.w3.org/2000/svg"><path d="M79.125 52.006c0-9.252-4.809-17.96-12.603-22.913a.776.776 0 0 0-1.076.263l-.389.654a.76.76 0 0 0 .255 1.034c7.124 4.537 11.518 12.5 11.518 20.962 0 11.578-7.811 21.318-18.69 24.048-.71.177-1.25-.647-.803-1.225l4.44-5.741a.769.769 0 0 0-.139-1.08l-.6-.463a.768.768 0 0 0-1.078.139l-7.454 9.644a.768.768 0 0 0 .184 1.11l10.16 6.732a.77.77 0 0 0 1.065-.215l.42-.633a.768.768 0 0 0-.216-1.067l-5.469-3.622c-.551-.365-.414-1.212.227-1.377 11.8-3.042 20.248-13.662 20.248-26.252l-.001.001Z" fill="url(#a)"/><path d="m40.104 19.029-.456.687a.735.735 0 0 0 .206 1.02l5.557 3.681c.528.35.396 1.162-.217 1.318-11.837 3.019-20.319 13.655-20.319 26.27 0 9.264 4.82 17.98 12.63 22.931a.745.745 0 0 0 1.031-.252l.423-.71a.728.728 0 0 0-.244-.989c-7.139-4.534-11.544-12.508-11.544-20.98 0-11.61 7.855-21.373 18.783-24.071.68-.168 1.196.617.768 1.171l-4.518 5.844a.736.736 0 0 0 .132 1.032l.654.505a.736.736 0 0 0 1.031-.132l7.495-9.698a.735.735 0 0 0-.176-1.062l-10.218-6.771a.735.735 0 0 0-1.018.206Z" fill="url(#b)"/><path d="M53.481 56.586c5.475 0 10.236-2.849 10.236-8.361 0-5.138-3.975-8.099-9.75-8.099h-9.523v19.345h-1.662v1.875h1.662v5.029h1.95v-5.029h7.526v-1.875h-7.526v-2.883h7.087v-.002Zm-7.087-14.661h7.423c4.725 0 7.95 2.175 7.95 6.338 0 3.974-3.3 6.525-8.175 6.525h-7.2V41.925h.002Z" fill="url(#c)"/><rect x="1" y="1" width="102" height="102" rx="11" stroke="url(#d)" stroke-width="2"/><defs><linearGradient id="a" x1="52.346" y1="28.975" x2="96.031" y2="49.746" gradientUnits="userSpaceOnUse"><stop stop-color="#BE94FF"/><stop offset="1" stop-color="#6500FF"/></linearGradient><linearGradient id="b" x1="24.875" y1="18.7" x2="68.581" y2="39.483" gradientUnits="userSpaceOnUse"><stop stop-color="#BE94FF"/><stop offset="1" stop-color="#6500FF"/></linearGradient><linearGradient id="c" x1="42.782" y1="40.126" x2="68.374" y2="60.537" gradientUnits="userSpaceOnUse"><stop stop-color="#BE94FF"/><stop offset="1" stop-color="#6500FF"/></linearGradient><linearGradient id="d" x1="2" y1="2" x2="102" y2="102" gradientUnits="userSpaceOnUse"><stop stop-color="#BE94FF"/><stop offset="1" stop-color="#6500FF"/></linearGradient></defs></svg>