<svg width="104" height="104" fill="none" xmlns="http://www.w3.org/2000/svg"><path d="M46.373 52.146h-3.102v3.103h3.102v-3.103Z" fill="url(#a)"/><path d="M52.578 52.146h-3.102v3.103h3.102v-3.103Z" fill="url(#b)"/><path d="M58.782 52.146H55.68v3.103h3.102v-3.103Z" fill="url(#c)"/><path d="M49.475 55.249h-3.102v3.102h3.102V55.25Z" fill="url(#d)"/><path d="M55.68 55.249h-3.102v3.102h3.103V55.25Z" fill="url(#e)"/><path d="M29.7 64.846a6.419 6.419 0 0 1-6.412-6.411 6.42 6.42 0 0 1 6.413-6.413 6.418 6.418 0 0 1 6.41 6.413 6.418 6.418 0 0 1-6.41 6.411Zm0-10.324a3.917 3.917 0 0 0-3.912 3.913 3.916 3.916 0 0 0 3.913 3.911 3.915 3.915 0 0 0 3.91-3.911 3.916 3.916 0 0 0-3.91-3.913Z" fill="url(#f)"/><path d="M75.462 64.846a6.419 6.419 0 0 1-6.411-6.411 6.42 6.42 0 0 1 6.411-6.413 6.42 6.42 0 0 1 6.412 6.413 6.418 6.418 0 0 1-6.412 6.411Zm0-10.324a3.916 3.916 0 0 0-3.911 3.913 3.915 3.915 0 0 0 3.911 3.911 3.916 3.916 0 0 0 3.912-3.911 3.917 3.917 0 0 0-3.912-3.913Z" fill="url(#g)"/><path d="M67.172 60.239H37.815a1.25 1.25 0 0 0 0 2.5h29.357a1.25 1.25 0 0 0 0-2.5Z" fill="url(#h)"/><path d="M51.06 50.259c-3.634 0-7.153-.059-9.194-.246-2.982-.273-8.028-1.173-10.075-1.55-.497-.092-.825-.605-.74-1.147l.083-.512c.087-.537.552-.898 1.043-.806 2.024.372 7.025 1.263 9.881 1.525 4.579.418 17.331.166 20.841.084.5-.01.913.42.925.967l.012.52c.012.547-.385 1.002-.888 1.014-2.03.047-7.06.15-11.887.15Z" fill="url(#i)"/><path d="M14.262 60.805c-1.244-1.638.576-12.447 1.22-14.376.296-.892.39-.903 5.242-1.43 1.168-.128 2.345-.255 3.185-.369.344-.046.53-.159 1.064-.505 1.536-1.001 4.399-2.865 16.61-4.585 14.863-2.097 26.126 4.934 28.861 6.843.194.134.425.207.662.214 10.033.36 16.59 2.535 18.077 4.008.813.806 1.439 2.686.545 10.933-.095.893-.435 1.338-3.072 1.338-.85 0-1.936-.046-3.327-.137a1.262 1.262 0 0 1-1.177-1.345 1.252 1.252 0 0 1 1.325-1.155c.947.056 1.902.097 2.695.115a1.257 1.257 0 0 0 1.275-1.154c.331-3.776.23-5.51.096-6.291a1.258 1.258 0 0 0-.659-.911c-1.793-.953-7.663-2.692-16.616-2.925l-.805-.333c-.124-.081-11.824-8.935-27.531-6.725-11.663 1.642-14.222 3.309-15.597 4.204-.602.392-1.172.764-2.09.889-.858.116-2.06.246-3.252.376-.775.084-1.701.185-2.46.276a1.245 1.245 0 0 0-1.075.975c-.589 2.74-1.104 7.186-1.156 9.464a1.24 1.24 0 0 0 .974 1.244c.898.202 2.08.412 3.003.55.79.12 1.383.778 1.422 1.577 0 0 .35 1.053.08 1.057-.15.003-7.52-1.823-7.52-1.823v.001Z" fill="url(#j)"/><rect x="1" y="1" width="102" height="102" rx="11" stroke="url(#k)" stroke-width="2"/><defs><linearGradient id="a" x1="43.27" y1="52.146" x2="46.373" y2="55.249" gradientUnits="userSpaceOnUse"><stop stop-color="#BE94FF"/><stop offset="1" stop-color="#6500FF"/></linearGradient><linearGradient id="b" x1="49.476" y1="52.146" x2="52.578" y2="55.249" gradientUnits="userSpaceOnUse"><stop stop-color="#BE94FF"/><stop offset="1" stop-color="#6500FF"/></linearGradient><linearGradient id="c" x1="55.68" y1="52.146" x2="58.782" y2="55.249" gradientUnits="userSpaceOnUse"><stop stop-color="#BE94FF"/><stop offset="1" stop-color="#6500FF"/></linearGradient><linearGradient id="d" x1="46.373" y1="55.249" x2="49.475" y2="58.351" gradientUnits="userSpaceOnUse"><stop stop-color="#BE94FF"/><stop offset="1" stop-color="#6500FF"/></linearGradient><linearGradient id="e" x1="52.578" y1="55.249" x2="55.681" y2="58.351" gradientUnits="userSpaceOnUse"><stop stop-color="#BE94FF"/><stop offset="1" stop-color="#6500FF"/></linearGradient><linearGradient id="f" x1="23.288" y1="52.023" x2="36.112" y2="64.846" gradientUnits="userSpaceOnUse"><stop stop-color="#BE94FF"/><stop offset="1" stop-color="#6500FF"/></linearGradient><linearGradient id="g" x1="69.051" y1="52.023" x2="81.874" y2="64.846" gradientUnits="userSpaceOnUse"><stop stop-color="#BE94FF"/><stop offset="1" stop-color="#6500FF"/></linearGradient><linearGradient id="h" x1="36.565" y1="60.239" x2="36.955" y2="65.208" gradientUnits="userSpaceOnUse"><stop stop-color="#BE94FF"/><stop offset="1" stop-color="#6500FF"/></linearGradient><linearGradient id="i" x1="31.038" y1="45.983" x2="32.134" y2="54.391" gradientUnits="userSpaceOnUse"><stop stop-color="#BE94FF"/><stop offset="1" stop-color="#6500FF"/></linearGradient><linearGradient id="j" x1="13.837" y1="39.153" x2="27.284" y2="82.42" gradientUnits="userSpaceOnUse"><stop stop-color="#BE94FF"/><stop offset="1" stop-color="#6500FF"/></linearGradient><linearGradient id="k" x1="2" y1="2" x2="102" y2="102" gradientUnits="userSpaceOnUse"><stop stop-color="#BE94FF"/><stop offset="1" stop-color="#6500FF"/></linearGradient></defs></svg>