<svg width="104" height="104" fill="none" xmlns="http://www.w3.org/2000/svg"><path d="M66.331 24.926H60.75v-2.178h-17.5v2.178h-5.581c-4.03 0-7.307 3.278-7.307 7.305v41.715c0 4.03 3.278 7.305 7.307 7.305H66.33c4.029 0 7.305-3.277 7.305-7.305V32.233a7.312 7.312 0 0 0-7.305-7.305v-.002Zm4.805 49.02a4.81 4.81 0 0 1-4.805 4.805H37.67a4.812 4.812 0 0 1-4.806-4.805V32.233a4.81 4.81 0 0 1 4.806-4.805h5.581v7.935h17.5v-7.935h5.581a4.811 4.811 0 0 1 4.805 4.805v41.713h-.001Z" fill="url(#a)"/><path d="M60.693 44.436h-17.5v2.543h17.5v-2.543Z" fill="url(#b)"/><path d="M60.518 50.646h-17.5v2.543h17.5v-2.543Z" fill="url(#c)"/><path d="M60.693 56.939h-17.5v2.542h17.5V56.94Z" fill="url(#d)"/><path d="M60.75 63.231h-17.5v2.543h17.5V63.23Z" fill="url(#e)"/><rect x="1" y="1" width="102" height="102" rx="11" stroke="url(#f)" stroke-width="2"/><defs><linearGradient id="a" x1="30.362" y1="22.748" x2="86.303" y2="64.126" gradientUnits="userSpaceOnUse"><stop stop-color="#BE94FF"/><stop offset="1" stop-color="#6500FF"/></linearGradient><linearGradient id="b" x1="43.193" y1="44.436" x2="43.917" y2="49.416" gradientUnits="userSpaceOnUse"><stop stop-color="#BE94FF"/><stop offset="1" stop-color="#6500FF"/></linearGradient><linearGradient id="c" x1="43.018" y1="50.646" x2="43.741" y2="55.626" gradientUnits="userSpaceOnUse"><stop stop-color="#BE94FF"/><stop offset="1" stop-color="#6500FF"/></linearGradient><linearGradient id="d" x1="43.193" y1="56.939" x2="43.917" y2="61.919" gradientUnits="userSpaceOnUse"><stop stop-color="#BE94FF"/><stop offset="1" stop-color="#6500FF"/></linearGradient><linearGradient id="e" x1="43.25" y1="63.231" x2="43.974" y2="68.211" gradientUnits="userSpaceOnUse"><stop stop-color="#BE94FF"/><stop offset="1" stop-color="#6500FF"/></linearGradient><linearGradient id="f" x1="2" y1="2" x2="102" y2="102" gradientUnits="userSpaceOnUse"><stop stop-color="#BE94FF"/><stop offset="1" stop-color="#6500FF"/></linearGradient></defs></svg>