<svg width="104" height="104" fill="none" xmlns="http://www.w3.org/2000/svg"><path d="m77.483 24.817-8.12 2.417a.941.941 0 0 0 .536 1.804l5.366-1.492a.758.758 0 0 0-.05.088l-15.43 31.602a.761.761 0 0 1-1.222.204l-4.535-4.535a.76.76 0 0 0-1.076 0l-9.561 9.561a.76.76 0 0 1-1.077 0L40.21 62.36a.76.76 0 0 0-1.076 0L26.688 74.804a.76.76 0 0 0 0 1.076l.691.691v.002a.76.76 0 0 0 1.076 0l10.678-10.677a.76.76 0 0 1 1.076 0l2.105 2.106a.76.76 0 0 0 1.077 0l9.56-9.56a.76.76 0 0 1 1.077 0l5.245 5.244a.76.76 0 0 0 1.221-.203L77.46 28.73a.764.764 0 0 0 .06-.17l1.746 5.548a.941.941 0 1 0 1.805-.537l-2.417-8.122a.941.941 0 0 0-1.17-.633Z" fill="url(#a)"/><rect x="1" y="1" width="102" height="102" rx="11" stroke="url(#b)" stroke-width="2"/><defs><linearGradient id="a" x1="26.465" y1="24.777" x2="78.42" y2="79.357" gradientUnits="userSpaceOnUse"><stop stop-color="#BE94FF"/><stop offset="1" stop-color="#6500FF"/></linearGradient><linearGradient id="b" x1="2" y1="2" x2="102" y2="102" gradientUnits="userSpaceOnUse"><stop stop-color="#BE94FF"/><stop offset="1" stop-color="#6500FF"/></linearGradient></defs></svg>