<svg width="104" height="104" viewBox="0 0 104 104" fill="none" xmlns="http://www.w3.org/2000/svg">
<path d="M42.6815 52.0275C42.5015 52.0275 42.3203 51.9937 42.144 51.925C41.5765 51.7 41.209 51.1575 41.209 50.54V45.7337C39.1903 45.5725 37.5928 43.795 37.5928 41.6325V27.86C37.5928 25.5925 39.349 23.7462 41.5078 23.7462H63.519C65.6778 23.7462 67.434 25.5925 67.434 27.86V41.6325C67.434 43.9 65.6778 45.7462 63.519 45.7462H49.1565L43.7503 51.5575C43.464 51.8637 43.0765 52.0275 42.6815 52.0275ZM41.509 26.2462C40.729 26.2462 40.094 26.97 40.094 27.86V41.6325C40.094 42.5225 40.729 43.2462 41.509 43.2462H43.7103V47.9325L48.069 43.2462H63.5203C64.3003 43.2462 64.9353 42.5225 64.9353 41.6325V27.86C64.9353 26.97 64.3003 26.2462 63.5203 26.2462H41.5078H41.509Z" fill="url(#paint0_linear_303_1462)"/>
<path d="M62.6894 80.2538H41.4531V79.0038C41.4531 73.1488 46.2169 68.3876 52.0706 68.3876C57.9244 68.3876 62.6881 73.1501 62.6881 79.0038V80.2538H62.6894ZM44.0506 77.7538H60.0931C59.4906 73.8701 56.1231 70.8876 52.0719 70.8876C48.0206 70.8876 44.6531 73.8701 44.0506 77.7538Z" fill="url(#paint1_linear_303_1462)"/>
<path d="M52.0714 67.7625C48.4889 67.7625 45.5752 64.8488 45.5752 61.2663C45.5752 57.6838 48.4889 54.77 52.0714 54.77C55.6539 54.77 58.5677 57.6838 58.5677 61.2663C58.5677 64.8488 55.6539 67.7625 52.0714 67.7625ZM52.0714 57.2688C49.8677 57.2688 48.0752 59.0625 48.0752 61.265C48.0752 63.4675 49.8689 65.2613 52.0714 65.2613C54.2739 65.2613 56.0677 63.4675 56.0677 61.265C56.0677 59.0625 54.2739 57.2688 52.0714 57.2688Z" fill="url(#paint2_linear_303_1462)"/>
<path d="M87.0377 68.7625H65.8027V67.5125C65.8027 61.6575 70.5665 56.895 76.4202 56.895C82.274 56.895 87.0377 61.6588 87.0377 67.5125V68.7625ZM68.399 66.2625H84.4415C83.839 62.3788 80.4715 59.395 76.4202 59.395C72.369 59.395 69.0015 62.3788 68.399 66.2625Z" fill="url(#paint3_linear_303_1462)"/>
<path d="M76.4201 56.27C72.8376 56.27 69.9238 53.3562 69.9238 49.7737C69.9238 46.1912 72.8376 43.2775 76.4201 43.2775C80.0026 43.2775 82.9176 46.1912 82.9176 49.7737C82.9176 53.3562 80.0026 56.27 76.4201 56.27ZM76.4201 45.7762C74.2163 45.7762 72.4238 47.57 72.4238 49.7725C72.4238 51.975 74.2176 53.7687 76.4201 53.7687C78.6226 53.7687 80.4176 51.975 80.4176 49.7725C80.4176 47.57 78.6238 45.7762 76.4201 45.7762Z" fill="url(#paint4_linear_303_1462)"/>
<path d="M38.1979 68.7625H16.9629V67.5125C16.9629 61.6575 21.7266 56.895 27.5804 56.895C33.4341 56.895 38.1979 61.6588 38.1979 67.5125V68.7625ZM19.5591 66.2625H35.6016C34.9991 62.3788 31.6316 59.395 27.5804 59.395C23.5291 59.395 20.1616 62.3788 19.5591 66.2625Z" fill="url(#paint5_linear_303_1462)"/>
<path d="M27.5802 56.27C23.9977 56.27 21.084 53.3562 21.084 49.7737C21.084 46.1912 23.9977 43.2775 27.5802 43.2775C31.1627 43.2775 34.0765 46.1912 34.0765 49.7737C34.0765 53.3562 31.1627 56.27 27.5802 56.27ZM27.5802 45.7762C25.3765 45.7762 23.584 47.57 23.584 49.7725C23.584 51.975 25.3777 53.7687 27.5802 53.7687C29.7827 53.7687 31.5765 51.975 31.5765 49.7725C31.5765 47.57 29.7827 45.7762 27.5802 45.7762Z" fill="url(#paint6_linear_303_1462)"/>
<rect x="1" y="1" width="102" height="102" rx="11" stroke="url(#paint7_linear_303_1462)" stroke-width="2"/>
<defs>
<linearGradient id="paint0_linear_303_1462" x1="37.5928" y1="23.7462" x2="65.8333" y2="53.5445" gradientUnits="userSpaceOnUse">
<stop stop-color="#BE94FF"/>
<stop offset="1" stop-color="#6500FF"/>
</linearGradient>
<linearGradient id="paint1_linear_303_1462" x1="41.4531" y1="68.3876" x2="51.5589" y2="86.4732" gradientUnits="userSpaceOnUse">
<stop stop-color="#BE94FF"/>
<stop offset="1" stop-color="#6500FF"/>
</linearGradient>
<linearGradient id="paint2_linear_303_1462" x1="45.5752" y1="54.77" x2="58.5677" y2="67.7625" gradientUnits="userSpaceOnUse">
<stop stop-color="#BE94FF"/>
<stop offset="1" stop-color="#6500FF"/>
</linearGradient>
<linearGradient id="paint3_linear_303_1462" x1="65.8027" y1="56.895" x2="75.9105" y2="74.9812" gradientUnits="userSpaceOnUse">
<stop stop-color="#BE94FF"/>
<stop offset="1" stop-color="#6500FF"/>
</linearGradient>
<linearGradient id="paint4_linear_303_1462" x1="69.9238" y1="43.2775" x2="82.9163" y2="56.2712" gradientUnits="userSpaceOnUse">
<stop stop-color="#BE94FF"/>
<stop offset="1" stop-color="#6500FF"/>
</linearGradient>
<linearGradient id="paint5_linear_303_1462" x1="16.9629" y1="56.895" x2="27.0706" y2="74.9812" gradientUnits="userSpaceOnUse">
<stop stop-color="#BE94FF"/>
<stop offset="1" stop-color="#6500FF"/>
</linearGradient>
<linearGradient id="paint6_linear_303_1462" x1="21.084" y1="43.2775" x2="34.0765" y2="56.27" gradientUnits="userSpaceOnUse">
<stop stop-color="#BE94FF"/>
<stop offset="1" stop-color="#6500FF"/>
</linearGradient>
<linearGradient id="paint7_linear_303_1462" x1="2" y1="2" x2="102" y2="102" gradientUnits="userSpaceOnUse">
<stop stop-color="#BE94FF"/>
<stop offset="1" stop-color="#6500FF"/>
</linearGradient>
</defs>
</svg>
