<svg width="104" height="104" viewBox="0 0 104 104" fill="none" xmlns="http://www.w3.org/2000/svg">
<path d="M79.1248 52.0063C79.1248 42.7538 74.316 34.0463 66.5223 29.0925C66.1573 28.86 65.6673 28.985 65.446 29.3563L65.0573 30.01C64.8448 30.3675 64.961 30.82 65.3123 31.0438C72.436 35.5813 76.8298 43.5438 76.8298 52.0063C76.8298 63.5838 69.0185 73.3238 58.1398 76.0538C57.4298 76.2313 56.8898 75.4075 57.3373 74.8288L61.7773 69.0875C62.0373 68.7513 61.9748 68.2688 61.6385 68.0088L61.0373 67.545C60.701 67.2863 60.2198 67.3475 59.9598 67.6838L52.506 77.3275C52.2335 77.6813 52.3173 78.1913 52.6898 78.4375L62.851 85.1713C63.2048 85.405 63.681 85.3088 63.916 84.9563L64.336 84.3225C64.571 83.9688 64.4748 83.4913 64.1198 83.2563L58.651 79.6338C58.0998 79.2688 58.2373 78.4225 58.8785 78.2575C70.6785 75.215 79.126 64.595 79.126 52.005L79.1248 52.0063Z" fill="url(#paint0_linear_303_1414)"/>
<path d="M40.1038 19.0287L39.6475 19.7162C39.4225 20.055 39.515 20.5112 39.8538 20.7362L45.4113 24.4175C45.9388 24.7675 45.8075 25.5787 45.1938 25.735C33.3575 28.7537 24.875 39.39 24.875 52.005C24.875 61.2687 29.695 69.985 37.505 74.9362C37.855 75.1575 38.3238 75.0387 38.5363 74.6837L38.9588 73.9737C39.1625 73.6325 39.05 73.1987 38.715 72.985C31.5763 68.4512 27.1713 60.4775 27.1713 52.005C27.1713 40.395 35.0262 30.6325 45.9538 27.9337C46.6338 27.7662 47.15 28.5512 46.7225 29.105L42.2038 34.9487C41.955 35.27 42.015 35.7325 42.3363 35.9812L42.99 36.4862C43.3113 36.7337 43.7725 36.675 44.0213 36.3537L51.5163 26.6562C51.7775 26.3187 51.6963 25.83 51.34 25.5937L41.1225 18.8225C40.7838 18.5987 40.3275 18.69 40.1038 19.0287Z" fill="url(#paint1_linear_303_1414)"/>
<path d="M53.481 56.5862C58.956 56.5862 63.7172 53.7375 63.7172 48.225C63.7172 43.0875 59.7422 40.1262 53.9672 40.1262H44.4435V59.4712H42.7822V61.3462H44.4435V66.375H46.3935V61.3462H53.9197V59.4712H46.3935V56.5875H53.481V56.5862ZM46.3935 41.925H53.8172C58.5422 41.925 61.7672 44.1 61.7672 48.2625C61.7672 52.2375 58.4672 54.7875 53.5922 54.7875H46.3922V41.925H46.3935Z" fill="url(#paint2_linear_303_1414)"/>
<rect x="1" y="1" width="102" height="102" rx="11" stroke="url(#paint3_linear_303_1414)" stroke-width="2"/>
<defs>
<linearGradient id="paint0_linear_303_1414" x1="52.3457" y1="28.975" x2="96.0305" y2="49.7458" gradientUnits="userSpaceOnUse">
<stop stop-color="#BE94FF"/>
<stop offset="1" stop-color="#6500FF"/>
</linearGradient>
<linearGradient id="paint1_linear_303_1414" x1="24.875" y1="18.7001" x2="68.5814" y2="39.4834" gradientUnits="userSpaceOnUse">
<stop stop-color="#BE94FF"/>
<stop offset="1" stop-color="#6500FF"/>
</linearGradient>
<linearGradient id="paint2_linear_303_1414" x1="42.7822" y1="40.1262" x2="68.3735" y2="60.5368" gradientUnits="userSpaceOnUse">
<stop stop-color="#BE94FF"/>
<stop offset="1" stop-color="#6500FF"/>
</linearGradient>
<linearGradient id="paint3_linear_303_1414" x1="2" y1="2" x2="102" y2="102" gradientUnits="userSpaceOnUse">
<stop stop-color="#BE94FF"/>
<stop offset="1" stop-color="#6500FF"/>
</linearGradient>
</defs>
</svg>
