<svg width="104" height="104" viewBox="0 0 104 104" fill="none" xmlns="http://www.w3.org/2000/svg">
<path d="M46.373 52.1462H43.2705V55.2487H46.373V52.1462Z" fill="url(#paint0_linear_303_1424)"/>
<path d="M52.5781 52.1462H49.4756V55.2487H52.5781V52.1462Z" fill="url(#paint1_linear_303_1424)"/>
<path d="M58.7822 52.1462H55.6797V55.2487H58.7822V52.1462Z" fill="url(#paint2_linear_303_1424)"/>
<path d="M49.4755 55.2488H46.373V58.3513H49.4755V55.2488Z" fill="url(#paint3_linear_303_1424)"/>
<path d="M55.6806 55.2488H52.5781V58.3513H55.6806V55.2488Z" fill="url(#paint4_linear_303_1424)"/>
<path d="M29.7006 64.8462C26.1643 64.8462 23.2881 61.97 23.2881 58.435C23.2881 54.9 26.1643 52.0225 29.7006 52.0225C33.2368 52.0225 36.1118 54.8987 36.1118 58.435C36.1118 61.9712 33.2356 64.8462 29.7006 64.8462ZM29.7006 54.5225C27.5431 54.5225 25.7881 56.2775 25.7881 58.435C25.7881 60.5925 27.5431 62.3462 29.7006 62.3462C31.8581 62.3462 33.6118 60.5925 33.6118 58.435C33.6118 56.2775 31.8581 54.5225 29.7006 54.5225Z" fill="url(#paint5_linear_303_1424)"/>
<path d="M75.462 64.8462C71.927 64.8462 69.0508 61.97 69.0508 58.435C69.0508 54.9 71.927 52.0225 75.462 52.0225C78.997 52.0225 81.8745 54.8987 81.8745 58.435C81.8745 61.9712 78.9983 64.8462 75.462 64.8462ZM75.462 54.5225C73.3045 54.5225 71.5508 56.2775 71.5508 58.435C71.5508 60.5925 73.3045 62.3462 75.462 62.3462C77.6195 62.3462 79.3745 60.5925 79.3745 58.435C79.3745 56.2775 77.6195 54.5225 75.462 54.5225Z" fill="url(#paint6_linear_303_1424)"/>
<path d="M67.1717 60.2388H37.8154C37.1251 60.2388 36.5654 60.7984 36.5654 61.4888C36.5654 62.1791 37.1251 62.7388 37.8154 62.7388H67.1717C67.862 62.7388 68.4217 62.1791 68.4217 61.4888C68.4217 60.7984 67.862 60.2388 67.1717 60.2388Z" fill="url(#paint7_linear_303_1424)"/>
<path d="M51.0606 50.2587C47.4256 50.2587 43.9068 50.2 41.8656 50.0125C38.8843 49.74 33.8381 48.84 31.7906 48.4625C31.2943 48.3712 30.9656 47.8575 31.0518 47.3162L31.1343 46.8037C31.2206 46.2675 31.6856 45.9062 32.1768 45.9975C34.2006 46.37 39.2018 47.2612 42.0581 47.5225C46.6368 47.9412 59.3893 47.6887 62.8993 47.6075C63.3993 47.5962 63.8118 48.0275 63.8243 48.5737L63.8356 49.0937C63.8481 49.6412 63.4506 50.0962 62.9481 50.1075C60.9181 50.155 55.8881 50.2587 51.0606 50.2587Z" fill="url(#paint8_linear_303_1424)"/>
<path d="M14.2617 60.805C13.018 59.1675 14.838 48.3575 15.4817 46.4287C15.778 45.5375 15.8717 45.5262 20.7242 44.9987C21.8917 44.8712 23.0692 44.7437 23.9092 44.63C24.253 44.5837 24.4392 44.4712 24.973 44.125C26.5092 43.1237 29.3717 41.26 41.583 39.54C56.4455 37.4425 67.7092 44.4737 70.4442 46.3825C70.638 46.5175 70.8692 46.59 71.1055 46.5975C81.1392 46.9575 87.6967 49.1325 89.183 50.605C89.9955 51.4112 90.6217 53.2912 89.728 61.5375C89.633 62.4312 89.293 62.8762 86.6555 62.8762C85.8067 62.8762 84.7205 62.83 83.3292 62.7387C82.6342 62.6925 82.0992 62.0887 82.1517 61.3937C82.203 60.7112 82.793 60.1975 83.4767 60.2387C84.4242 60.295 85.3792 60.3362 86.1717 60.3537C86.8342 60.3687 87.3892 59.86 87.4467 59.2C87.778 55.4237 87.6767 53.69 87.543 52.9087C87.4755 52.5137 87.238 52.185 86.8842 51.9975C85.0905 51.045 79.2205 49.3062 70.268 49.0725L69.463 48.74C69.3392 48.6587 57.6392 39.805 41.9317 42.015C30.2692 43.6575 27.7105 45.3237 26.3355 46.2187C25.733 46.6112 25.163 46.9825 24.2442 47.1075C23.3867 47.2237 22.1855 47.3537 20.993 47.4837C20.218 47.5675 19.2917 47.6687 18.533 47.76C18.0005 47.825 17.5705 48.2112 17.458 48.735C16.8692 51.475 16.3542 55.9212 16.3017 58.1987C16.288 58.7962 16.693 59.3112 17.2755 59.4425C18.1742 59.645 19.3555 59.855 20.2792 59.9937C21.0692 60.1125 21.6617 60.7712 21.7005 61.57C21.7005 61.57 22.0517 62.6225 21.7817 62.6275C21.6305 62.63 14.2605 60.8037 14.2605 60.8037L14.2617 60.805Z" fill="url(#paint9_linear_303_1424)"/>
<rect x="1" y="1" width="102" height="102" rx="11" stroke="url(#paint10_linear_303_1424)" stroke-width="2"/>
<defs>
<linearGradient id="paint0_linear_303_1424" x1="43.2705" y1="52.1462" x2="46.373" y2="55.2487" gradientUnits="userSpaceOnUse">
<stop stop-color="#BE94FF"/>
<stop offset="1" stop-color="#6500FF"/>
</linearGradient>
<linearGradient id="paint1_linear_303_1424" x1="49.4756" y1="52.1462" x2="52.5781" y2="55.2487" gradientUnits="userSpaceOnUse">
<stop stop-color="#BE94FF"/>
<stop offset="1" stop-color="#6500FF"/>
</linearGradient>
<linearGradient id="paint2_linear_303_1424" x1="55.6797" y1="52.1462" x2="58.7822" y2="55.2487" gradientUnits="userSpaceOnUse">
<stop stop-color="#BE94FF"/>
<stop offset="1" stop-color="#6500FF"/>
</linearGradient>
<linearGradient id="paint3_linear_303_1424" x1="46.373" y1="55.2488" x2="49.4755" y2="58.3513" gradientUnits="userSpaceOnUse">
<stop stop-color="#BE94FF"/>
<stop offset="1" stop-color="#6500FF"/>
</linearGradient>
<linearGradient id="paint4_linear_303_1424" x1="52.5781" y1="55.2488" x2="55.6806" y2="58.3513" gradientUnits="userSpaceOnUse">
<stop stop-color="#BE94FF"/>
<stop offset="1" stop-color="#6500FF"/>
</linearGradient>
<linearGradient id="paint5_linear_303_1424" x1="23.2881" y1="52.0225" x2="36.1118" y2="64.8462" gradientUnits="userSpaceOnUse">
<stop stop-color="#BE94FF"/>
<stop offset="1" stop-color="#6500FF"/>
</linearGradient>
<linearGradient id="paint6_linear_303_1424" x1="69.0508" y1="52.0225" x2="81.8745" y2="64.8462" gradientUnits="userSpaceOnUse">
<stop stop-color="#BE94FF"/>
<stop offset="1" stop-color="#6500FF"/>
</linearGradient>
<linearGradient id="paint7_linear_303_1424" x1="36.5654" y1="60.2388" x2="36.9554" y2="65.2082" gradientUnits="userSpaceOnUse">
<stop stop-color="#BE94FF"/>
<stop offset="1" stop-color="#6500FF"/>
</linearGradient>
<linearGradient id="paint8_linear_303_1424" x1="31.0381" y1="45.9834" x2="32.1341" y2="54.3912" gradientUnits="userSpaceOnUse">
<stop stop-color="#BE94FF"/>
<stop offset="1" stop-color="#6500FF"/>
</linearGradient>
<linearGradient id="paint9_linear_303_1424" x1="13.8369" y1="39.1533" x2="27.2842" y2="82.4197" gradientUnits="userSpaceOnUse">
<stop stop-color="#BE94FF"/>
<stop offset="1" stop-color="#6500FF"/>
</linearGradient>
<linearGradient id="paint10_linear_303_1424" x1="2" y1="2" x2="102" y2="102" gradientUnits="userSpaceOnUse">
<stop stop-color="#BE94FF"/>
<stop offset="1" stop-color="#6500FF"/>
</linearGradient>
</defs>
</svg>
