<svg width="104" height="104" viewBox="0 0 104 104" fill="none" xmlns="http://www.w3.org/2000/svg">
<path d="M77.4834 24.8167L69.3621 27.2336C68.8637 27.3819 68.58 27.9062 68.7283 28.4045C68.8766 28.9029 69.4008 29.1867 69.8992 29.0384L75.2646 27.5457C75.2461 27.5735 75.2292 27.6029 75.2142 27.6337L59.7842 59.2362C59.5555 59.705 58.9317 59.8087 58.563 59.44L54.028 54.905C53.7305 54.6075 53.2492 54.6075 52.9517 54.905L43.3905 64.4662C43.093 64.7637 42.6117 64.7637 42.3142 64.4662L40.2092 62.36C39.9117 62.0625 39.4305 62.0625 39.133 62.36L26.688 74.8037C26.3905 75.1012 26.3905 75.5825 26.688 75.88L27.3792 76.5712V76.5725C27.6767 76.87 28.158 76.87 28.4555 76.5725L39.133 65.8962C39.4305 65.5987 39.9117 65.5987 40.2092 65.8962L42.3142 68.0025C42.6117 68.3 43.093 68.3 43.3905 68.0025L52.9517 58.4412C53.2492 58.1437 53.7305 58.1437 54.028 58.4412L59.273 63.6862C59.6417 64.0562 60.2655 63.9512 60.4942 63.4825L77.4605 28.7312C77.4873 28.6761 77.5069 28.6193 77.5196 28.5619L79.2665 34.1089C79.4148 34.6073 79.939 34.8911 80.4374 34.7428C80.9358 34.5944 81.2195 34.0702 81.0712 33.5718L78.6543 25.4505C78.506 24.9522 77.9818 24.6684 77.4834 24.8167Z" fill="url(#paint0_linear_303_1439)"/>
<rect x="1" y="1" width="102" height="102" rx="11" stroke="url(#paint1_linear_303_1439)" stroke-width="2"/>
<defs>
<linearGradient id="paint0_linear_303_1439" x1="26.4648" y1="24.7773" x2="78.42" y2="79.3568" gradientUnits="userSpaceOnUse">
<stop stop-color="#BE94FF"/>
<stop offset="1" stop-color="#6500FF"/>
</linearGradient>
<linearGradient id="paint1_linear_303_1439" x1="2" y1="2" x2="102" y2="102" gradientUnits="userSpaceOnUse">
<stop stop-color="#BE94FF"/>
<stop offset="1" stop-color="#6500FF"/>
</linearGradient>
</defs>
</svg>
