<svg width="166" height="49" viewBox="0 0 166 49" fill="none" xmlns="http://www.w3.org/2000/svg">
<path fill-rule="evenodd" clip-rule="evenodd" d="M159.85 49H6.15041C2.76066 49 0 46.2384 0 42.875V6.125C0 2.74938 2.76066 0 6.15041 0H159.85C163.236 0 166 2.74938 166 6.125V42.875C166 46.2384 163.236 49 159.85 49Z" fill="black"/>
<path fill-rule="evenodd" clip-rule="evenodd" d="M159.85 0.980611C162.693 0.980611 165.02 3.29314 165.02 6.125V42.875C165.02 45.7069 162.708 48.0194 159.85 48.0194H6.15041C3.3073 48.0194 0.980279 45.7069 0.980279 42.875V6.125C0.980279 3.29314 3.29203 0.980611 6.15041 0.980611H159.85ZM159.85 0H6.15041C2.76066 0 0 2.7616 0 6.125V42.875C0 46.2506 2.76066 49 6.15041 49H159.85C163.236 49 166 46.2506 166 42.875V6.125C166 2.7616 163.236 0 159.85 0Z" fill="#D9DADA"/>
<path d="M87.4493 16.2089C86.3407 16.2089 85.4062 15.8209 84.6672 15.0572C83.9343 14.3148 83.5251 13.2915 83.5434 12.2467C83.5434 11.1317 83.9221 10.1877 84.6672 9.43928C85.4032 8.67557 86.3377 8.2876 87.4462 8.2876C88.5425 8.2876 89.477 8.67557 90.2282 9.43928C90.9734 10.2122 91.352 11.1561 91.352 12.2467C91.3398 13.3648 90.9611 14.3087 90.2282 15.0541C89.4923 15.8239 88.5578 16.2089 87.4493 16.2089ZM54.4651 16.2089C53.3809 16.2089 52.4404 15.827 51.6708 15.0724C50.9074 14.321 50.5195 13.3709 50.5195 12.2498C50.5195 11.1286 50.9074 10.1786 51.6708 9.42706C52.4251 8.67251 53.3657 8.29065 54.4651 8.29065C55.0025 8.29065 55.5247 8.39757 56.0255 8.61447C56.5172 8.82525 56.9173 9.11241 57.2135 9.46372L57.2868 9.55231L56.4592 10.3649L56.3737 10.2641C55.9065 9.70811 55.2804 9.43623 54.4528 9.43623C53.7138 9.43623 53.0695 9.69894 52.5381 10.2183C52.0037 10.7407 51.7319 11.4249 51.7319 12.2528C51.7319 13.0807 52.0037 13.765 52.5381 14.2873C53.0695 14.8067 53.7138 15.0694 54.4528 15.0694C55.2407 15.0694 55.9034 14.8067 56.4195 14.2873C56.7249 13.9819 56.9142 13.5542 56.9814 13.0135H54.3276V11.871H58.1205L58.1357 11.9748C58.1632 12.1673 58.1907 12.3658 58.1907 12.5491C58.1907 13.6031 57.8731 14.4554 57.244 15.0847C56.5294 15.8301 55.595 16.2089 54.4651 16.2089ZM98.3208 16.0469H97.1512L93.5691 10.313L93.5996 11.3455V16.0439H92.43V8.45256H93.7645L93.8012 8.5106L97.1695 13.9116L97.139 12.8821V8.45256H98.3208V16.0469ZM78.6604 16.0469H77.4755V9.59508H75.4203V8.45256H80.7125V9.59508H78.6573V16.0469H78.6604ZM74.4553 16.0469H73.2735V8.45256H74.4553V16.0469ZM67.8133 16.0469H66.6314V9.59508H64.5762V8.45256H69.8685V9.59508H67.8133V16.0469ZM63.828 16.0347H59.2962V8.45256H63.828V9.59508H60.4811V11.6785H63.5013V12.8088H60.4811V14.8922H63.828V16.0347ZM85.5345 14.2721C86.0628 14.8006 86.7041 15.0663 87.4493 15.0663C88.2158 15.0663 88.8418 14.8067 89.364 14.2721C89.8831 13.7527 90.1458 13.0715 90.1458 12.2498C90.1458 11.428 89.8831 10.7437 89.367 10.2274C88.8387 9.69894 88.1944 9.43317 87.4523 9.43317C86.6858 9.43317 86.0598 9.69283 85.5406 10.2274C85.0215 10.7468 84.7588 11.428 84.7588 12.2498C84.7588 13.0715 85.0184 13.7558 85.5345 14.2721Z" fill="white"/>
<path fill-rule="evenodd" clip-rule="evenodd" d="M83.4334 26.6507C80.5475 26.6507 78.2083 28.841 78.2083 31.8623C78.2083 34.856 80.5628 37.0738 83.4334 37.0738C86.3193 37.0738 88.6585 34.8682 88.6585 31.8623C88.6585 28.841 86.3193 26.6507 83.4334 26.6507ZM83.4334 35.0088C81.8546 35.0088 80.4956 33.7013 80.4956 31.85C80.4956 29.9713 81.8576 28.6913 83.4334 28.6913C85.0122 28.6913 86.3712 29.9713 86.3712 31.85C86.3742 33.7135 85.0122 35.0088 83.4334 35.0088ZM72.0335 26.6507C69.1476 26.6507 66.8083 28.841 66.8083 31.8623C66.8083 34.856 69.1629 37.0738 72.0335 37.0738C74.9193 37.0738 77.2586 34.8682 77.2586 31.8623C77.2586 28.841 74.9163 26.6507 72.0335 26.6507ZM72.0335 35.0088C70.4546 35.0088 69.0957 33.7013 69.0957 31.85C69.0957 29.9713 70.4577 28.6913 72.0335 28.6913C73.6123 28.6913 74.9712 29.9713 74.9712 31.85C74.9712 33.7135 73.6123 35.0088 72.0335 35.0088ZM58.4683 28.2422V30.4479H63.7606C63.5988 31.6851 63.1896 32.5985 62.5635 33.2247C61.7878 34.0007 60.5907 34.8438 58.4805 34.8438C55.2282 34.8438 52.6844 32.2166 52.6844 28.9632C52.6844 25.7098 55.2282 23.0826 58.4805 23.0826C60.2365 23.0826 61.5161 23.776 62.4658 24.6619L64.0294 23.0978C62.7101 21.8331 60.9541 20.8647 58.4928 20.8647C54.0311 20.8647 50.2871 24.5 50.2871 28.951C50.2871 33.4141 54.0281 37.0372 58.4928 37.0372C60.9022 37.0372 62.7101 36.249 64.1393 34.7644C65.596 33.3072 66.0571 31.2513 66.0571 29.5925C66.0571 29.0762 66.0174 28.6119 65.935 28.2178H58.4653C58.4683 28.2147 58.4683 28.2422 58.4683 28.2422ZM113.953 29.9591C113.517 28.7891 112.197 26.6384 109.492 26.6384C106.81 26.6384 104.581 28.7493 104.581 31.85C104.581 34.7766 106.786 37.0616 109.751 37.0616C112.133 37.0616 113.52 35.6045 114.091 34.7491L112.323 33.5638C111.736 34.4344 110.921 35.0057 109.764 35.0057C108.594 35.0057 107.776 34.4742 107.232 33.4263L114.198 30.5395C114.198 30.5426 113.953 29.9591 113.953 29.9591ZM106.85 31.7003C106.795 29.6872 108.414 28.6638 109.571 28.6638C110.484 28.6638 111.245 29.1129 111.504 29.7666L106.85 31.7003ZM101.191 36.75H103.479V21.4391H101.191V36.75ZM97.4352 27.8084H97.3528C96.8367 27.1944 95.8564 26.6384 94.6043 26.6384C92.0055 26.6384 89.6113 28.9265 89.6113 31.8653C89.6113 34.7919 91.9933 37.0525 94.6043 37.0525C95.8411 37.0525 96.8367 36.4934 97.3528 35.8672H97.4352V36.6156C97.4352 38.6043 96.3725 39.6766 94.6593 39.6766C93.2576 39.6766 92.3872 38.6685 92.033 37.8253L90.045 38.6563C90.616 40.031 92.1399 41.7325 94.6562 41.7325C97.3375 41.7325 99.6096 40.1532 99.6096 36.301V26.95H97.4474V27.8084C97.4505 27.8084 97.4352 27.8084 97.4352 27.8084ZM94.8089 35.0088C93.2301 35.0088 91.9108 33.6891 91.9108 31.8653C91.9108 30.0263 93.2301 28.6944 94.8089 28.6944C96.3725 28.6944 97.5849 30.0416 97.5849 31.8653C97.6001 33.6891 96.3756 35.0088 94.8089 35.0088ZM124.663 21.4391H119.194V36.75H121.481V30.9519H124.666C127.198 30.9519 129.687 29.1159 129.687 26.2016C129.687 23.2873 127.207 21.4391 124.663 21.4391ZM124.73 28.8135H121.478V23.5591H124.73C126.444 23.5591 127.412 24.9735 127.412 26.1863C127.412 27.3869 126.431 28.8135 124.73 28.8135ZM138.854 26.6232C137.193 26.6232 135.48 27.3594 134.771 28.9632L136.799 29.8063C137.236 28.9632 138.036 28.676 138.882 28.676C140.067 28.676 141.264 29.3848 141.291 30.6495V30.8114C140.882 30.5792 139.984 30.2248 138.909 30.2248C136.72 30.2248 134.5 31.4224 134.5 33.6677C134.5 35.7236 136.295 37.0433 138.296 37.0433C139.832 37.0433 140.677 36.3498 141.206 35.5464H141.288V36.7317H143.493V30.8664C143.493 28.1353 141.465 26.6232 138.854 26.6232ZM138.567 35.0088C137.819 35.0088 136.772 34.6422 136.772 33.7013C136.772 32.516 138.079 32.0669 139.193 32.0669C140.201 32.0669 140.678 32.2838 141.276 32.5832C141.111 33.9579 139.951 34.9965 138.567 35.0088ZM151.537 26.95L148.911 33.5913H148.828L146.107 26.95H143.646L147.729 36.2338L145.402 41.3934H147.784L154.065 26.95H151.537ZM130.948 36.75H133.235V21.4391H130.948V36.75Z" fill="white"/>
<path fill-rule="evenodd" clip-rule="evenodd" d="M12.7776 9.22848C12.4234 9.61034 12.2188 10.1938 12.2188 10.9575V38.045C12.2188 38.8087 12.4234 39.3922 12.7898 39.7588L12.8845 39.8413L28.0559 24.6647V24.3256L12.8723 9.146L12.7776 9.22848Z" fill="url(#paint0_linear_303_6498)"/>
<path fill-rule="evenodd" clip-rule="evenodd" d="M33.1032 29.7389L28.043 24.677V24.3227L33.1032 19.2607L33.2131 19.3279L39.1987 22.7311C40.9119 23.6964 40.9119 25.291 39.1987 26.2686L33.2131 29.6717L33.1032 29.7389Z" fill="url(#paint1_linear_303_6498)"/>
<path fill-rule="evenodd" clip-rule="evenodd" d="M33.2136 29.6719L28.0434 24.5L12.7773 39.7713C13.3362 40.37 14.2737 40.4372 15.3212 39.8537L33.2136 29.6719Z" fill="url(#paint2_linear_303_6498)"/>
<path fill-rule="evenodd" clip-rule="evenodd" d="M33.2136 19.328L15.3212 9.16141C14.2737 8.56266 13.3331 8.64514 12.7773 9.24389L28.0434 24.4999L33.2136 19.328Z" fill="url(#paint3_linear_303_6498)"/>
<path opacity="0.2" fill-rule="evenodd" clip-rule="evenodd" d="M33.1032 29.562L15.3329 39.6614C14.3404 40.2326 13.4548 40.1929 12.8837 39.6736L12.7891 39.7683L12.8837 39.8508C13.4548 40.367 14.3404 40.4098 15.3329 39.8385L33.2254 29.672L33.1032 29.562Z" fill="black"/>
<path opacity="0.12" fill-rule="evenodd" clip-rule="evenodd" d="M39.1986 26.0916L33.0879 29.5619L33.1978 29.6719L39.1833 26.2688C40.0415 25.78 40.4629 25.1385 40.4629 24.5C40.411 25.0865 39.9743 25.6425 39.1986 26.0916Z" fill="black"/>
<defs>
<linearGradient id="paint0_linear_303_6498" x1="26.6951" y1="10.6653" x2="2.39197" y2="17.1387" gradientUnits="userSpaceOnUse">
<stop stop-color="#00A0FF"/>
<stop offset="0.00657" stop-color="#00A1FF"/>
<stop offset="0.2601" stop-color="#00BEFF"/>
<stop offset="0.5122" stop-color="#00D2FF"/>
<stop offset="0.7604" stop-color="#00DFFF"/>
<stop offset="1" stop-color="#00E3FF"/>
</linearGradient>
<linearGradient id="paint1_linear_303_6498" x1="41.4328" y1="24.4999" x2="11.8016" y2="24.4999" gradientUnits="userSpaceOnUse">
<stop stop-color="#FFE000"/>
<stop offset="0.4087" stop-color="#FFBD00"/>
<stop offset="0.7754" stop-color="#FFA500"/>
<stop offset="1" stop-color="#FF9C00"/>
</linearGradient>
<linearGradient id="paint2_linear_303_6498" x1="30.4022" y1="27.3142" x2="10.883" y2="60.1557" gradientUnits="userSpaceOnUse">
<stop stop-color="#FF3A44"/>
<stop offset="1" stop-color="#C31162"/>
</linearGradient>
<linearGradient id="paint3_linear_303_6498" x1="8.93318" y1="0.218899" x2="17.6415" y2="14.8864" gradientUnits="userSpaceOnUse">
<stop stop-color="#32A071"/>
<stop offset="0.0685" stop-color="#2DA771"/>
<stop offset="0.4762" stop-color="#15CF74"/>
<stop offset="0.8009" stop-color="#06E775"/>
<stop offset="1" stop-color="#00F076"/>
</linearGradient>
</defs>
</svg>
