<svg width="17" height="17" viewBox="0 0 17 17" fill="none" xmlns="http://www.w3.org/2000/svg">
<path d="M1.653 0.283137C1.27485 -0.094379 0.661755 -0.094379 0.283609 0.283137C-0.0945364 0.660653 -0.0945364 1.27273 0.283609 1.65024L7.14487 8.50007L0.283755 15.3498C-0.0943901 15.7273 -0.0943901 16.3393 0.283755 16.7169C0.661901 17.0944 1.275 17.0944 1.65314 16.7169L8.51425 9.86718L15.3469 16.6884C15.725 17.0659 16.3381 17.0659 16.7162 16.6884C17.0944 16.3109 17.0944 15.6988 16.7162 15.3213L9.88364 8.50007L16.7164 1.6787C17.0945 1.30118 17.0945 0.68911 16.7164 0.311594C16.3382 -0.065922 15.7252 -0.0659216 15.347 0.311594L8.51425 7.13297L1.653 0.283137Z" fill="black"/>
</svg>
