<svg width="49" height="33" viewBox="0 0 49 33" fill="none" xmlns="http://www.w3.org/2000/svg">
<path d="M20.8452 24.4458H18.6768V26.6041H20.8452V24.4458Z" fill="white"/>
<path d="M29.519 24.4458H27.3506V26.6041H29.519V24.4458Z" fill="white"/>
<path d="M33.9767 25.067C34.156 25.7464 34.6377 26.1278 35.4524 26.1317C36.5021 26.1366 37.5388 25.963 38.5266 25.6258C39.7334 25.214 40.282 24.2219 40.1527 22.6641C38.154 23.2727 36.2325 23.8631 34.3067 24.4397C33.9542 24.5453 33.893 24.75 33.9767 25.067Z" fill="white"/>
<path d="M34.2338 15.3605C33.7218 14.709 33.0996 14.2982 32.2283 14.1864C29.2836 13.8083 26.3314 13.6008 23.0425 13.6073C20.8834 13.5791 18.4194 13.7648 15.9538 14.0303C14.6578 14.1698 13.8283 14.7599 13.2969 15.8974C12.9726 16.5915 12.6802 17.2952 12.464 18.0286C12.2531 18.7439 12.2602 18.7537 13.0255 18.8679C15.3039 19.2083 17.5996 19.37 19.8991 19.4492C23.7039 19.5802 27.502 19.4326 31.2863 19.0203C32.6361 18.8734 33.9749 18.6301 35.322 18.4562C35.8242 18.3914 35.889 18.1929 35.683 17.7669C35.2734 16.9193 34.8168 16.1022 34.2339 15.3605H34.2338Z" fill="white"/>
<path d="M23.0141 26.604H20.8457V28.7623H23.0141V26.604Z" fill="white"/>
<path d="M8.0781 22.772C7.8365 24.042 8.32079 25.0671 9.48484 25.5448C10.5542 25.9835 11.6991 26.13 12.8536 26.129C13.416 26.1285 13.8513 25.8758 14.0991 25.3423C14.3716 24.7559 14.3127 24.5719 13.6677 24.3691C12.2426 23.921 10.8132 23.4854 9.37814 23.0702C8.9532 22.9472 8.54681 22.7108 8.0781 22.7722V22.772Z" fill="white"/>
<path d="M48.1695 31.5841C48.1695 26.1964 48.1557 20.8085 48.1868 15.4209C48.1909 14.7328 47.9669 14.3779 47.3772 14.0347C39.8733 9.66861 32.3825 5.28055 24.9051 0.870006C24.3145 0.521634 23.9093 0.500549 23.3043 0.857603C15.8279 5.26954 8.33706 9.65791 0.82905 14.0167C0.186197 14.39 -0.00368452 14.7962 5.39054e-05 15.4964C0.0262229 20.4669 0.0139172 25.4376 0.0139172 30.4083C0.0139172 30.9297 0.0307402 31.4517 0.010023 31.9723C0.00488271 32.1029 0.0185903 32.2078 0.0488092 32.2945H6.63421C6.65913 32.2071 6.66458 32.1009 6.64573 31.9678C6.4208 30.3799 6.51349 28.7743 6.38467 27.1813C6.29183 26.0342 6.30242 24.894 6.45975 23.7509C6.68826 22.0908 7.47629 20.8207 8.96465 19.9996C9.13615 19.905 9.38725 19.8947 9.45127 19.566C9.11216 19.4596 8.76231 19.3517 8.41354 19.2401C7.74904 19.0277 7.07939 18.8264 6.47813 18.4599C6.10755 18.2339 5.78698 17.964 5.84228 17.4716C5.89478 17.0038 6.21161 16.7359 6.6152 16.5655C7.32504 16.2658 8.04141 16.3547 8.77259 16.5162C9.45765 16.6674 9.90798 17.0122 10.0524 17.7133C10.113 18.0077 10.1757 18.3041 10.4339 18.6258C11.0269 17.7126 11.5552 16.8154 11.9007 15.8421C12.5023 14.1469 13.7554 13.4001 15.4585 13.2314C16.4306 13.135 17.4032 13.0423 18.3768 12.9626C23.2291 12.5655 28.0728 12.6666 32.9054 13.2481C34.5235 13.4429 35.7242 14.2027 36.2681 15.8159C36.3894 16.1759 36.5577 16.5266 36.7494 16.8556C37.0856 17.432 37.3015 18.0905 37.8663 18.6216C37.9878 18.204 38.0725 17.8681 38.1845 17.5416C38.2859 17.2455 38.3985 16.9333 38.7076 16.7903C39.6219 16.3678 40.5665 16.1869 41.545 16.5565C41.9539 16.7109 42.2726 16.9798 42.3402 17.4444C42.4122 17.9373 42.1033 18.2182 41.732 18.4454C41.2838 18.7193 40.7989 18.915 40.2972 19.0705C39.7743 19.2326 39.2525 19.3981 38.7302 19.5619C40.2375 20.4071 41.2341 21.5137 41.6059 23.11C41.7947 23.9209 41.9028 24.7533 41.863 25.5916C41.7656 27.6385 41.7594 29.6898 41.5623 31.732C41.5374 31.9916 41.5232 32.1705 41.5408 32.295H48.1476C48.1723 32.2167 48.1806 32.1201 48.1702 32.0015C48.158 31.8635 48.1694 31.7235 48.1694 31.5844L48.1695 31.5841Z" fill="white"/>
<path d="M25.1821 24.4458H23.0137V26.6041H25.1821V24.4458Z" fill="white"/>
<path d="M27.3501 26.606H25.1816V28.7643H27.3501V26.606Z" fill="white"/>
</svg>
