<svg width="249" height="29" viewBox="0 0 249 29" fill="none" xmlns="http://www.w3.org/2000/svg">
<path d="M19.7943 18.806C18.6613 21.5227 16.0051 21.9989 15.1372 21.9989C14.8824 21.9989 10.9127 22.2095 5.20678 16.7952C0.614774 12.4381 0.0536699 7.75275 0.00486095 6.86244C-0.0427258 5.99539 0.205442 3.82018 3.19692 2.20409C3.56755 2.00376 4.30243 1.91507 4.49219 2.10501C4.57636 2.1892 7.08731 6.32197 7.15322 6.45891C7.21926 6.59567 7.25227 6.73025 7.25227 6.86235C7.25227 7.05105 7.11788 7.28719 6.84879 7.57031C6.57985 7.85344 6.28749 8.11315 5.9713 8.34897C5.65508 8.58496 5.36258 8.83505 5.09349 9.0994C4.82456 9.36345 4.69016 9.58084 4.69016 9.7506C4.70846 10.1914 5.06947 11.7703 7.8204 14.1879C10.5718 16.6062 11.8969 17.2875 12.0247 17.3346C12.1523 17.3817 12.2583 17.405 12.3431 17.405C12.5131 17.405 12.7302 17.2707 12.9944 17.0017C13.2584 16.7325 14.1466 15.5149 14.4298 15.2458C14.7129 14.9771 14.9489 14.8425 15.1377 14.8425C15.2698 14.8425 15.4042 14.8754 15.5409 14.9414C15.6778 15.0075 19.8147 17.4289 19.894 17.5098C20.1086 17.7301 19.957 18.417 19.7948 18.8059" fill="white"/>
<path d="M49.6156 20.24C47.7276 20.24 46.1756 19.792 44.9596 18.896C43.7436 18 43.1356 16.816 43.1356 15.344C43.1356 13.472 44.0396 12.12 45.8476 11.288C44.4236 10.424 43.7116 9.184 43.7116 7.568C43.7116 6.256 44.2556 5.16 45.3436 4.28C46.4476 3.4 47.8716 2.96 49.6156 2.96C51.3756 2.96 52.7996 3.4 53.8876 4.28C54.9756 5.16 55.5196 6.272 55.5196 7.616C55.5196 9.2 54.8076 10.424 53.3836 11.288C54.2956 11.768 54.9756 12.312 55.4236 12.92C55.8716 13.528 56.0956 14.32 56.0956 15.296C56.0956 16.816 55.4876 18.024 54.2716 18.92C53.0716 19.8 51.5196 20.24 49.6156 20.24ZM47.8636 9.488C48.3116 9.872 48.8956 10.064 49.6156 10.064C50.3356 10.064 50.9116 9.872 51.3436 9.488C51.7916 9.104 52.0156 8.6 52.0156 7.976C52.0156 7.432 51.7916 6.968 51.3436 6.584C50.9116 6.2 50.3356 6.008 49.6156 6.008C48.8796 6.008 48.2956 6.2 47.8636 6.584C47.4316 6.968 47.2156 7.44 47.2156 8C47.2156 8.592 47.4316 9.088 47.8636 9.488ZM49.6156 17.192C50.5116 17.192 51.2156 16.992 51.7276 16.592C52.2556 16.192 52.5196 15.68 52.5196 15.056C52.5196 14.416 52.2476 13.912 51.7036 13.544C51.1756 13.176 50.4796 12.992 49.6156 12.992C48.7516 12.992 48.0476 13.184 47.5036 13.568C46.9756 13.936 46.7116 14.448 46.7116 15.104C46.7116 15.696 46.9756 16.192 47.5036 16.592C48.0316 16.992 48.7356 17.192 49.6156 17.192ZM70.4881 20.24C68.6001 20.24 67.0481 19.792 65.8321 18.896C64.6161 18 64.0081 16.816 64.0081 15.344C64.0081 13.472 64.9121 12.12 66.7201 11.288C65.2961 10.424 64.5841 9.184 64.5841 7.568C64.5841 6.256 65.1281 5.16 66.2161 4.28C67.3201 3.4 68.7441 2.96 70.4881 2.96C72.2481 2.96 73.6721 3.4 74.7601 4.28C75.8481 5.16 76.3921 6.272 76.3921 7.616C76.3921 9.2 75.6801 10.424 74.2561 11.288C75.1681 11.768 75.8481 12.312 76.2961 12.92C76.7441 13.528 76.9681 14.32 76.9681 15.296C76.9681 16.816 76.3601 18.024 75.1441 18.92C73.9441 19.8 72.3921 20.24 70.4881 20.24ZM68.7361 9.488C69.1841 9.872 69.7681 10.064 70.4881 10.064C71.2081 10.064 71.7841 9.872 72.2161 9.488C72.6641 9.104 72.8881 8.6 72.8881 7.976C72.8881 7.432 72.6641 6.968 72.2161 6.584C71.7841 6.2 71.2081 6.008 70.4881 6.008C69.7521 6.008 69.1681 6.2 68.7361 6.584C68.3041 6.968 68.0881 7.44 68.0881 8C68.0881 8.592 68.3041 9.088 68.7361 9.488ZM70.4881 17.192C71.3841 17.192 72.0881 16.992 72.6001 16.592C73.1281 16.192 73.3921 15.68 73.3921 15.056C73.3921 14.416 73.1201 13.912 72.5761 13.544C72.0481 13.176 71.3521 12.992 70.4881 12.992C69.6241 12.992 68.9201 13.184 68.3761 13.568C67.8481 13.936 67.5841 14.448 67.5841 15.104C67.5841 15.696 67.8481 16.192 68.3761 16.592C68.9041 16.992 69.6081 17.192 70.4881 17.192ZM91.4613 17.816C90.0693 19.464 88.2693 20.288 86.0613 20.288C83.8533 20.288 82.0613 19.464 80.6853 17.816C79.3093 16.168 78.6213 14.096 78.6213 11.6C78.6213 9.12 79.3173 7.056 80.7093 5.408C82.1013 3.744 83.9013 2.912 86.1093 2.912C88.3013 2.912 90.0853 3.736 91.4613 5.384C92.8533 7.032 93.5493 9.104 93.5493 11.6C93.5493 14.08 92.8533 16.152 91.4613 17.816ZM83.4213 15.44C84.1093 16.448 85.0053 16.952 86.1093 16.952C87.2133 16.952 88.0933 16.456 88.7493 15.464C89.4213 14.456 89.7573 13.168 89.7573 11.6C89.7573 10.064 89.4133 8.792 88.7253 7.784C88.0373 6.76 87.1493 6.248 86.0613 6.248C84.9733 6.248 84.0933 6.752 83.4213 7.76C82.7493 8.752 82.4133 10.032 82.4133 11.6C82.4133 13.152 82.7493 14.432 83.4213 15.44ZM108.273 17.816C106.881 19.464 105.081 20.288 102.873 20.288C100.665 20.288 98.8726 19.464 97.4966 17.816C96.1206 16.168 95.4326 14.096 95.4326 11.6C95.4326 9.12 96.1286 7.056 97.5206 5.408C98.9126 3.744 100.713 2.912 102.921 2.912C105.113 2.912 106.897 3.736 108.273 5.384C109.665 7.032 110.361 9.104 110.361 11.6C110.361 14.08 109.665 16.152 108.273 17.816ZM100.233 15.44C100.921 16.448 101.817 16.952 102.921 16.952C104.025 16.952 104.905 16.456 105.561 15.464C106.233 14.456 106.569 13.168 106.569 11.6C106.569 10.064 106.225 8.792 105.537 7.784C104.849 6.76 103.961 6.248 102.873 6.248C101.785 6.248 100.905 6.752 100.233 7.76C99.5606 8.752 99.2246 10.032 99.2246 11.6C99.2246 13.152 99.5606 14.432 100.233 15.44ZM126.975 20V16.376H118.767L118.167 13.76L127.383 3.08H130.503V13.376H132.759V16.376H130.503V20H126.975ZM122.511 13.376H126.975V8.144L122.511 13.376ZM142.802 20V16.376H134.594L133.994 13.76L143.21 3.08H146.33V13.376H148.586V16.376H146.33V20H142.802ZM138.338 13.376H142.802V8.144L138.338 13.376ZM158.629 20V16.376H150.421L149.821 13.76L159.037 3.08H162.157V13.376H164.413V16.376H162.157V20H158.629ZM154.165 13.376H158.629V8.144L154.165 13.376ZM166.104 14.312V10.808H173.496V14.312H166.104ZM183.533 20V16.376H175.325L174.725 13.76L183.941 3.08H187.061V13.376H189.317V16.376H187.061V20H183.533ZM179.069 13.376H183.533V8.144L179.069 13.376ZM196.821 20.288C194.741 20.288 192.901 19.624 191.301 18.296L193.245 15.488C194.445 16.448 195.669 16.928 196.917 16.928C197.909 16.928 198.693 16.584 199.269 15.896C199.845 15.208 200.197 14.28 200.325 13.112C199.429 13.88 198.293 14.264 196.917 14.264C195.077 14.264 193.613 13.784 192.525 12.824C191.453 11.848 190.917 10.504 190.917 8.792C190.917 7.096 191.509 5.696 192.693 4.592C193.893 3.472 195.437 2.912 197.325 2.912C198.429 2.912 199.349 3.056 200.085 3.344C200.837 3.632 201.533 4.096 202.173 4.736C203.501 6.064 204.165 8.192 204.165 11.12C204.165 13.904 203.525 16.128 202.245 17.792C200.965 19.456 199.157 20.288 196.821 20.288ZM195.381 10.496C195.909 10.96 196.621 11.192 197.517 11.192C198.413 11.192 199.117 10.96 199.629 10.496C200.141 10.016 200.397 9.4 200.397 8.648C200.397 7.896 200.133 7.28 199.605 6.8C199.077 6.32 198.357 6.08 197.445 6.08C196.549 6.08 195.845 6.32 195.333 6.8C194.837 7.264 194.589 7.888 194.589 8.672C194.589 9.424 194.853 10.032 195.381 10.496ZM205.944 14.312V10.808H213.336V14.312H205.944ZM214.997 20V17.072L220.589 12.488C221.693 11.576 222.453 10.848 222.869 10.304C223.285 9.744 223.493 9.128 223.493 8.456C223.493 7.768 223.285 7.232 222.869 6.848C222.453 6.464 221.909 6.272 221.237 6.272C220.613 6.272 220.045 6.448 219.533 6.8C219.037 7.136 218.461 7.712 217.805 8.528L215.213 6.44C216.093 5.24 216.997 4.36 217.925 3.8C218.869 3.24 220.053 2.96 221.477 2.96C223.221 2.96 224.621 3.44 225.677 4.4C226.733 5.344 227.261 6.608 227.261 8.192C227.261 9.104 227.085 9.928 226.733 10.664C226.381 11.384 225.925 12.024 225.365 12.584C224.805 13.128 223.965 13.832 222.845 14.696L220.109 16.808H227.429V20H214.997ZM235.302 20.288C233.222 20.288 231.382 19.624 229.782 18.296L231.726 15.488C232.926 16.448 234.15 16.928 235.398 16.928C236.39 16.928 237.174 16.584 237.75 15.896C238.326 15.208 238.678 14.28 238.806 13.112C237.91 13.88 236.774 14.264 235.398 14.264C233.558 14.264 232.094 13.784 231.006 12.824C229.934 11.848 229.398 10.504 229.398 8.792C229.398 7.096 229.99 5.696 231.174 4.592C232.374 3.472 233.918 2.912 235.806 2.912C236.91 2.912 237.83 3.056 238.566 3.344C239.318 3.632 240.014 4.096 240.654 4.736C241.982 6.064 242.646 8.192 242.646 11.12C242.646 13.904 242.006 16.128 240.726 17.792C239.446 19.456 237.638 20.288 235.302 20.288ZM233.862 10.496C234.39 10.96 235.102 11.192 235.998 11.192C236.894 11.192 237.598 10.96 238.11 10.496C238.622 10.016 238.878 9.4 238.878 8.648C238.878 7.896 238.614 7.28 238.086 6.8C237.558 6.32 236.838 6.08 235.926 6.08C235.03 6.08 234.326 6.32 233.814 6.8C233.318 7.264 233.07 7.888 233.07 8.672C233.07 9.424 233.334 10.032 233.862 10.496Z" fill="white"/>
</svg>
