<svg width="141" height="130" viewBox="0 0 141 130" fill="none" xmlns="http://www.w3.org/2000/svg">
<g filter="url(#filter0_f_535_2227)">
<path d="M94.5 48L101 40.5L33 53V55.5L32.5 67L39 72.5L94.5 48Z" fill="url(#paint0_linear_535_2227)" fill-opacity="0.4"/>
</g>
<g opacity="0.9" filter="url(#filter1_f_535_2227)">
<path d="M52 53.0002C50.4 53.8002 45.6667 59.6669 43.5 62.5002C49 61.3335 60.6 58.5002 63 56.5002C66 54.0002 62 52.5002 61 51.5002C60 50.5002 54 52.0002 52 53.0002Z" fill="white"/>
</g>
<g opacity="0.9" filter="url(#filter2_f_535_2227)">
<path d="M33.6727 63.0636C31.1826 62.1694 33.969 56.1945 35.6735 53.3188C40.2381 52.1597 50.1415 49.7058 53.2375 49.163C56.3335 48.6202 54.5999 50.0984 53.3461 50.9054L49.5304 52.455L47.5282 55.2035L43.4967 60.2649C41.2595 61.5704 36.1627 63.9579 33.6727 63.0636Z" fill="white"/>
</g>
<g opacity="0.9" filter="url(#filter3_f_535_2227)">
<path d="M49.5 95L28 99.5L30.5 103.5L54 102L49.5 95Z" fill="white"/>
</g>
<g opacity="0.9" filter="url(#filter4_f_535_2227)">
<path d="M49.0769 95L28 99.5L31 104L54.5 102.5L49.0769 95Z" fill="white"/>
</g>
<defs>
<filter id="filter0_f_535_2227" x="-7.5" y="0.5" width="148.5" height="112" filterUnits="userSpaceOnUse" color-interpolation-filters="sRGB">
<feFlood flood-opacity="0" result="BackgroundImageFix"/>
<feBlend mode="normal" in="SourceGraphic" in2="BackgroundImageFix" result="shape"/>
<feGaussianBlur stdDeviation="20" result="effect1_foregroundBlur_535_2227"/>
</filter>
<filter id="filter1_f_535_2227" x="41.5" y="49.1704" width="24.5967" height="15.3296" filterUnits="userSpaceOnUse" color-interpolation-filters="sRGB">
<feFlood flood-opacity="0" result="BackgroundImageFix"/>
<feBlend mode="normal" in="SourceGraphic" in2="BackgroundImageFix" result="shape"/>
<feGaussianBlur stdDeviation="1" result="effect1_foregroundBlur_535_2227"/>
</filter>
<filter id="filter2_f_535_2227" x="30.6826" y="47.0459" width="26.2939" height="18.2134" filterUnits="userSpaceOnUse" color-interpolation-filters="sRGB">
<feFlood flood-opacity="0" result="BackgroundImageFix"/>
<feBlend mode="normal" in="SourceGraphic" in2="BackgroundImageFix" result="shape"/>
<feGaussianBlur stdDeviation="1" result="effect1_foregroundBlur_535_2227"/>
</filter>
<filter id="filter3_f_535_2227" x="26" y="93" width="30" height="12.5" filterUnits="userSpaceOnUse" color-interpolation-filters="sRGB">
<feFlood flood-opacity="0" result="BackgroundImageFix"/>
<feBlend mode="normal" in="SourceGraphic" in2="BackgroundImageFix" result="shape"/>
<feGaussianBlur stdDeviation="1" result="effect1_foregroundBlur_535_2227"/>
</filter>
<filter id="filter4_f_535_2227" x="2" y="69" width="78.5" height="61" filterUnits="userSpaceOnUse" color-interpolation-filters="sRGB">
<feFlood flood-opacity="0" result="BackgroundImageFix"/>
<feBlend mode="normal" in="SourceGraphic" in2="BackgroundImageFix" result="shape"/>
<feGaussianBlur stdDeviation="13" result="effect1_foregroundBlur_535_2227"/>
</filter>
<linearGradient id="paint0_linear_535_2227" x1="101" y1="42.5001" x2="4.00001" y2="64.9999" gradientUnits="userSpaceOnUse">
<stop stop-color="white"/>
<stop offset="0.514324" stop-color="white"/>
<stop offset="1" stop-color="white"/>
</linearGradient>
</defs>
</svg>
