<svg width="522" height="84" viewBox="0 0 522 84" fill="none" xmlns="http://www.w3.org/2000/svg">
<path d="M49.2154 56.3481H44.0957V61.353H49.2154V56.3481Z" fill="white"/>
<path d="M69.6939 56.3481H64.5742V61.353H69.6939V56.3481Z" fill="white"/>
<path d="M80.2193 57.789C80.6426 59.3644 81.7801 60.2489 83.7035 60.2579C86.1819 60.2694 88.6294 59.8667 90.9618 59.0847C93.8109 58.1298 95.1061 55.8293 94.8009 52.2168C90.0821 53.6283 85.5453 54.9973 80.9986 56.3344C80.1663 56.5792 80.0218 57.0538 80.2193 57.789Z" fill="white"/>
<path d="M80.8261 35.28C79.6173 33.7693 78.1484 32.8166 76.0911 32.5574C69.1389 31.6805 62.1686 31.1995 54.4035 31.2146C49.3059 31.1491 43.4885 31.5798 37.6671 32.1953C34.6073 32.5189 32.649 33.8873 31.3941 36.5251C30.6284 38.1346 29.9381 39.7665 29.4277 41.4671C28.9297 43.1259 28.9466 43.1485 30.7535 43.4135C36.1328 44.2027 41.553 44.5776 46.982 44.7614C55.9651 45.0652 64.9323 44.7229 73.8672 43.7669C77.054 43.4261 80.2149 42.862 83.3954 42.4586C84.581 42.3083 84.734 41.8481 84.2478 40.8602C83.2806 38.8947 82.2027 37 80.8265 35.28H80.8261Z" fill="white"/>
<path d="M54.3355 61.353H49.2158V66.3579H54.3355V61.353Z" fill="white"/>
<path d="M19.0716 52.4672C18.5012 55.412 19.6446 57.7892 22.3929 58.8968C24.9176 59.9143 27.6207 60.254 30.3466 60.2515C31.6743 60.2504 32.7022 59.6644 33.2873 58.4273C33.9305 57.0676 33.7915 56.6408 32.2686 56.1706C28.9039 55.1316 25.5292 54.1213 22.141 53.1585C21.1377 52.8734 20.1782 52.3252 19.0716 52.4675V52.4672Z" fill="white"/>
<path d="M113.728 72.9014C113.728 60.4077 113.696 47.9136 113.769 35.4202C113.779 33.8246 113.25 33.0017 111.858 32.2057C94.1411 22.0812 76.4551 11.9056 58.8011 1.67797C57.4066 0.87012 56.45 0.821225 55.0216 1.6492C37.3698 11.8801 19.6838 22.0564 1.95739 32.164C0.439611 33.0297 -0.00869917 33.9717 0.000127271 35.5953C0.0619123 47.1215 0.0328587 58.6482 0.0328587 70.1748C0.0328587 71.3839 0.0725776 72.5944 0.0236644 73.8016C0.0115281 74.1044 0.0438917 74.3478 0.115239 74.5487H15.6634C15.7222 74.346 15.7351 74.0997 15.6906 73.7912C15.1595 70.109 15.3784 66.3858 15.0742 62.6917C14.855 60.0316 14.88 57.3877 15.2515 54.7369C15.791 50.8872 17.6515 47.942 21.1656 46.0379C21.5705 45.8186 22.1633 45.7945 22.3145 45.0323C21.5138 44.7857 20.6878 44.5355 19.8644 44.2766C18.2955 43.7841 16.7145 43.3174 15.2949 42.4675C14.42 41.9433 13.6631 41.3174 13.7936 40.1756C13.9176 39.0909 14.6656 38.4696 15.6185 38.0745C17.2944 37.3796 18.9858 37.5856 20.7121 37.9602C22.3295 38.3107 23.3928 39.1103 23.7337 40.7361C23.8767 41.4188 24.025 42.1062 24.6344 42.8522C26.0344 40.7346 27.2819 38.6541 28.0976 36.397C29.5179 32.466 32.4766 30.7342 36.4975 30.343C38.7927 30.1194 41.089 29.9044 43.3876 29.7196C54.8439 28.7989 66.2801 29.0333 77.6897 30.3818C81.5101 30.8334 84.3448 32.5954 85.6291 36.3362C85.9156 37.171 86.3128 37.9843 86.7655 38.7472C87.5591 40.0839 88.0689 41.6108 89.4024 42.8425C89.6893 41.8739 89.8893 41.0952 90.1537 40.3381C90.3932 39.6514 90.6591 38.9273 91.3887 38.5958C93.5475 37.6161 95.7777 37.1966 98.088 38.0537C99.0534 38.4117 99.8058 39.0352 99.9654 40.1126C100.135 41.2556 99.4061 41.907 98.5293 42.4337C97.4712 43.069 96.3264 43.5227 95.1418 43.8833C93.9072 44.2594 92.6752 44.643 91.442 45.023C95.0009 46.9827 97.3539 49.549 98.2318 53.2507C98.6775 55.131 98.9327 57.0612 98.8386 59.0052C98.6087 63.7519 98.594 68.5088 98.1288 73.2444C98.07 73.8462 98.0365 74.2611 98.078 74.5498H113.677C113.735 74.3682 113.755 74.1443 113.73 73.8692C113.701 73.5493 113.728 73.2246 113.728 72.9021L113.728 72.9014Z" fill="white"/>
<path d="M59.4547 56.3481H54.335V61.353H59.4547V56.3481Z" fill="white"/>
<path d="M64.5748 61.3574H59.4551V66.3623H64.5748V61.3574Z" fill="white"/>
<path d="M137.161 34.3982H140.965V7.50679L153.563 25.276H153.761L166.359 7.45928V34.3982H170.262V1.14027H166.31L153.712 19.2896L141.114 1.14027H137.161V34.3982Z" fill="white"/>
<path d="M191.07 34.9683C198.777 34.9683 204.458 29.0769 204.458 22.1403C204.458 15.1086 198.826 9.31222 191.168 9.31222C183.461 9.31222 177.829 15.2036 177.829 22.1403C177.829 29.1719 183.412 34.9683 191.07 34.9683ZM191.168 31.69C185.783 31.69 181.732 27.414 181.732 22.1403C181.732 16.8665 185.536 12.543 191.07 12.543C196.455 12.543 200.555 16.8665 200.555 22.1403C200.555 27.414 196.702 31.69 191.168 31.69Z" fill="white"/>
<path d="M211.35 34.3982H215.005L230.222 14.9661V34.3982H234.026V9.83484H230.321L215.154 29.267V9.83484H211.35V34.3982ZM222.564 6.31901C226.27 6.31901 228.938 3.89593 229.53 0.522623L226.912 0C226.319 2.04299 224.985 3.32579 222.564 3.32579C220.144 3.32579 218.81 2.04299 218.217 0L215.598 0.522623C216.191 3.89593 218.859 6.31901 222.564 6.31901Z" fill="white"/>
<path d="M267.111 34.3982H271.063V4.56109H282.673V1.14027H255.501V4.56109H267.111V34.3982Z" fill="white"/>
<path d="M296.973 34.9208C301.469 34.9208 304.383 32.9253 306.162 30.7398V34.3982H309.917V19.3846C309.917 16.2489 309.027 13.8733 307.249 12.1629C305.421 10.405 302.605 9.45475 298.998 9.45475C295.244 9.45475 292.526 10.31 289.71 11.5452L290.847 14.5385C293.218 13.4932 295.589 12.7805 298.603 12.7805C303.395 12.7805 306.162 15.0611 306.162 19.4321V20.1923C303.889 19.5747 301.617 19.1471 298.356 19.1471C291.884 19.1471 287.438 21.9027 287.438 27.1765C287.438 32.3077 292.18 34.9208 296.973 34.9208ZM297.714 31.9751C294.255 31.9751 291.291 30.1697 291.291 27.0814C291.291 24.0407 294.008 22.0452 298.751 22.0452C301.864 22.0452 304.334 22.5679 306.211 23.0905V25.371C306.211 29.267 302.407 31.9751 297.714 31.9751Z" fill="white"/>
<path d="M317.975 34.3982H321.779V28.4593L327.164 23.138L336.254 34.3982H340.75L329.782 20.4774L340.454 9.83484H335.76L321.779 23.9932V9.83484H317.975V34.3982Z" fill="white"/>
<path d="M357.517 34.9683C362.31 34.9683 365.373 32.9729 367.942 30.2172L365.422 27.9842C363.396 30.0747 360.976 31.69 357.715 31.69C352.379 31.69 348.328 27.4615 348.328 22.1403C348.328 16.7715 352.28 12.543 357.468 12.543C360.926 12.543 363.298 14.1109 365.323 16.1538L367.744 13.6833C365.373 11.2602 362.359 9.31222 357.517 9.31222C350.057 9.31222 344.425 15.2036 344.425 22.1403C344.425 29.1244 350.057 34.9683 357.517 34.9683Z" fill="white"/>
<path d="M385.89 34.9683C393.597 34.9683 399.279 29.0769 399.279 22.1403C399.279 15.1086 393.646 9.31222 385.989 9.31222C378.282 9.31222 372.649 15.2036 372.649 22.1403C372.649 29.1719 378.232 34.9683 385.89 34.9683ZM385.989 31.69C380.604 31.69 376.552 27.414 376.552 22.1403C376.552 16.8665 380.357 12.543 385.89 12.543C391.275 12.543 395.376 16.8665 395.376 22.1403C395.376 27.414 391.522 31.69 385.989 31.69Z" fill="white"/>
<path d="M406.17 34.3982H409.974V13.0656H424.499V34.3982H428.303V9.83484H406.17V34.3982Z" fill="white"/>
<path d="M444.415 34.9208C448.91 34.9208 451.825 32.9253 453.604 30.7398V34.3982H457.359V19.3846C457.359 16.2489 456.469 13.8733 454.691 12.1629C452.863 10.405 450.047 9.45475 446.44 9.45475C442.685 9.45475 439.968 10.31 437.152 11.5452L438.288 14.5385C440.66 13.4932 443.031 12.7805 446.045 12.7805C450.837 12.7805 453.604 15.0611 453.604 19.4321V20.1923C451.331 19.5747 449.059 19.1471 445.798 19.1471C439.326 19.1471 434.88 21.9027 434.88 27.1765C434.88 32.3077 439.622 34.9208 444.415 34.9208ZM445.156 31.9751C441.697 31.9751 438.733 30.1697 438.733 27.0814C438.733 24.0407 441.45 22.0452 446.193 22.0452C449.306 22.0452 451.776 22.5679 453.653 23.0905V25.371C453.653 29.267 449.849 31.9751 445.156 31.9751Z" fill="white"/>
<path d="M465.417 42H469.221V29.6946C471.197 32.4502 474.26 34.9208 479.003 34.9208C485.178 34.9208 491.206 30.1697 491.206 22.1403C491.206 13.9683 485.129 9.31222 479.003 9.31222C474.309 9.31222 471.296 11.8303 469.221 14.776V9.83484H465.417V42ZM478.311 31.6425C473.568 31.6425 469.073 27.8416 469.073 22.1403C469.073 16.4389 473.568 12.5905 478.311 12.5905C483.153 12.5905 487.303 16.2964 487.303 22.0928C487.303 28.1267 483.252 31.6425 478.311 31.6425Z" fill="white"/>
<path d="M498.224 34.3982H502.029V28.4593L507.414 23.138L516.504 34.3982H521L510.032 20.4774L520.703 9.83484H516.01L502.029 23.9932V9.83484H498.224V34.3982Z" fill="white"/>
<path d="M145.73 74.9815C148.866 74.9815 150.871 73.6413 152.552 71.7905L150.903 70.2907C149.577 71.6948 147.993 72.7797 145.859 72.7797C142.367 72.7797 139.716 69.9397 139.716 66.3658C139.716 62.7599 142.302 59.9199 145.697 59.9199C147.961 59.9199 149.513 60.9729 150.838 62.3451L152.423 60.6857C150.871 59.0583 148.898 57.75 145.73 57.75C140.847 57.75 137.161 61.7069 137.161 66.3658C137.161 71.0566 140.847 74.9815 145.73 74.9815Z" fill="white"/>
<path d="M156.668 74.5986H159.061L169.02 61.5473V74.5986H171.509V58.101H169.084L159.158 71.1523V58.101H156.668V74.5986Z" fill="white"/>
<path d="M184.6 74.9815C187.736 74.9815 189.741 73.6413 191.422 71.7905L189.773 70.2907C188.448 71.6948 186.863 72.7797 184.729 72.7797C181.237 72.7797 178.586 69.9397 178.586 66.3658C178.586 62.7599 181.173 59.9199 184.568 59.9199C186.831 59.9199 188.383 60.9729 189.709 62.3451L191.293 60.6857C189.741 59.0583 187.769 57.75 184.6 57.75C179.718 57.75 176.031 61.7069 176.031 66.3658C176.031 71.0566 179.718 74.9815 184.6 74.9815Z" fill="white"/>
<path d="M199.58 74.5986H202.102V60.2709H208.084V58.101H193.598V60.2709H199.58V74.5986Z" fill="white"/>
<path d="M219.013 74.9815C222.182 74.9815 224.219 73.737 225.9 71.8863L224.348 70.5141C222.99 71.9182 221.373 72.8436 219.077 72.8436C216.135 72.8436 213.548 70.8332 213.193 67.355H226.45C226.482 66.9721 226.482 66.7168 226.482 66.4934C226.482 61.6431 223.637 57.75 218.689 57.75C214.066 57.75 210.671 61.5792 210.671 66.3658C210.671 71.5033 214.421 74.9815 219.013 74.9815ZM213.193 65.3766C213.548 62.1855 215.747 59.8242 218.625 59.8242C221.923 59.8242 223.669 62.377 223.96 65.3766H213.193Z" fill="white"/>
<path d="M230.84 74.5986H233.266V62.026L239.377 70.3865L245.552 62.026V74.5986H248.075V58.101H245.682L239.441 66.7806L233.201 58.101H230.84V74.5986Z" fill="white"/>
<path d="M258.618 74.9496C261.56 74.9496 263.468 73.6094 264.632 72.1415V74.5986H267.089V64.515C267.089 62.4089 266.507 60.8134 265.343 59.6646C264.147 58.4839 262.304 57.8457 259.944 57.8457C257.486 57.8457 255.708 58.4201 253.865 59.2498L254.609 61.2601C256.161 60.5581 257.713 60.0794 259.685 60.0794C262.821 60.0794 264.632 61.6111 264.632 64.5469V65.0575C263.145 64.6426 261.657 64.3554 259.523 64.3554C255.288 64.3554 252.377 66.2062 252.377 69.7483C252.377 73.1946 255.482 74.9496 258.618 74.9496ZM259.103 72.9712C256.84 72.9712 254.9 71.7586 254.9 69.6844C254.9 67.6422 256.678 66.302 259.782 66.302C261.819 66.302 263.436 66.653 264.664 67.004V68.5357C264.664 71.1523 262.175 72.9712 259.103 72.9712Z" fill="white"/>
<path d="M284.644 79.8C287.166 79.8 288.783 78.5555 290.205 75.1411L297.222 58.101H294.57L289.203 71.8543L283.124 58.101H280.376L287.974 74.5348C286.972 76.8643 286.034 77.6301 284.547 77.6301C283.48 77.6301 282.736 77.4386 281.928 77.0238L281.087 78.9703C282.219 79.5128 283.253 79.8 284.644 79.8Z" fill="white"/>
<path d="M301.161 74.5986H303.65V60.2709H313.157V74.5986H315.646V58.101H301.161V74.5986Z" fill="white"/>
<path d="M321.212 79.7043H323.701V71.4395C324.995 73.2903 326.999 74.9496 330.104 74.9496C334.145 74.9496 338.09 71.7586 338.09 66.3658C338.09 60.8772 334.113 57.75 330.104 57.75C327.032 57.75 325.059 59.4412 323.701 61.4197V58.101H321.212V79.7043ZM329.651 72.7478C326.547 72.7478 323.604 70.195 323.604 66.3658C323.604 62.5365 326.547 59.9518 329.651 59.9518C332.82 59.9518 335.536 62.4408 335.536 66.3339C335.536 70.3865 332.884 72.7478 329.651 72.7478Z" fill="white"/>
<path d="M347.663 74.9496C350.605 74.9496 352.513 73.6094 353.677 72.1415V74.5986H356.134V64.515C356.134 62.4089 355.552 60.8134 354.388 59.6646C353.192 58.4839 351.349 57.8457 348.989 57.8457C346.531 57.8457 344.753 58.4201 342.91 59.2498L343.654 61.2601C345.206 60.5581 346.758 60.0794 348.73 60.0794C351.866 60.0794 353.677 61.6111 353.677 64.5469V65.0575C352.19 64.6426 350.702 64.3554 348.568 64.3554C344.333 64.3554 341.422 66.2062 341.422 69.7483C341.422 73.1946 344.527 74.9496 347.663 74.9496ZM348.148 72.9712C345.885 72.9712 343.945 71.7586 343.945 69.6844C343.945 67.6422 345.723 66.302 348.827 66.302C350.864 66.302 352.481 66.653 353.709 67.004V68.5357C353.709 71.1523 351.22 72.9712 348.148 72.9712Z" fill="white"/>
<path d="M361.408 74.5986H369.783C373.469 74.5986 375.862 72.8755 375.862 70.0993C375.862 67.7698 374.18 66.5572 372.175 66.0148C373.566 65.4404 374.956 64.3873 374.956 62.2174C374.956 59.7284 372.822 58.101 369.492 58.101H361.408V74.5986ZM363.898 72.4925V67.1635H369.136C371.852 67.1635 373.307 68.1208 373.307 69.7164C373.307 71.4395 371.852 72.4925 369.459 72.4925H363.898ZM363.898 65.1851V60.2071H369.104C371.27 60.2071 372.434 61.1644 372.434 62.5365C372.434 64.2597 371.044 65.1851 369.039 65.1851H363.898Z" fill="white"/>
<path d="M379.546 74.8539C382.714 74.8539 385.075 73.5137 385.075 60.6538V60.2709H392.059V74.5986H394.549V58.101H382.714V59.4732C382.714 71.8543 381.033 72.7159 379.028 72.7159C378.737 72.7159 378.155 72.5883 377.832 72.4925L377.541 74.5986C378.058 74.7263 378.996 74.8539 379.546 74.8539Z" fill="white"/>
<path d="M407.428 74.9815C410.597 74.9815 412.634 73.737 414.315 71.8863L412.763 70.5141C411.405 71.9182 409.789 72.8436 407.493 72.8436C404.55 72.8436 401.964 70.8332 401.608 67.355H414.865C414.897 66.9721 414.897 66.7168 414.897 66.4934C414.897 61.6431 412.052 57.75 407.105 57.75C402.481 57.75 399.086 61.5792 399.086 66.3658C399.086 71.5033 402.837 74.9815 407.428 74.9815ZM401.608 65.3766C401.964 62.1855 404.162 59.8242 407.04 59.8242C410.338 59.8242 412.084 62.377 412.375 65.3766H401.608Z" fill="white"/>
<path d="M419.256 74.5986H421.746V67.3869H431.381V74.5986H433.871V58.101H431.381V65.217H421.746V58.101H419.256V74.5986Z" fill="white"/>
<path d="M439.433 74.5986H441.826L451.785 61.5473V74.5986H454.274V58.101H451.849L441.923 71.1523V58.101H439.433V74.5986Z" fill="white"/>
<path d="M458.344 74.5986H461.416C462.968 72.6202 464.487 70.6098 466.039 68.5995H470.663V74.5986H473.153V58.101H465.296C461.319 58.101 458.991 60.2071 458.991 63.2386C458.991 65.919 460.963 67.6422 463.453 68.2166L458.344 74.5986ZM465.49 66.5253C463.162 66.5253 461.48 65.3446 461.48 63.3343C461.48 61.4516 462.935 60.2709 465.425 60.2709H470.663V66.5253H465.49Z" fill="white"/>
</svg>
