<svg width="28" height="51" viewBox="0 0 28 51" fill="none" xmlns="http://www.w3.org/2000/svg">
<path fill-rule="evenodd" clip-rule="evenodd" d="M1.39519 3.18192C1.06573 2.85246 0.901001 2.68773 0.824882 2.50396C0.723382 2.25893 0.723382 1.98361 0.824882 1.73857C0.901001 1.55481 1.06573 1.39008 1.39519 1.06062C1.72465 0.731156 1.88938 0.566426 2.07315 0.490304C2.31818 0.388806 2.5935 0.388804 2.83854 0.490304C3.0223 0.566425 3.18703 0.731156 3.51649 1.06062L26.4975 24.0416C27.1641 24.7083 27.4975 25.0416 27.4975 25.4558C27.4975 25.87 27.1641 26.2034 26.4975 26.87L3.51649 49.851C3.18703 50.1805 3.0223 50.3452 2.83854 50.4213C2.5935 50.5228 2.31818 50.5228 2.07315 50.4213C1.88938 50.3452 1.72465 50.1805 1.39519 49.851C1.06573 49.5215 0.901001 49.3568 0.824882 49.173C0.723382 48.928 0.723382 48.6527 0.824882 48.4077C0.901001 48.2239 1.06573 48.0592 1.39519 47.7297L22.2549 26.87C22.9215 26.2034 23.2549 25.87 23.2549 25.4558C23.2549 25.0416 22.9215 24.7083 22.2549 24.0416L1.39519 3.18192Z" fill="url(#paint0_linear_594_1660)"/>
<defs>
<linearGradient id="paint0_linear_594_1660" x1="-23" y1="25.4558" x2="27.9117" y2="25.4558" gradientUnits="userSpaceOnUse">
<stop stop-color="#BE94FF"/>
<stop offset="1" stop-color="#6500FF"/>
</linearGradient>
</defs>
</svg>
