<svg width="104" height="104" fill="none" xmlns="http://www.w3.org/2000/svg"><path d="M42.681 52.028a1.476 1.476 0 0 1-1.472-1.488v-4.806c-2.019-.162-3.616-1.939-3.616-4.102V27.86c0-2.267 1.756-4.114 3.915-4.114h22.011c2.159 0 3.915 1.847 3.915 4.114v13.773c0 2.267-1.756 4.113-3.915 4.113H49.157l-5.407 5.811c-.286.307-.673.47-1.069.47ZM41.51 26.246c-.78 0-1.415.724-1.415 1.614v13.773c0 .89.635 1.613 1.415 1.613h2.201v4.686l4.359-4.686h15.45c.78 0 1.415-.724 1.415-1.614V27.86c0-.89-.635-1.614-1.415-1.614H41.508h.001Z" fill="url(#a)"/><path d="M62.69 80.254H41.452v-1.25c0-5.855 4.764-10.616 10.618-10.616 5.853 0 10.617 4.762 10.617 10.616v1.25h.001Zm-18.64-2.5h16.043c-.602-3.884-3.97-6.866-8.021-6.866s-7.419 2.982-8.021 6.866Z" fill="url(#b)"/><path d="M52.071 67.763a6.503 6.503 0 0 1-6.496-6.497 6.503 6.503 0 0 1 6.496-6.496 6.503 6.503 0 0 1 6.497 6.496 6.503 6.503 0 0 1-6.497 6.497Zm0-10.494a4.001 4.001 0 0 0-3.996 3.996 4.002 4.002 0 0 0 3.996 3.996 4.002 4.002 0 0 0 3.997-3.996 4.002 4.002 0 0 0-3.997-3.996Z" fill="url(#c)"/><path d="M87.038 68.763H65.803v-1.25c0-5.856 4.764-10.618 10.617-10.618 5.854 0 10.618 4.764 10.618 10.617v1.25Zm-18.639-2.5h16.043c-.603-3.884-3.97-6.868-8.022-6.868-4.051 0-7.419 2.984-8.021 6.867Z" fill="url(#d)"/><path d="M76.42 56.27a6.503 6.503 0 0 1-6.496-6.496 6.503 6.503 0 0 1 6.496-6.496 6.504 6.504 0 0 1 6.498 6.496 6.504 6.504 0 0 1-6.498 6.496Zm0-10.494a4.001 4.001 0 0 0-3.996 3.996 4.002 4.002 0 0 0 3.996 3.997 4.003 4.003 0 0 0 3.998-3.996 4.002 4.002 0 0 0-3.998-3.997Z" fill="url(#e)"/><path d="M38.198 68.763H16.963v-1.25c0-5.856 4.764-10.618 10.617-10.618 5.854 0 10.618 4.764 10.618 10.617v1.25Zm-18.639-2.5h16.043c-.603-3.884-3.97-6.868-8.022-6.868-4.05 0-7.418 2.984-8.02 6.867Z" fill="url(#f)"/><path d="M27.58 56.27a6.503 6.503 0 0 1-6.496-6.496 6.503 6.503 0 0 1 6.496-6.496 6.503 6.503 0 0 1 6.497 6.496 6.503 6.503 0 0 1-6.497 6.496Zm0-10.494a4.001 4.001 0 0 0-3.996 3.996 4.002 4.002 0 0 0 3.996 3.997 4.002 4.002 0 0 0 3.997-3.996 4.002 4.002 0 0 0-3.997-3.997Z" fill="url(#g)"/><rect x="1" y="1" width="102" height="102" rx="11" stroke="url(#h)" stroke-width="2"/><defs><linearGradient id="a" x1="37.593" y1="23.746" x2="65.833" y2="53.544" gradientUnits="userSpaceOnUse"><stop stop-color="#BE94FF"/><stop offset="1" stop-color="#6500FF"/></linearGradient><linearGradient id="b" x1="41.453" y1="68.388" x2="51.559" y2="86.473" gradientUnits="userSpaceOnUse"><stop stop-color="#BE94FF"/><stop offset="1" stop-color="#6500FF"/></linearGradient><linearGradient id="c" x1="45.575" y1="54.77" x2="58.568" y2="67.763" gradientUnits="userSpaceOnUse"><stop stop-color="#BE94FF"/><stop offset="1" stop-color="#6500FF"/></linearGradient><linearGradient id="d" x1="65.803" y1="56.895" x2="75.91" y2="74.981" gradientUnits="userSpaceOnUse"><stop stop-color="#BE94FF"/><stop offset="1" stop-color="#6500FF"/></linearGradient><linearGradient id="e" x1="69.924" y1="43.278" x2="82.916" y2="56.271" gradientUnits="userSpaceOnUse"><stop stop-color="#BE94FF"/><stop offset="1" stop-color="#6500FF"/></linearGradient><linearGradient id="f" x1="16.963" y1="56.895" x2="27.071" y2="74.981" gradientUnits="userSpaceOnUse"><stop stop-color="#BE94FF"/><stop offset="1" stop-color="#6500FF"/></linearGradient><linearGradient id="g" x1="21.084" y1="43.278" x2="34.077" y2="56.27" gradientUnits="userSpaceOnUse"><stop stop-color="#BE94FF"/><stop offset="1" stop-color="#6500FF"/></linearGradient><linearGradient id="h" x1="2" y1="2" x2="102" y2="102" gradientUnits="userSpaceOnUse"><stop stop-color="#BE94FF"/><stop offset="1" stop-color="#6500FF"/></linearGradient></defs></svg>