<svg width="104" height="104" fill="none" xmlns="http://www.w3.org/2000/svg"><path d="M75.487 26.939H58.056l-.043-.12a6.142 6.142 0 0 0-3.16-3.518 6.145 6.145 0 0 0-4.722-.253l-21.603 7.618a6.142 6.142 0 0 0-3.518 3.159 6.134 6.134 0 0 0-.254 4.722l13.622 38.636a6.193 6.193 0 0 0 5.835 4.123 6.2 6.2 0 0 0 2.049-.351l21.604-7.619a6.189 6.189 0 0 0 3.772-7.882l-5.824-16.515h9.674a4.12 4.12 0 0 0 4.114-4.114V31.051a4.12 4.12 0 0 0-4.114-4.113h-.001Zm-6.209 39.347a3.65 3.65 0 0 1-.151 2.813 3.649 3.649 0 0 1-2.094 1.88L45.43 78.597a3.68 3.68 0 0 1-4.693-2.246L27.113 37.716a3.652 3.652 0 0 1 .15-2.811 3.653 3.653 0 0 1 2.096-1.88l21.604-7.619c.403-.142.814-.21 1.22-.21 1.259 0 2.447.659 3.12 1.744h-3.475a4.12 4.12 0 0 0-4.114 4.114v13.774a4.12 4.12 0 0 0 3.887 4.107v4.8c0 .602.36 1.141.917 1.373a1.48 1.48 0 0 0 1.619-.321l5.845-5.846h3.18l6.116 17.346Zm7.823-21.46c0 .89-.724 1.614-1.614 1.614h-16.54l-4.846 4.846V46.44h-2.273c-.89 0-1.614-.724-1.614-1.614V31.052c0-.89.724-1.613 1.614-1.613h23.66c.89 0 1.614.724 1.614 1.613v13.774h-.001Z" fill="url(#a)"/><path d="M54.985 41.181a2.897 2.897 0 1 0 0-5.795 2.897 2.897 0 0 0 0 5.795Z" fill="url(#b)"/><path d="M63.461 41.181a2.897 2.897 0 1 0 0-5.795 2.897 2.897 0 0 0 0 5.795Z" fill="url(#c)"/><path d="M72.19 41.181a2.897 2.897 0 1 0 0-5.795 2.897 2.897 0 0 0 0 5.795Z" fill="url(#d)"/><rect x="1" y="1" width="102" height="102" rx="11" stroke="url(#e)" stroke-width="2"/><defs><linearGradient id="a" x1="24.4" y1="22.693" x2="82.908" y2="77.796" gradientUnits="userSpaceOnUse"><stop stop-color="#BE94FF"/><stop offset="1" stop-color="#6500FF"/></linearGradient><linearGradient id="b" x1="52.088" y1="35.386" x2="57.883" y2="41.181" gradientUnits="userSpaceOnUse"><stop stop-color="#BE94FF"/><stop offset="1" stop-color="#6500FF"/></linearGradient><linearGradient id="c" x1="60.563" y1="35.386" x2="66.359" y2="41.181" gradientUnits="userSpaceOnUse"><stop stop-color="#BE94FF"/><stop offset="1" stop-color="#6500FF"/></linearGradient><linearGradient id="d" x1="69.293" y1="35.386" x2="75.088" y2="41.181" gradientUnits="userSpaceOnUse"><stop stop-color="#BE94FF"/><stop offset="1" stop-color="#6500FF"/></linearGradient><linearGradient id="e" x1="2" y1="2" x2="102" y2="102" gradientUnits="userSpaceOnUse"><stop stop-color="#BE94FF"/><stop offset="1" stop-color="#6500FF"/></linearGradient></defs></svg>