<svg width="104" height="104" fill="none" xmlns="http://www.w3.org/2000/svg"><path d="M57.7 39.456c3.11 0 6.25-1.605 6.25-5.19 0-3.062-2.346-5.04-5.974-5.04h-5.848v10.922h-.938v1.996h.938v2.84h2.039v-2.84h4.249v-1.996h-4.249v-.692h3.532Zm-3.533-1.952v-6.326h3.724c1.209 0 4.021.302 4.021 3.11 0 1.952-1.629 3.215-4.148 3.215h-3.597Z" fill="url(#a)"/><path d="M86.377 63.499c-1.13-1.05-3.098-1.469-4.8-1.023l-14.595 4.149a3.64 3.64 0 0 0-.008-.263 4.827 4.827 0 0 0-4.822-4.822h-9.24c-4.278-5.435-14.166-5.498-14.59-5.498h-6.94v-1.364c0-.68-.552-1.232-1.232-1.232H17.626c-.68 0-1.232.553-1.232 1.232V76.52c0 .679.552 1.231 1.232 1.231h12.526c.703 0 1.232-.496 1.232-1.154V75.6l17.746 5.605c.262.132 2.916.89 5.94.89 2.015 0 3.614-.344 4.832-1.025 4.274-1.708 25.722-11.72 26.618-12.17.465-.151.825-.541.921-1.039l.153-1.535a3.285 3.285 0 0 0-1.218-2.827h.001Zm-21.985 3.958h-.2v.306a2.325 2.325 0 0 1-1.887.957H45.12c-.714 0-1.232.519-1.232 1.233 0 .713.518 1.23 1.232 1.23h17.11c1.466 0 2.854-.646 3.746-1.737l16.216-4.612c.893-.207 2.015.016 2.543.486.21.209.449.503.399.766l-.08.814c-2.663 1.28-22.15 10.343-26.038 11.926-3.107 1.278-7.371.43-9.061.008a1.171 1.171 0 0 0-.115-.028l-18.455-5.86V58.505h7.012c.097 0 9.618.091 13.035 5.055.133.134.49.444.945.444h9.805c1.075 0 2.042.642 2.35 1.562a2.418 2.418 0 0 1-.138 1.89l-.002.001ZM28.92 56.451v18.294a.543.543 0 0 1-.543.542H19.4a.544.544 0 0 1-.544-.542V56.451c0-.298.244-.542.544-.542h8.976c.299 0 .543.242.543.542Z" fill="url(#b)"/><path d="M54.026 50.895a15.31 15.31 0 0 0 2.489.206c3.862 0 7.52-1.498 10.302-4.282 3.377-3.376 4.863-8.039 4.077-12.791-.997-6.022-5.898-10.923-11.919-11.92-4.756-.79-9.418.7-12.793 4.077-3.376 3.376-4.86 8.039-4.075 12.79.995 6.021 5.898 10.923 11.92 11.92Zm-9.489-16.454c.827-5.003 4.898-9.076 9.902-9.902 3.95-.655 7.83.579 10.637 3.386 2.808 2.808 4.04 6.683 3.388 10.636-.828 5.004-4.899 9.077-9.903 9.903-3.95.651-7.831-.581-10.637-3.388-2.806-2.806-4.039-6.68-3.386-10.635Z" fill="url(#c)"/><rect x="1" y="1" width="102" height="102" rx="11" stroke="url(#d)" stroke-width="2"/><defs><linearGradient id="a" x1="51.19" y1="29.225" x2="66.603" y2="41.706" gradientUnits="userSpaceOnUse"><stop stop-color="#BE94FF"/><stop offset="1" stop-color="#6500FF"/></linearGradient><linearGradient id="b" x1="16.394" y1="53.446" x2="36.235" y2="102.764" gradientUnits="userSpaceOnUse"><stop stop-color="#BE94FF"/><stop offset="1" stop-color="#6500FF"/></linearGradient><linearGradient id="c" x1="41.901" y1="21.901" x2="71.102" y2="51.099" gradientUnits="userSpaceOnUse"><stop stop-color="#BE94FF"/><stop offset="1" stop-color="#6500FF"/></linearGradient><linearGradient id="d" x1="2" y1="2" x2="102" y2="102" gradientUnits="userSpaceOnUse"><stop stop-color="#BE94FF"/><stop offset="1" stop-color="#6500FF"/></linearGradient></defs></svg>