<svg width="104" height="104" fill="none" xmlns="http://www.w3.org/2000/svg"><path d="M53.898 50.102v-7.477h-3.796v7.477h-7.477v3.794h7.477v7.479h3.796v-7.479h7.477v-3.794h-7.477Z" fill="url(#a)"/><path d="M66.442 80.152H37.557a7.198 7.198 0 0 1-7.19-7.19V31.036a7.198 7.198 0 0 1 7.19-7.19h28.884a7.198 7.198 0 0 1 7.19 7.19v41.928a7.198 7.198 0 0 1-7.19 7.19l.001-.002ZM37.557 26.347a4.697 4.697 0 0 0-4.69 4.69v41.927a4.697 4.697 0 0 0 4.69 4.69h28.884a4.697 4.697 0 0 0 4.69-4.69V31.036a4.697 4.697 0 0 0-4.69-4.69H37.557v.001Z" fill="url(#b)"/><rect x="1" y="1" width="102" height="102" rx="11" stroke="url(#c)" stroke-width="2"/><defs><linearGradient id="a" x1="42.625" y1="42.625" x2="61.375" y2="61.375" gradientUnits="userSpaceOnUse"><stop stop-color="#BE94FF"/><stop offset="1" stop-color="#6500FF"/></linearGradient><linearGradient id="b" x1="30.367" y1="23.846" x2="84.775" y2="65.65" gradientUnits="userSpaceOnUse"><stop stop-color="#BE94FF"/><stop offset="1" stop-color="#6500FF"/></linearGradient><linearGradient id="c" x1="2" y1="2" x2="102" y2="102" gradientUnits="userSpaceOnUse"><stop stop-color="#BE94FF"/><stop offset="1" stop-color="#6500FF"/></linearGradient></defs></svg>