<svg width="104" height="104" fill="none" xmlns="http://www.w3.org/2000/svg"><path d="M75.775 34.135a7.2 7.2 0 0 0 1.186-3.941c0-4.037-3.284-7.32-7.319-7.32-4.034 0-7.32 3.284-7.32 7.32 0 1.395.41 2.751 1.187 3.95a8.274 8.274 0 0 0-3.185 2.074 9.857 9.857 0 0 0-.886-.333 9.085 9.085 0 0 0 1.652-5.212 9.023 9.023 0 0 0-2.658-6.433 9.03 9.03 0 0 0-6.428-2.667c-5.015 0-9.094 4.078-9.094 9.092 0 1.864.584 3.693 1.653 5.211a9.872 9.872 0 0 0-.887.334 8.187 8.187 0 0 0-3.184-2.075 7.228 7.228 0 0 0 1.186-3.949c0-4.036-3.284-7.32-7.32-7.32-4.034 0-7.32 3.284-7.32 7.32a7.18 7.18 0 0 0 1.186 3.943c-3.267 1.174-5.505 4.305-5.505 7.788V62.6c0 .386.213.737.561.916l9.063 4.614.16.078c-.123.28-.208.563-.253.847-.25 1.472.388 3.365 2.089 4.136.446.201.931.304 1.44.304h.015c.081.462.247.912.496 1.341.981 1.715 2.774 2.053 3.113 2.101.102.018.203.028.308.034.079.34.192.656.339.963.599 1.206 1.623 2.09 2.742 2.366.35.077.67.127 1.017.072.33.593.876 1.094 1.597 1.465a5.503 5.503 0 0 0 2.458.591 4.52 4.52 0 0 0 1.64-.286 3.95 3.95 0 0 0 .935-.495c1.47.663 2.792.714 3.942.163a3.79 3.79 0 0 0 .97-.715l.07.029c1.41.468 2.93-.127 3.721-1.234.138-.183.255-.388.35-.61 1.487.272 2.994-.691 3.783-1.581.219-.243.418-.534.602-.883.52.09.874.038 1.36-.09 1.5-.451 2.33-2.099 2.372-3.504 0-.167-.01-.33-.028-.49l13.162-7.108c.332-.18.537-.527.537-.907V41.93c.007-3.486-2.231-6.619-5.506-7.793l.001-.001ZM34.284 69.394c.014-.088.038-.18.078-.275l1.338.651.828 1.014a7.587 7.587 0 0 0-.38.628c-.36.074-.674.045-.957-.083-.724-.333-1.031-1.24-.91-1.935h.003ZM54.91 67.54a1.03 1.03 0 0 0-.06 1.453c.479.517 5.835 5.497 7.237 6.797a2.649 2.649 0 0 1-.347.513c-.51.577-1.38 1.082-1.95.911-.101-.03-.175-.07-.219-.093-.861-.502-2.926-2.412-5.389-4.983a1.021 1.021 0 0 0-.72-.311c-.32-.018-.536.097-.733.288a1.033 1.033 0 0 0-.03 1.451c1.206 1.256 3.411 3.49 4.941 4.7a1 1 0 0 1-.171.392c-.343.487-1.034.628-1.34.521-.08-.033-.131-.069-.166-.091-.517-.348-1.61-1.207-3.883-3.332a1.021 1.021 0 0 0-.696-.27 1.045 1.045 0 0 0-.861.46 3.67 3.67 0 0 0-1.002-1.65 3.754 3.754 0 0 0-.937-.588 2.755 2.755 0 0 0-.01-.528c-.019-.402-.393-2.05-1.898-2.746-.6-.275-1.264-.354-1.957-.239a2.897 2.897 0 0 0-.314.075 2.192 2.192 0 0 0-.036-.161c-.354-1.289-1.113-1.936-1.688-2.254-1.003-.542-2.001-.365-2.345-.302-.945.171-1.786.668-2.561 1.517l-.649-.796a1.179 1.179 0 0 0-.322-.259l-12.028-6.04V46.5c6.143 3.45 11.329 6.306 13.04 7.18l.108.053.166-.34-.078.386a6.402 6.402 0 0 0 2.543.662c1.422.034 2.565-.451 3.685-.982 1.144-.548 2.676-1.215 4.474-1.96a2.724 2.724 0 0 1 1.836.34c-1.58 1.006-3.755 2.523-6.2 4.326a.944.944 0 0 0-.215.213 1.57 1.57 0 0 0-.199.358c-.286.599-.445 1.252-.487 2.005-.028.664-.13 1.195-.315 1.624-.401.934-.718 1.62-.943 2.044a1.95 1.95 0 0 0-.227 1.108c.092.827.726 1.297 1.095 1.569.829.663 2.909 1.02 4.66-.037.707-.422 1.141-.996 1.74-1.787a20.065 20.065 0 0 0 1.658-2.539l1.604-1.025.099.08c.946.74 1.968 1.573 3.036 2.474l.668.577c.165.148.636.582 1.126 1.054.635.613 3.528 3.666 7.309 7.803.045.06.101.117.116.131a1.823 1.823 0 0 1 .38.668c.074.227.109.462.103.701-.014.608-.384 1.391-.897 1.552-.285.074-.536.064-.692-.026-.054-.03-.096-.067-.164-.121-.972-.895-7.032-6.531-7.444-6.985a1.025 1.025 0 0 0-1.453-.061l.002-.003Zm-1.307 12.32a1.412 1.412 0 0 1-.148.084c-.942.448-2.04-.102-2.386-.275l-.254-.141a4.266 4.266 0 0 1-.379-.263 5.87 5.87 0 0 0 .218-.987 7.21 7.21 0 0 0 .061-.985c1.182 1.1 2.132 1.945 2.889 2.567h-.002Zm-5.107.414.025.025c-.672.16-1.496.055-2.172-.287-.444-.228-.755-.527-.83-.802-.021-.072-.015-.15.059-.56.14-.715.813-1.495 2.172-3.023l.002-.003c.017-.006.03-.015.047-.022.07.026.195.092.382.252.293.281.609.888.448 2.179a3.58 3.58 0 0 1-.32 1.096c-.181.389-.106.838.187 1.145Zm-9.992-8.771c.468-.693 1.177-1.739 2.226-1.929a2.1 2.1 0 0 1 .411-.045c.18 0 .385.03.577.132.326.18.55.503.687.993.071.254.084.515.041.797-1.172.964-1.911 2.07-2.427 2.933l-.033.056a2.808 2.808 0 0 0-.168.318 1.56 1.56 0 0 0-.06.165l-.037-.004c-.263-.049-1.165-.269-1.641-1.099-.09-.16-.331-.586-.273-1.099.003-.012.064-.286.698-1.218h-.001Zm3.216 4.038.087-.148c.45-.747 1.13-1.873 2.353-2.718.52-.362.803-.441.896-.456.052-.009.149-.025.274-.025.141 0 .316.023.489.1.611.286.727 1.104.73 1.131.03.234-.004.423-.053.58a1.53 1.53 0 0 0-.251.237c-1.52 1.697-2.438 2.723-2.682 4.013v.007l-.013.067a1.141 1.141 0 0 1-.277-.026c-.52-.124-1.06-.621-1.38-1.272-.267-.542-.346-1.11-.174-1.49h.001Zm-7.365-40.097h-.015a5.202 5.202 0 0 1-3.696-1.532 5.231 5.231 0 0 1-1.549-3.73c0-2.9 2.361-5.26 5.261-5.26a5.27 5.27 0 0 1 5.263 5.26 5.27 5.27 0 0 1-5.264 5.262Zm-4.605.383a7.281 7.281 0 0 0 4.614 1.677c1.655 0 3.286-.595 4.611-1.678a6.117 6.117 0 0 1 2.828 1.424 10.267 10.267 0 0 0-4.44 8.475v5.39a777.194 777.194 0 0 1-8.27-4.555v-5.185c0-.565-.46-1.025-1.024-1.025-.565 0-1.025.46-1.025 1.025v4.04c-.728-.406-1.485-.828-2.268-1.272v-2.22a6.225 6.225 0 0 1 4.974-6.098v.002Zm22.252 1.88a7.05 7.05 0 0 1-7.042-7.043 7.05 7.05 0 0 1 7.042-7.043 7.05 7.05 0 0 1 7.043 7.043 7.05 7.05 0 0 1-7.043 7.043Zm0 2.057a9.066 9.066 0 0 0 5.883-2.175c.8.146 1.547.404 2.229.766a8.251 8.251 0 0 1 4.474 7.37v6.892a1.426 1.426 0 0 1-.224.023c-.493-.018-.974-.073-1.173-.095a15.137 15.137 0 0 1-2.096-.38v-7.422c0-.565-.46-1.025-1.025-1.025s-1.025.46-1.025 1.025v6.743l-3.181-1.114a6.375 6.375 0 0 0-2.19 0s-.378.065-.681.156a2.916 2.916 0 0 0-.543.203l-.125-.11a4.774 4.774 0 0 0-1.744-.996 4.807 4.807 0 0 0-2.284-.132c-.058.01-.117.026-.218.061-1.145.468-2.191.911-3.12 1.321V44.28c0-.565-.46-1.025-1.025-1.025s-1.025.46-1.025 1.025v7.532c-.868.39-1.544.596-2.285.577a4.15 4.15 0 0 1-1.208-.239v-6.42c0-3.129 1.717-5.956 4.48-7.377l.007-.004a7.532 7.532 0 0 1 2.216-.755A9.062 9.062 0 0 0 52 39.77l.002-.005Zm17.637-4.32h-.015a5.205 5.205 0 0 1-3.698-1.532 5.231 5.231 0 0 1-1.549-3.73c0-2.9 2.362-5.26 5.263-5.26a5.268 5.268 0 0 1 5.261 5.26 5.27 5.27 0 0 1-5.262 5.262Zm9.591 10.667c-.788.41-1.545.8-2.267 1.167v-5.902a1.026 1.026 0 0 0-2.051.001v6.93c-3.356 1.642-6.256 2.93-8.27 3.672v-6.251a10.27 10.27 0 0 0-4.428-8.474 6.212 6.212 0 0 1 2.817-1.425 7.279 7.279 0 0 0 4.611 1.676c1.664 0 3.288-.595 4.613-1.676a6.225 6.225 0 0 1 4.976 6.098v4.186l-.001-.002ZM57.981 61.38l-.047-.043-.75-.657a87.121 87.121 0 0 0-3.106-2.526l-.693-.544a.79.79 0 0 0-.181-.101.722.722 0 0 0-.217-.078 1.345 1.345 0 0 0-.21-.014h-.126l-.049.01a1.074 1.074 0 0 0-.194.06.489.489 0 0 0-.064.023l-2.533 1.595-.105.06-.026.036a2.621 2.621 0 0 0-.108.106.826.826 0 0 0-.098.12l-.061.084A18.33 18.33 0 0 1 47.8 62.01c-.591.78-.826 1.07-1.157 1.265-.98.595-2.147.338-2.318.203l-.172-.128c-.024-.019-.072-.054-.115-.09.252-.488.595-1.227.966-2.095.291-.674.449-1.444.481-2.35a3.13 3.13 0 0 1 .258-1.145c3.013-2.22 5.642-4.015 7.086-4.833.353-.196.584-.308.702-.338.2-.062.41-.102.478-.11.701-.117 1.27-.047 1.32-.047l4.396 1.559c.947.31 2.057.545 3.209.678.027.003.671.084 1.409.107.348 0 .86-.1 1.544-.303l.106-.027c2.145-.655 5.822-2.245 10.356-4.477.925-.457 1.885-.94 2.876-1.447v15.654l-12.367 6.678a7.301 7.301 0 0 0-.343-.42c-3.653-3.99-6.709-7.23-7.446-7.943a53.939 53.939 0 0 0-1.092-1.02h.004Z" fill="url(#a)"/><rect x="1" y="1" width="102" height="102" rx="11" stroke="url(#b)" stroke-width="2"/><defs><linearGradient id="a" x1="22.719" y1="21.573" x2="83.529" y2="80.091" gradientUnits="userSpaceOnUse"><stop stop-color="#BE94FF"/><stop offset="1" stop-color="#6500FF"/></linearGradient><linearGradient id="b" x1="2" y1="2" x2="102" y2="102" gradientUnits="userSpaceOnUse"><stop stop-color="#BE94FF"/><stop offset="1" stop-color="#6500FF"/></linearGradient></defs></svg>