<svg width="32" height="32" viewBox="0 0 32 32" fill="none" xmlns="http://www.w3.org/2000/svg">
<rect x="1" y="1" width="30" height="30" rx="4" stroke="white" stroke-width="2"/>
<path d="M25.9039 8.3697C25.7106 8.16279 25.4495 8.04035 25.1208 8.00204C24.3569 7.97143 23.39 8.2854 22.22 8.94412C20.3634 10.1465 18.5069 11.4945 16.6504 12.988L11.8786 17.2157C9.68375 16.3044 7.95769 15.7606 6.70069 15.5844C5.93679 15.523 5.43404 15.6686 5.19219 16.021C4.93125 16.3733 4.93594 16.6681 5.20676 16.9056C6.68613 17.9701 7.98179 19.1305 9.09387 20.3866C10.2058 21.6349 11.1631 22.8604 11.9657 24.0629C12.1107 24.2237 12.2799 24.3003 12.4733 24.2926C12.6666 24.2774 12.8359 24.1815 12.981 24.0054C14.1316 21.7689 15.4659 19.6205 16.984 17.5604C17.9896 16.2047 19.0146 15.0291 20.0588 14.0334C20.8131 13.2215 21.6496 12.4403 22.568 11.6898L25.4834 9.44964C25.4834 9.44195 25.4883 9.4381 25.4978 9.4381C25.5076 9.42271 25.5221 9.40749 25.5414 9.3921C25.6575 9.26965 25.7589 9.15859 25.846 9.05889C26.0298 8.79092 26.049 8.56108 25.904 8.36972L25.9039 8.3697Z" fill="url(#paint0_linear_303_1335)"/>
<defs>
<linearGradient id="paint0_linear_303_1335" x1="5" y1="8" x2="20.7821" y2="28.3414" gradientUnits="userSpaceOnUse">
<stop stop-color="#BE94FF"/>
<stop offset="1" stop-color="#6500FF"/>
</linearGradient>
</defs>
</svg>
