<svg width="45" height="45" viewBox="0 0 45 45" fill="none" xmlns="http://www.w3.org/2000/svg">
<path d="M39.5801 7.87474L21.938 25.5168L16.5177 19.3295C15.3927 18.0511 13.4493 17.9487 12.1709 19.0737C10.8925 20.1987 10.7901 22.1421 11.9151 23.4205L19.5345 32.0626C20.0971 32.6761 20.9153 33.0853 21.7332 33.0853H21.8356C22.6539 33.0853 23.4207 32.7785 23.9833 32.165L43.9265 12.2218C45.1025 11.0458 45.1025 9.10248 43.9265 7.87503C42.7508 6.69862 40.8075 6.69862 39.5801 7.87467L39.5801 7.87474Z" fill="url(#paint0_linear_303_1556)"/>
<path d="M41.932 19.4315C40.2445 19.4315 38.8636 20.8123 38.8636 22.4999C38.8636 23.2158 38.8126 23.9317 38.7102 24.6476C37.6876 32.7272 30.682 38.8635 22.5 38.8635C13.5001 38.8635 6.13636 31.4998 6.13636 22.4999C6.13636 13.5 13.5001 6.13627 22.5 6.13627C25.415 6.13627 28.2785 6.90317 30.733 8.38636C32.2157 9.25564 34.0566 8.74449 34.9263 7.31232C35.7956 5.82955 35.2844 3.98864 33.8523 3.11895C30.4261 1.07368 26.4885 0 22.5 0C10.0739 0 0 10.0739 0 22.5C0 34.9261 10.0739 45 22.5 45C33.75 45 43.3636 36.6136 44.7955 25.4148C44.8978 24.4431 44.9998 23.4715 44.9998 22.4998C44.9998 20.8126 43.6194 19.4318 41.9318 19.4318L41.932 19.4315Z" fill="url(#paint1_linear_303_1556)"/>
<defs>
<linearGradient id="paint0_linear_303_1556" x1="11.1367" y1="6.99268" x2="36.4033" y2="39.5985" gradientUnits="userSpaceOnUse">
<stop stop-color="#BE94FF"/>
<stop offset="1" stop-color="#6500FF"/>
</linearGradient>
<linearGradient id="paint1_linear_303_1556" x1="0" y1="0" x2="45" y2="44.9998" gradientUnits="userSpaceOnUse">
<stop stop-color="#BE94FF"/>
<stop offset="1" stop-color="#6500FF"/>
</linearGradient>
</defs>
</svg>
