<svg width="20" height="20" viewBox="0 0 20 20" fill="none" xmlns="http://www.w3.org/2000/svg">
<path d="M19.7943 16.806C18.6613 19.5227 16.0051 19.9989 15.1372 19.9989C14.8824 19.9989 10.9127 20.2095 5.20678 14.7952C0.614774 10.4381 0.0536699 5.75275 0.00486095 4.86244C-0.0427258 3.99539 0.205442 1.82018 3.19692 0.204085C3.56755 0.00375925 4.30243 -0.0849264 4.49219 0.105008C4.57636 0.1892 7.08731 4.32197 7.15322 4.45891C7.21926 4.59567 7.25227 4.73025 7.25227 4.86235C7.25227 5.05105 7.11788 5.28719 6.84879 5.57031C6.57985 5.85344 6.28749 6.11315 5.9713 6.34897C5.65508 6.58496 5.36258 6.83505 5.09349 7.0994C4.82455 7.36345 4.69016 7.58084 4.69016 7.7506C4.70846 8.19139 5.06947 9.77029 7.8204 12.1879C10.5718 14.6062 11.8969 15.2875 12.0247 15.3346C12.1523 15.3817 12.2583 15.405 12.3431 15.405C12.5131 15.405 12.7302 15.2707 12.9944 15.0017C13.2584 14.7325 14.1466 13.5149 14.4298 13.2458C14.7129 12.9771 14.9489 12.8425 15.1377 12.8425C15.2698 12.8425 15.4042 12.8754 15.5409 12.9414C15.6778 13.0075 19.8147 15.4289 19.894 15.5098C20.1086 15.7301 19.957 16.417 19.7948 16.8059" fill="white"/>
</svg>
