<svg width="260" height="254" viewBox="0 0 260 254" fill="none" xmlns="http://www.w3.org/2000/svg">
<rect width="260" height="253.418" fill="#28282F"/>
<path d="M115.411 162.232H106.006V171.756H115.411V162.232Z" fill="white"/>
<path d="M153.033 162.232H143.628V171.756H153.033V162.232Z" fill="white"/>
<path d="M172.366 164.973C173.144 167.971 175.233 169.654 178.767 169.671C183.32 169.693 187.816 168.927 192.101 167.439C197.335 165.622 199.714 161.244 199.153 154.369C190.485 157.055 182.15 159.661 173.798 162.205C172.269 162.671 172.003 163.574 172.366 164.973V164.973Z" fill="white"/>
<path d="M173.482 122.14C171.261 119.265 168.562 117.452 164.783 116.959C152.011 115.29 139.207 114.375 124.942 114.403C115.577 114.279 104.89 115.098 94.1962 116.27C88.5751 116.886 84.9775 119.489 82.6723 124.509C81.2657 127.572 79.9976 130.678 79.0599 133.914C78.1451 137.07 78.1762 137.113 81.4954 137.618C91.3776 139.119 101.335 139.833 111.308 140.183C127.81 140.761 144.284 140.109 160.698 138.29C166.552 137.642 172.359 136.568 178.201 135.801C180.38 135.515 180.661 134.639 179.767 132.759C177.991 129.018 176.01 125.413 173.482 122.14H173.482Z" fill="white"/>
<path d="M124.818 171.756H115.413V181.28H124.818V171.756Z" fill="white"/>
<path d="M60.0359 154.846C58.9881 160.45 61.0885 164.974 66.1374 167.082C70.7754 169.018 75.7411 169.664 80.7487 169.659C83.1877 169.657 85.076 168.542 86.1509 166.188C87.3326 163.6 87.0772 162.788 84.2795 161.894C78.0983 159.916 71.899 157.994 65.6746 156.162C63.8315 155.619 62.0688 154.576 60.0359 154.847V154.846Z" fill="white"/>
<path d="M233.925 193.732C233.925 169.957 233.865 146.181 234 122.406C234.017 119.37 233.046 117.804 230.488 116.289C197.942 97.0224 165.452 77.6585 133.021 58.1954C130.459 56.6581 128.701 56.565 126.077 58.1406C93.6502 77.6099 61.1602 96.9752 28.5958 116.21C25.8076 117.857 24.984 119.65 25.0002 122.739C25.1137 144.674 25.0604 166.609 25.0604 188.544C25.0604 190.844 25.1333 193.148 25.0435 195.445C25.0212 196.022 25.0806 196.485 25.2117 196.867H53.7744C53.8825 196.481 53.9061 196.013 53.8244 195.426C52.8488 188.418 53.2508 181.333 52.6921 174.303C52.2894 169.241 52.3354 164.21 53.0177 159.166C54.0088 151.84 57.4267 146.235 63.8822 142.612C64.626 142.194 65.7151 142.148 65.9928 140.698C64.522 140.229 63.0046 139.752 61.4919 139.26C58.6097 138.323 55.7053 137.435 53.0974 135.817C51.4902 134.82 50.0998 133.629 50.3396 131.456C50.5673 129.392 51.9415 128.209 53.692 127.457C56.7707 126.135 59.8779 126.527 63.0492 127.24C66.0205 127.907 67.9737 129.428 68.6 132.522C68.8628 133.821 69.135 135.13 70.2545 136.549C72.8266 132.52 75.1182 128.56 76.6167 124.265C79.2259 116.784 84.6612 113.489 92.0476 112.744C96.2641 112.319 100.483 111.91 104.705 111.558C125.751 109.806 146.76 110.252 167.72 112.818C174.738 113.678 179.946 117.031 182.305 124.149C182.831 125.738 183.561 127.286 184.393 128.737C185.85 131.281 186.787 134.187 189.237 136.531C189.764 134.688 190.131 133.206 190.617 131.765C191.057 130.458 191.545 129.08 192.886 128.449C196.851 126.585 200.948 125.787 205.192 127.418C206.966 128.099 208.348 129.285 208.641 131.336C208.954 133.511 207.614 134.751 206.003 135.753C204.059 136.962 201.956 137.825 199.78 138.511C197.512 139.227 195.249 139.957 192.984 140.68C199.521 144.41 203.844 149.293 205.457 156.337C206.275 159.915 206.744 163.589 206.571 167.288C206.149 176.321 206.122 185.373 205.267 194.385C205.159 195.53 205.098 196.32 205.174 196.869H233.829C233.937 196.524 233.973 196.098 233.927 195.574C233.875 194.965 233.924 194.347 233.924 193.734L233.925 193.732Z" fill="white"/>
<path d="M134.222 162.232H124.816V171.756H134.222V162.232Z" fill="white"/>
<path d="M143.625 171.764H134.22V181.289H143.625V171.764Z" fill="white"/>
</svg>
