<svg width="165" height="49" viewBox="0 0 165 49" fill="none" xmlns="http://www.w3.org/2000/svg">
<path d="M153.376 0H10.3102C9.93729 0 9.56436 0 9.18812 0C8.36757 0.0118096 7.54904 0.0838742 6.73927 0.2156C5.93474 0.35047 5.1557 0.606032 4.42904 0.973467C3.69812 1.34334 3.03001 1.82388 2.44884 2.39773C1.86778 2.97188 1.38213 3.63339 1.0099 4.35773C0.634173 5.08721 0.373718 5.86942 0.237624 6.67707C0.100842 7.47701 0.0280093 8.28639 0.019802 9.09767C0 9.47333 0 9.8392 0 10.2116V38.7917C0 39.1673 0 39.5332 0.019802 39.9089C0.0282957 40.7201 0.101127 41.5295 0.237624 42.3295C0.37254 43.1257 0.629635 43.8968 1 44.6161C1.74866 46.0792 2.94537 47.2705 4.41914 48.02C5.14612 48.3881 5.92491 48.6458 6.72937 48.7844C7.53922 48.9151 8.35775 48.986 9.17822 48.9967C9.55446 48.9967 9.92739 48.9967 10.3003 48.9967H154.69C155.063 48.9967 155.442 48.9967 155.815 48.9967C156.633 48.9867 157.45 48.9158 158.257 48.7844C159.069 48.6452 159.855 48.3876 160.591 48.02C161.324 47.654 161.993 47.173 162.571 46.5957C163.155 46.0226 163.643 45.3609 164.017 44.6357C164.383 43.9155 164.638 43.1446 164.772 42.3491C164.909 41.5489 164.985 40.7398 165 39.9285C165 39.5528 165 39.1869 165 38.8113C165 38.3735 165 37.9358 165 37.5046V11.5313C165 11.0871 165 10.6493 165 10.2247C165 9.85227 165 9.47987 165 9.11073C164.985 8.29937 164.909 7.49025 164.772 6.69013C164.637 5.8949 164.382 5.12417 164.017 4.40347C163.269 2.93614 162.074 1.73857 160.601 0.98C159.865 0.616335 159.079 0.364162 158.267 0.231933C157.46 0.0994913 156.643 0.0274209 155.825 0.0163333C155.452 0.0163333 155.073 0.0163333 154.7 0.0163333L153.376 0Z" fill="#D9DADA"/>
<path d="M10.3169 47.9416C9.94392 47.9416 9.58089 47.9416 9.21125 47.9416C8.44615 47.9318 7.68281 47.8663 6.92742 47.7456C6.2243 47.6273 5.54261 47.4072 4.90432 47.0923C3.6362 46.4489 2.60331 45.4289 1.95052 44.1751C1.62927 43.5434 1.40671 42.8672 1.29046 42.1694C1.16426 41.42 1.09696 40.662 1.08914 39.9023C1.08914 39.6475 1.06934 38.7982 1.06934 38.7982V10.2116C1.06934 10.2116 1.06934 9.37531 1.08914 9.13031C1.09485 8.36956 1.16106 7.61044 1.28716 6.85998C1.40191 6.15975 1.62452 5.4811 1.94722 4.84771C2.26801 4.22444 2.68814 3.65639 3.19145 3.16537C3.69412 2.66731 4.27198 2.24963 4.90432 1.92731C5.54119 1.61173 6.22188 1.39155 6.92412 1.27397C7.68146 1.1507 8.4471 1.08409 9.21455 1.07471H10.3169H154.693H155.809C156.569 1.08115 157.329 1.14668 158.079 1.27071C158.788 1.38587 159.476 1.60612 160.119 1.92404C161.39 2.57299 162.422 3.60164 163.069 4.86404C163.39 5.49262 163.612 6.16554 163.729 6.85998C163.856 7.61606 163.927 8.38033 163.941 9.14664C163.941 9.48964 163.941 9.85878 163.941 10.2246C163.941 10.6787 163.941 11.1099 163.941 11.5313V37.4687C163.941 37.9097 163.941 38.3376 163.941 38.7753C163.941 39.2131 163.941 39.5299 163.941 39.9023C163.929 40.6534 163.859 41.4026 163.733 42.1433C163.62 42.846 163.397 43.5271 163.073 44.1621C162.417 45.4111 161.386 46.428 160.122 47.0727C159.481 47.391 158.794 47.6112 158.086 47.726C157.331 47.8474 156.567 47.9129 155.802 47.922C155.446 47.922 155.069 47.922 154.706 47.922H10.3169V47.9416Z" fill="black"/>
<path d="M61.251 33.0785H55.4457L54.0365 36.9135H51.4854L57.1619 22.5859H59.5712L65.3764 36.9135H62.7065L61.251 33.0785ZM56.185 31.1185H60.5085L58.9606 27.0155C58.7494 26.4504 58.5382 25.8232 58.3335 25.1372C58.1454 25.7448 57.9408 26.3622 57.723 26.9959L56.185 31.1185Z" fill="white"/>
<path d="M66.4024 28.8546C66.4024 28.064 66.376 27.1929 66.3232 26.2412H68.6332C68.72 26.6892 68.7795 27.1419 68.8114 27.5969C69.2156 27.1174 69.7198 26.7302 70.2895 26.4618C70.8591 26.1934 71.4806 26.0501 72.1114 26.042C72.8511 26.0304 73.5774 26.2374 74.1976 26.6366C74.8178 27.0358 75.3036 27.609 75.5929 28.2829C75.9989 29.2094 76.1917 30.2136 76.1572 31.2229C76.1824 32.3234 75.9568 33.4153 75.4972 34.4177C75.1128 35.2496 74.4852 35.9483 73.6954 36.4234C72.8829 36.8882 71.9574 37.1243 71.0191 37.1062C70.2808 37.1057 69.5478 36.982 68.851 36.7403V41.1601L66.3826 41.3692L66.4024 28.8546ZM72.8902 34.3001C73.3918 33.6468 73.6459 32.6668 73.6459 31.3601C73.6459 30.1689 73.4369 29.2977 73.0189 28.7468C72.8301 28.4907 72.5813 28.2838 72.2939 28.1438C72.0065 28.0039 71.6891 27.935 71.3689 27.9432C70.9078 27.9371 70.4529 28.0496 70.0489 28.2698C69.6198 28.5105 69.2294 28.8133 68.8906 29.1682V34.8848C69.1641 35.0125 69.4522 35.1068 69.7486 35.1658C70.0675 35.2341 70.3926 35.2691 70.7188 35.2703C71.1331 35.2949 71.5472 35.2194 71.9255 35.0504C72.3037 34.8814 72.6348 34.6239 72.8902 34.3001Z" fill="white"/>
<path d="M77.6603 28.8546C77.6603 28.064 77.6339 27.1929 77.5811 26.2412H79.8911C79.9806 26.6888 80.0412 27.1417 80.0725 27.5969C81.0339 26.5603 82.1339 26.042 83.3725 26.042C84.1122 26.0304 84.8385 26.2374 85.4587 26.6366C86.0788 27.0358 86.5647 27.609 86.854 28.2829C87.26 29.2094 87.4527 30.2136 87.4183 31.2229C87.4486 32.3221 87.2287 33.414 86.7748 34.4177C86.3895 35.2501 85.7607 35.9488 84.9697 36.4234C84.1574 36.8887 83.2318 37.1248 82.2934 37.1062C81.5551 37.1057 80.8221 36.982 80.1253 36.7403V41.1601L77.657 41.3692L77.6603 28.8546ZM84.1579 34.3001C84.6595 33.6315 84.9103 32.6515 84.9103 31.3601C84.9103 30.1689 84.7024 29.2977 84.2866 28.7468C84.0978 28.4907 83.849 28.2838 83.5616 28.1438C83.2742 28.0039 82.9568 27.935 82.6366 27.9432C82.1756 27.9377 81.7209 28.0502 81.3166 28.2698C80.8875 28.5105 80.4971 28.8133 80.1583 29.1682V34.8848C80.4322 35.0115 80.7202 35.1058 81.0163 35.1658C81.3352 35.2341 81.6603 35.2691 81.9865 35.2703C82.4007 35.2943 82.8146 35.2186 83.1928 35.0496C83.571 34.8806 83.9021 34.6235 84.1579 34.3001Z" fill="white"/>
<path d="M91.9571 36.2368C90.9025 35.6642 90.0459 34.7914 89.4984 33.7312C88.9 32.5333 88.6055 31.2092 88.6403 29.8733C88.5975 28.444 88.9392 27.0292 89.6304 25.7736C90.2545 24.684 91.192 23.8028 92.3235 23.242C93.5126 22.6669 94.8219 22.377 96.1453 22.3959C96.9478 22.3924 97.7478 22.4846 98.5281 22.6703C99.2579 22.8404 99.9663 23.0902 100.64 23.4151L100 25.2934C98.8326 24.7105 97.5482 24.3936 96.241 24.3657C95.3182 24.3505 94.4077 24.5758 93.6007 25.019C92.835 25.4541 92.2197 26.1075 91.835 26.8941C91.3926 27.827 91.1778 28.8497 91.208 29.8798C91.1915 30.8079 91.3551 31.7306 91.6898 32.5977C91.9937 33.3652 92.5282 34.022 93.2212 34.4793C94.0106 34.9682 94.9309 35.2096 95.8614 35.1718C96.3436 35.1707 96.8249 35.1302 97.3004 35.051C97.7605 34.9786 98.2125 34.8626 98.6502 34.7047V31.7908H95.3037V29.8929H101.05V35.933C100.216 36.3175 99.3429 36.6121 98.4456 36.8117C97.5558 37.0146 96.6458 37.1176 95.7327 37.1188C94.4186 37.15 93.1185 36.8463 91.9571 36.2368Z" fill="white"/>
<path d="M109.818 36.9134C109.724 36.4469 109.667 35.974 109.646 35.4989C109.234 35.9737 108.73 36.3624 108.164 36.6422C107.526 36.9625 106.818 37.1239 106.102 37.1126C105.516 37.1199 104.936 36.996 104.406 36.75C103.901 36.5157 103.479 36.1368 103.195 35.6622C102.879 35.1244 102.723 34.5099 102.743 33.8884C102.724 33.417 102.817 32.9479 103.013 32.5181C103.21 32.0883 103.505 31.7097 103.874 31.4123C104.627 30.7938 105.882 30.4857 107.64 30.4878C108.295 30.4875 108.948 30.5334 109.597 30.625V30.416C109.597 29.4752 109.394 28.8109 108.989 28.4233C108.506 28.0111 107.877 27.8035 107.24 27.8451C106.67 27.852 106.102 27.9288 105.551 28.0738C105.004 28.2042 104.472 28.3857 103.96 28.616L103.571 26.839C104.13 26.6025 104.712 26.4199 105.307 26.2934C106.055 26.1259 106.82 26.0427 107.587 26.0452C108.4 26.0232 109.208 26.1666 109.963 26.4666C110.627 26.757 111.167 27.2677 111.491 27.9104C111.896 28.7711 112.085 29.7158 112.042 30.6642V34.9109C112.042 35.3465 112.068 36.015 112.121 36.9166L109.818 36.9134ZM108.339 34.9534C108.815 34.7346 109.242 34.4248 109.597 34.042V32.082C109.049 32.0179 108.498 31.9819 107.947 31.9742C106.928 31.9742 106.223 32.1375 105.831 32.4642C105.64 32.6239 105.488 32.8246 105.387 33.0509C105.286 33.2773 105.238 33.5235 105.247 33.7708C105.229 33.9846 105.258 34.1996 105.332 34.4014C105.405 34.6032 105.521 34.787 105.673 34.9403C105.995 35.2088 106.408 35.3455 106.828 35.3225C107.354 35.3146 107.87 35.1884 108.339 34.9534Z" fill="white"/>
<path d="M113.95 34.3522V21.7429L116.405 21.5469V33.9177C116.37 34.2612 116.453 34.6062 116.64 34.8977C116.734 34.9981 116.85 35.0759 116.979 35.1251C117.109 35.1744 117.248 35.1938 117.386 35.1819C117.609 35.1723 117.831 35.135 118.046 35.0709L118.336 36.8218C118.06 36.9251 117.773 36.9995 117.481 37.0439C117.166 37.098 116.847 37.1264 116.527 37.1289C114.809 37.118 113.95 36.1924 113.95 34.3522Z" fill="white"/>
<path d="M120.093 34.3522V21.7429L122.551 21.5469V33.9177C122.516 34.2612 122.599 34.6062 122.786 34.8977C122.88 34.9981 122.996 35.0759 123.125 35.1251C123.255 35.1744 123.393 35.1938 123.531 35.1819C123.755 35.1723 123.977 35.135 124.191 35.0709L124.478 36.8218C124.203 36.9251 123.918 36.9996 123.627 37.0439C123.311 37.0982 122.991 37.1266 122.67 37.1289C120.954 37.118 120.095 36.1924 120.093 34.3522Z" fill="white"/>
<path d="M134.576 31.8893H127.524C127.636 34.1259 128.712 35.2442 130.751 35.2442C131.275 35.2415 131.796 35.1801 132.306 35.0612C132.826 34.9414 133.335 34.7774 133.827 34.5712L134.368 36.2438C133.098 36.8365 131.707 37.1337 130.303 37.1127C129.296 37.1415 128.299 36.9166 127.405 36.4594C126.63 36.0449 126.009 35.3974 125.63 34.6104C125.211 33.6987 125.008 32.7043 125.036 31.7031C125.008 30.6539 125.224 29.6125 125.666 28.6586C126.043 27.849 126.652 27.1673 127.418 26.6986C128.203 26.2409 129.101 26.0079 130.012 26.0256C130.916 25.994 131.808 26.2418 132.563 26.7345C133.244 27.2025 133.772 27.8578 134.081 28.6194C134.421 29.449 134.589 30.3376 134.576 31.2327V31.8893ZM132.17 30.3376C132.175 29.6441 131.942 28.9694 131.51 28.4234C131.317 28.2087 131.078 28.0388 130.81 27.9259C130.543 27.813 130.253 27.7598 129.963 27.77C129.67 27.7641 129.38 27.8192 129.11 27.9317C128.841 28.0443 128.598 28.2118 128.398 28.4234C127.933 28.96 127.648 29.6268 127.583 30.3311L132.17 30.3376Z" fill="white"/>
<path d="M136.446 28.9234C136.446 28.3386 136.416 27.4436 136.363 26.2447H138.673C138.713 26.542 138.749 26.898 138.789 27.3064C138.828 27.7147 138.848 28.0544 138.861 28.3125C139.11 27.8961 139.392 27.5006 139.706 27.13C139.979 26.8132 140.307 26.5485 140.676 26.3492C141.064 26.142 141.5 26.0373 141.94 26.0454C142.274 26.0374 142.608 26.0781 142.93 26.1663L142.62 28.2831C142.234 28.1724 141.828 28.1442 141.43 28.2005C141.031 28.2569 140.65 28.3964 140.31 28.6098C139.764 29.0116 139.288 29.4994 138.901 30.0536V36.9136H136.446V28.9234Z" fill="white"/>
<path d="M144.303 41.2806C144.002 41.2324 143.705 41.1614 143.415 41.0683L143.864 39.2879C144.071 39.3432 144.282 39.388 144.494 39.4219C144.732 39.4636 144.972 39.4855 145.214 39.4872C146.314 39.4872 147.132 38.7914 147.669 37.3998L147.83 37.0045L143.854 26.2441H146.494L148.514 32.2581C148.772 33.0316 148.981 33.8204 149.141 34.6199C149.329 33.8489 149.546 33.078 149.801 32.3071L151.814 26.2441H154.298L150.338 37.0535C150.04 37.9242 149.633 38.7548 149.127 39.5264C148.742 40.1092 148.216 40.5875 147.596 40.918C146.932 41.2389 146.2 41.3958 145.461 41.3753C145.073 41.3768 144.685 41.3451 144.303 41.2806Z" fill="white"/>
<path d="M51.4854 8.94385H55.8744L55.7522 9.99571H52.7658V12.0308H55.5807V13.0108H52.7658V15.2648H55.9107L55.8018 16.333H51.4854V8.94385Z" fill="white"/>
<path d="M58.9078 12.5633L56.5978 8.94385H58.063L59.6338 11.6029L61.2838 8.94385H62.7061L60.3961 12.5176L62.8942 16.333H61.4092L59.6305 13.4257L57.8188 16.333H56.3965L58.9078 12.5633Z" fill="white"/>
<path d="M63.8408 8.94385H65.8538C66.7976 8.94385 67.5214 9.1344 68.0252 9.51551C68.2758 9.7107 68.4751 9.96291 68.6061 10.2507C68.7371 10.5385 68.7959 10.8533 68.7776 11.1684C68.7916 11.6186 68.6772 12.0635 68.4476 12.4522C68.2236 12.8177 67.8967 13.1106 67.5071 13.295C67.0742 13.4976 66.5999 13.5983 66.1211 13.589C65.7887 13.5844 65.4574 13.5505 65.1311 13.4878V16.333H63.8408V8.94385ZM67.0748 12.2432C67.2156 12.1093 67.3254 11.9469 67.3966 11.767C67.4678 11.5871 67.4988 11.394 67.4873 11.2011C67.5041 11.0163 67.4747 10.8302 67.4016 10.6592C67.3285 10.4883 67.214 10.3378 67.0682 10.2211C66.6968 9.99721 66.2646 9.89226 65.8307 9.92058H65.1311V12.5339C65.3763 12.5776 65.6245 12.6028 65.8736 12.609C66.3063 12.6412 66.7353 12.5105 67.0748 12.2432Z" fill="white"/>
<path d="M70.0527 8.94385H71.3397V15.242H74.4285L74.3196 16.333H70.0527V8.94385Z" fill="white"/>
<path d="M76.3887 15.9703C75.8478 15.669 75.4109 15.2138 75.1347 14.6636C74.8345 14.0539 74.6863 13.3818 74.7024 12.7036C74.6866 11.995 74.8451 11.2932 75.1644 10.6587C75.457 10.0868 75.917 9.61548 76.4844 9.30631C77.1195 8.97701 77.8303 8.81715 78.5469 8.84244C79.2244 8.82444 79.8947 8.98329 80.4906 9.30304C81.0282 9.60537 81.4616 10.0606 81.7347 10.6097C82.029 11.2131 82.1748 11.8769 82.1604 12.5468C82.1782 13.2634 82.0185 13.9733 81.6951 14.6146C81.3996 15.1846 80.9403 15.6552 80.3751 15.967C79.7511 16.2956 79.0522 16.4599 78.3456 16.444C77.6623 16.4611 76.9868 16.2976 76.3887 15.9703ZM79.7283 15.0654C80.0921 14.8268 80.3749 14.4853 80.5401 14.0854C80.7252 13.6277 80.8161 13.1379 80.8074 12.6448C80.8156 12.1608 80.7351 11.6794 80.5698 11.2238C80.4217 10.8293 80.1572 10.4878 79.8108 10.2438C79.4089 10.0004 78.947 9.87165 78.4759 9.87165C78.0048 9.87165 77.5429 10.0004 77.1411 10.2438C76.7762 10.4944 76.4921 10.8437 76.3227 11.25C76.1349 11.6889 76.0416 12.1617 76.0488 12.6383C76.0408 13.1293 76.1282 13.6173 76.3062 14.0756C76.4642 14.495 76.7533 14.8535 77.1313 15.0991C77.5094 15.3447 77.9567 15.4645 78.4083 15.4411C78.8767 15.4525 79.3374 15.3214 79.7283 15.0654Z" fill="white"/>
<path d="M83.5967 8.94419H85.9331C86.6176 8.89623 87.2988 9.0743 87.8702 9.45052C88.0894 9.62089 88.2639 9.8411 88.3788 10.0925C88.4937 10.3438 88.5456 10.6189 88.5302 10.8944C88.5379 11.2526 88.4563 11.6071 88.2926 11.9267C88.1494 12.2068 87.9494 12.4548 87.7052 12.6551C87.4868 12.8297 87.2417 12.9686 86.9792 13.0667L89.2892 16.3334H87.7877L85.844 13.3934H84.8969V16.3334H83.5967V8.94419ZM85.6196 12.4395C85.9062 12.4457 86.1902 12.3841 86.4479 12.2599C86.68 12.1495 86.8757 11.9762 87.0122 11.7601C87.1484 11.5294 87.218 11.2661 87.2135 10.9989C87.2268 10.8447 87.2012 10.6897 87.139 10.5477C87.0768 10.4057 86.9799 10.2813 86.8571 10.1855C86.5477 9.99379 86.1851 9.90349 85.8209 9.92746H84.887V12.4526L85.6196 12.4395Z" fill="white"/>
<path d="M90.2969 8.94385H94.6958L94.5704 9.99571H91.6004V12.0308H94.3889V13.0108H91.574V15.2648H94.7189L94.6232 16.333H90.2969V8.94385Z" fill="white"/>
<path d="M99.4814 8.94385H100.768V16.333H99.4814V8.94385Z" fill="white"/>
<path d="M104.177 10.0088H101.867L101.979 8.94385H107.787L107.669 10.0088H105.467V16.333H104.177V10.0088Z" fill="white"/>
<path d="M113.383 15.9709C112.843 15.6695 112.407 15.2142 112.132 14.6643C111.829 14.0553 111.68 13.3828 111.697 12.7043C111.681 11.9956 111.839 11.2938 112.159 10.6593C112.452 10.088 112.912 9.61691 113.479 9.30693C114.109 8.97601 114.815 8.81174 115.528 8.82999C116.213 8.81172 116.891 8.97526 117.491 9.30366C118.03 9.60502 118.463 10.0605 118.735 10.6103C119.031 11.2135 119.178 11.8773 119.164 12.5475C119.183 13.2644 119.022 13.9748 118.696 14.6153C118.401 15.1859 117.942 15.6567 117.376 15.9677C116.752 16.2971 116.053 16.4614 115.346 16.4446C114.661 16.4629 113.983 16.2993 113.383 15.9709ZM116.726 15.0661C117.088 14.8263 117.369 14.4851 117.534 14.0861C117.719 13.6283 117.81 13.1385 117.802 12.6455C117.81 12.1615 117.729 11.68 117.564 11.2245C117.417 10.8301 117.154 10.4887 116.808 10.2445C116.406 10.0008 115.943 9.87183 115.472 9.87183C115 9.87183 114.538 10.0008 114.135 10.2445C113.77 10.495 113.486 10.8443 113.317 11.2506C113.131 11.69 113.037 12.1625 113.043 12.6389C113.035 13.1299 113.122 13.6179 113.3 14.0763C113.458 14.4792 113.732 14.827 114.089 15.0759C114.48 15.3311 114.941 15.459 115.409 15.4417C115.876 15.4512 116.335 15.3202 116.726 15.0661Z" fill="white"/>
<path d="M120.595 8.94385H122.073L125.766 14.6703C125.733 14.1248 125.72 13.625 125.72 13.1644V8.94385H126.914V16.333H125.482L121.733 10.5151C121.77 11.1684 121.789 11.7597 121.789 12.2726V16.333H120.595V8.94385Z" fill="white"/>
<path fill-rule="evenodd" clip-rule="evenodd" d="M33.333 8.9834H19.6333C13.1746 8.9834 10.8115 11.3223 10.8115 17.7152V31.2849C10.8115 37.6778 13.1746 40.0167 19.6333 40.0167H33.333C39.7917 40.0167 42.1581 37.6778 42.1581 31.2849V17.7152C42.1647 11.3223 39.8016 8.9834 33.333 8.9834Z" fill="#C8102E"/>
<path d="M17.0191 24.5H17.8508V28.5605H17.0191V26.9108H15.1413V28.5605H14.3096V24.5H15.1413V26.1333H17.0191V24.5ZM21.7056 26.8226C21.7056 27.4759 21.3756 27.8353 20.7749 27.8353C20.1743 27.8353 19.8376 27.4759 19.8376 26.7867V24.5H19.0059V26.8193C19.0059 27.9594 19.6462 28.6127 20.7617 28.6127C21.8772 28.6127 22.5373 27.9594 22.5373 26.7834V24.5H21.7056V26.8226ZM31.3162 27.2897L30.3855 24.5H29.7023L28.7782 27.293L27.8706 24.5H26.9861L28.4152 28.5605H29.1049L30.0323 25.8949L30.963 28.5605H31.6594L33.0884 24.5H32.2238L31.3162 27.2897ZM34.5769 26.8095H36.0917V26.0745H34.5769V25.2448H36.7749V24.5H33.7584V28.5507H36.8541V27.8189H34.5769V26.8095ZM37.8442 28.5507H38.666V24.5H37.8442V28.5507ZM24.1809 27.7111L23.8079 28.5539H22.9597L24.7518 24.5H25.4845L27.2832 28.5539H26.4251L26.0719 27.7144L24.1809 27.7111ZM24.4911 26.9794H25.7419L25.1148 25.529L24.4911 26.9794Z" fill="white"/>
<path d="M26.4878 19.335C25.1044 19.3341 23.7778 18.7897 22.7996 17.8214C21.8213 16.853 21.2714 15.5399 21.2705 14.1704H22.0064C22.0064 15.3469 22.4786 16.4753 23.319 17.3072C24.1594 18.1392 25.2993 18.6065 26.4878 18.6065C27.6764 18.6065 28.8162 18.1392 29.6566 17.3072C30.4971 16.4753 30.9692 15.3469 30.9692 14.1704H31.7051C31.7042 15.5399 31.1543 16.853 30.176 17.8214C29.1978 18.7897 27.8713 19.3341 26.4878 19.335Z" fill="white"/>
</svg>
