<svg width="104" height="104" viewBox="0 0 104 104" fill="none" xmlns="http://www.w3.org/2000/svg">
<path d="M75.487 26.9387H58.0558L58.0133 26.8187C57.4645 25.2625 56.3408 24.0137 54.8533 23.3012C53.3645 22.5887 51.687 22.5 50.1308 23.0475L28.5283 30.6662C26.972 31.215 25.722 32.3375 25.0095 33.825C24.297 35.3137 24.2058 36.9912 24.7558 38.5475L38.3783 77.1825C39.2733 79.7175 41.6645 81.3062 44.2133 81.3062C44.8933 81.3062 45.5845 81.1925 46.262 80.955L67.8658 73.3362C71.077 72.2037 72.7695 68.6687 71.6383 65.4537L65.8145 48.9387H75.4883C77.7558 48.9387 79.602 47.0925 79.602 44.825V31.0512C79.602 28.7837 77.7558 26.9375 75.4883 26.9375L75.487 26.9387ZM69.2783 66.2862C69.6058 67.2137 69.552 68.2125 69.127 69.0987C68.7033 69.985 67.9595 70.6525 67.0333 70.9787L45.4295 78.5975C43.512 79.275 41.4095 78.2637 40.7358 76.3512L27.1133 37.7162C26.7858 36.79 26.8395 35.7912 27.2633 34.905C27.6883 34.0187 28.432 33.3512 29.3595 33.025L50.9633 25.4062C51.3658 25.2637 51.777 25.1962 52.1833 25.1962C53.442 25.1962 54.6295 25.855 55.3033 26.94H51.8283C49.5608 26.94 47.7145 28.7862 47.7145 31.0537V44.8275C47.7145 47.02 49.4383 48.8162 51.6008 48.935V53.735C51.6008 54.3375 51.9608 54.8762 52.5183 55.1075C52.702 55.185 52.897 55.2225 53.0883 55.2225C53.4745 55.2225 53.852 55.0712 54.137 54.7862L59.982 48.9412H63.162L69.2783 66.2875V66.2862ZM77.1008 44.8262C77.1008 45.7162 76.377 46.44 75.487 46.44H58.947L54.1008 51.2862V46.44H51.8283C50.9383 46.44 50.2145 45.7162 50.2145 44.8262V31.0525C50.2145 30.1625 50.9383 29.4387 51.8283 29.4387H75.4883C76.3783 29.4387 77.102 30.1625 77.102 31.0525V44.8262H77.1008Z" fill="url(#paint0_linear_303_1444)"/>
<path d="M54.9854 41.1812C56.5856 41.1812 57.8829 39.884 57.8829 38.2837C57.8829 36.6835 56.5856 35.3862 54.9854 35.3862C53.3851 35.3862 52.0879 36.6835 52.0879 38.2837C52.0879 39.884 53.3851 41.1812 54.9854 41.1812Z" fill="url(#paint1_linear_303_1444)"/>
<path d="M63.461 41.1812C65.0612 41.1812 66.3585 39.884 66.3585 38.2837C66.3585 36.6835 65.0612 35.3862 63.461 35.3862C61.8607 35.3862 60.5635 36.6835 60.5635 38.2837C60.5635 39.884 61.8607 41.1812 63.461 41.1812Z" fill="url(#paint2_linear_303_1444)"/>
<path d="M72.1905 41.1812C73.7907 41.1812 75.088 39.884 75.088 38.2837C75.088 36.6835 73.7907 35.3862 72.1905 35.3862C70.5902 35.3862 69.293 36.6835 69.293 38.2837C69.293 39.884 70.5902 41.1812 72.1905 41.1812Z" fill="url(#paint3_linear_303_1444)"/>
<rect x="1" y="1" width="102" height="102" rx="11" stroke="url(#paint4_linear_303_1444)" stroke-width="2"/>
<defs>
<linearGradient id="paint0_linear_303_1444" x1="24.4004" y1="22.6931" x2="82.9083" y2="77.7957" gradientUnits="userSpaceOnUse">
<stop stop-color="#BE94FF"/>
<stop offset="1" stop-color="#6500FF"/>
</linearGradient>
<linearGradient id="paint1_linear_303_1444" x1="52.0879" y1="35.3862" x2="57.8829" y2="41.1812" gradientUnits="userSpaceOnUse">
<stop stop-color="#BE94FF"/>
<stop offset="1" stop-color="#6500FF"/>
</linearGradient>
<linearGradient id="paint2_linear_303_1444" x1="60.5635" y1="35.3862" x2="66.3585" y2="41.1812" gradientUnits="userSpaceOnUse">
<stop stop-color="#BE94FF"/>
<stop offset="1" stop-color="#6500FF"/>
</linearGradient>
<linearGradient id="paint3_linear_303_1444" x1="69.293" y1="35.3862" x2="75.088" y2="41.1812" gradientUnits="userSpaceOnUse">
<stop stop-color="#BE94FF"/>
<stop offset="1" stop-color="#6500FF"/>
</linearGradient>
<linearGradient id="paint4_linear_303_1444" x1="2" y1="2" x2="102" y2="102" gradientUnits="userSpaceOnUse">
<stop stop-color="#BE94FF"/>
<stop offset="1" stop-color="#6500FF"/>
</linearGradient>
</defs>
</svg>
