<svg width="104" height="104" viewBox="0 0 104 104" fill="none" xmlns="http://www.w3.org/2000/svg">
<path d="M75.775 34.135C76.5538 32.9363 76.9613 31.5838 76.9613 30.1938C76.9613 26.1575 73.6775 22.8738 69.6425 22.8738C65.6075 22.8738 62.3225 26.1575 62.3225 30.1938C62.3225 31.5888 62.7313 32.945 63.5088 34.1438C62.3013 34.5788 61.2125 35.2863 60.3238 36.2175C60.0338 36.0925 59.7375 35.9825 59.4375 35.885C60.5063 34.3663 61.09 32.5363 61.09 30.6725C61.0938 28.245 60.15 25.9588 58.4325 24.24C56.715 22.5213 54.4325 21.5725 52.0037 21.5725C46.9887 21.5725 42.91 25.6513 42.91 30.665C42.91 32.5288 43.4937 34.3575 44.5625 35.8763C44.265 35.9725 43.9675 36.0838 43.6763 36.21C42.7825 35.2713 41.6938 34.5625 40.4925 34.135C41.27 32.935 41.6775 31.58 41.6775 30.1863C41.6775 26.15 38.3937 22.8663 34.3587 22.8663C30.3237 22.8663 27.0387 26.15 27.0387 30.1863C27.0387 31.5838 27.4462 32.9363 28.2237 34.1288C24.9575 35.3025 22.7188 38.4338 22.7188 41.9175V62.5988C22.7188 62.985 22.9325 63.3363 23.28 63.515L32.3425 68.1288L32.5025 68.2075C32.38 68.4875 32.295 68.77 32.25 69.0538C32 70.5263 32.6375 72.4188 34.3388 73.19C34.785 73.3913 35.27 73.4938 35.7788 73.4938H35.7937C35.875 73.9563 36.0412 74.4063 36.29 74.835C37.2712 76.55 39.0638 76.8875 39.4025 76.9363C39.505 76.9538 39.6063 76.9638 39.7113 76.97C39.79 77.31 39.9025 77.6263 40.05 77.9325C40.6488 79.1388 41.6725 80.0225 42.7925 80.2988C43.1425 80.3763 43.4625 80.4263 43.8088 80.3713C44.1388 80.9638 44.685 81.465 45.4062 81.8363C46.1525 82.2175 47.025 82.4275 47.8638 82.4275C48.4613 82.4275 49.0162 82.3313 49.5037 82.1413C49.89 82.0013 50.1975 81.8162 50.4388 81.6463C51.9088 82.3088 53.2313 82.36 54.3813 81.8088C54.715 81.6425 55.0338 81.4075 55.3513 81.0938L55.4213 81.1225C56.8313 81.5913 58.3513 80.9963 59.1425 79.8888C59.28 79.7063 59.3975 79.5013 59.4925 79.2788C60.9788 79.5513 62.4863 78.5875 63.275 77.6975C63.4938 77.455 63.6925 77.1638 63.8775 76.815C64.3975 76.905 64.7513 76.8525 65.2363 76.725C66.7375 76.2738 67.5663 74.6263 67.6088 73.2213C67.6088 73.0538 67.5988 72.8913 67.5813 72.7313L80.7425 65.6225C81.075 65.4425 81.28 65.0963 81.28 64.7163V41.9288C81.2875 38.4425 79.0488 35.31 75.7738 34.1363L75.775 34.135ZM34.2837 69.3938C34.2975 69.3063 34.3225 69.2138 34.3625 69.1188L35.7 69.77L36.5275 70.7838C36.3787 71.0075 36.2513 71.2175 36.1475 71.4125C35.7888 71.4863 35.4737 71.4575 35.1912 71.3288C34.4675 70.9963 34.16 70.0888 34.2813 69.3938H34.2837ZM54.91 67.5413C54.4938 67.9225 54.4663 68.5725 54.85 68.9938C55.3288 69.5113 60.685 74.4913 62.0875 75.7913C61.985 75.985 61.8688 76.1575 61.74 76.3038C61.23 76.8813 60.36 77.3863 59.79 77.215C59.6888 77.185 59.615 77.145 59.5713 77.1225C58.71 76.62 56.645 74.71 54.1825 72.1388C53.9925 71.9425 53.7362 71.8325 53.4625 71.8275C53.1425 71.81 52.9263 71.925 52.7288 72.1163C52.325 72.5075 52.3088 73.1425 52.6987 73.5675C53.905 74.8225 56.11 77.0563 57.64 78.2675C57.605 78.4238 57.55 78.55 57.4688 78.6588C57.1263 79.1463 56.435 79.2875 56.1288 79.18C56.0488 79.1475 55.9975 79.1113 55.9625 79.0888C55.4463 78.7413 54.3525 77.8825 52.08 75.7575C51.8813 75.575 51.6338 75.4863 51.3838 75.4863C51.11 75.4863 50.8363 75.595 50.6275 75.8125C50.5888 75.855 50.5525 75.8988 50.5225 75.9463C50.3325 75.3013 49.9975 74.7513 49.5212 74.2975C49.2175 74.0425 48.9037 73.845 48.5837 73.7088C48.595 73.54 48.5963 73.3575 48.5737 73.1813C48.555 72.7788 48.1813 71.1313 46.6763 70.435C46.0763 70.16 45.4125 70.0813 44.7188 70.1963C44.6175 70.215 44.5125 70.2388 44.405 70.2713C44.395 70.2163 44.3825 70.1625 44.3688 70.11C44.015 68.8213 43.2562 68.1738 42.6812 67.8563C41.6775 67.3138 40.68 67.4913 40.3363 67.5538C39.3913 67.725 38.55 68.2225 37.775 69.0713L37.1263 68.275C37.0312 68.1675 36.93 68.0863 36.8038 68.0163L24.7763 61.9763V46.4988C30.9188 49.9488 36.105 52.805 37.8163 53.6788L37.9238 53.7325L38.09 53.3913L38.0125 53.7775C38.8263 54.1763 39.6775 54.4 40.555 54.44C41.9775 54.4738 43.12 53.9888 44.24 53.4575C45.3838 52.91 46.9163 52.2425 48.7137 51.4988C49.1475 51.4275 49.5688 51.4563 49.98 51.5838C50.2013 51.6538 50.3913 51.7438 50.55 51.8388C48.97 52.8438 46.795 54.3613 44.35 56.1638C44.2663 56.2238 44.1925 56.2975 44.135 56.3775C44.0275 56.5188 43.97 56.655 43.9363 56.735C43.65 57.3338 43.4913 57.9875 43.4488 58.74C43.4213 59.4038 43.3188 59.935 43.1338 60.3638C42.7325 61.2975 42.4163 61.9838 42.1912 62.4075C42.12 62.5438 41.9063 62.9638 41.9638 63.5163C42.0563 64.3425 42.69 64.8125 43.0588 65.085C43.8875 65.7475 45.9675 66.105 47.7188 65.0475C48.4263 64.6263 48.86 64.0525 49.4587 63.2613C50.25 62.2238 50.7913 61.3213 51.1175 60.7225L52.7213 59.6975L52.82 59.7763C53.7663 60.5163 54.7875 61.35 55.8563 62.2513L56.5238 62.8275C56.6888 62.9763 57.16 63.41 57.65 63.8825C58.285 64.495 61.1775 67.5475 64.9588 71.685C65.0038 71.745 65.06 71.8025 65.075 71.8163C65.1075 71.8488 65.1575 71.9038 65.2325 72.0163C65.325 72.1525 65.3913 72.2938 65.455 72.4838C65.5288 72.7113 65.5638 72.9463 65.5575 73.185C65.5438 73.7925 65.1738 74.5763 64.6613 74.7375C64.3763 74.8113 64.125 74.8013 63.9688 74.7113C63.915 74.6813 63.8725 74.6438 63.805 74.59C62.8325 73.695 56.7725 68.0588 56.3613 67.605C55.9788 67.1875 55.3425 67.155 54.9075 67.5438L54.91 67.5413ZM53.6025 79.8613C53.5463 79.8975 53.4963 79.925 53.455 79.945C52.5125 80.3925 51.415 79.8425 51.0688 79.67L50.815 79.5288C50.685 79.4488 50.5588 79.3613 50.4363 79.2663C50.5338 78.955 50.6075 78.6238 50.6538 78.2788C50.6975 77.935 50.7188 77.6075 50.715 77.2938C51.8975 78.3938 52.8475 79.2388 53.6038 79.8613H53.6025ZM48.4963 80.275L48.5212 80.3C47.8488 80.46 47.025 80.355 46.3488 80.0125C45.905 79.785 45.5938 79.4863 45.5187 79.2113C45.4975 79.1388 45.5037 79.0613 45.5775 78.6513C45.7175 77.9363 46.3912 77.1563 47.75 75.6275L47.7525 75.625C47.7688 75.6188 47.7825 75.61 47.7988 75.6025C47.8688 75.6288 47.9938 75.695 48.1813 75.855C48.4738 76.1363 48.79 76.7425 48.6288 78.0338C48.5813 78.4163 48.4788 78.7638 48.3088 79.13C48.1275 79.5188 48.2025 79.9675 48.4963 80.275ZM38.5037 71.5038C38.9725 70.8113 39.6812 69.765 40.73 69.575C40.8188 69.5575 40.9675 69.53 41.1413 69.53C41.3213 69.53 41.5263 69.56 41.7175 69.6625C42.0438 69.8413 42.2688 70.165 42.405 70.655C42.4763 70.9088 42.4887 71.17 42.4462 71.4525C41.2737 72.4163 40.535 73.5213 40.0188 74.385L39.9862 74.4413C39.895 74.6 39.8425 74.6938 39.8175 74.7588C39.795 74.81 39.7775 74.8625 39.7588 74.9238L39.7213 74.92C39.4575 74.8713 38.5563 74.6513 38.08 73.8213C37.99 73.6613 37.7488 73.235 37.8075 72.7225C37.81 72.71 37.8713 72.4363 38.505 71.5038H38.5037ZM41.72 75.5425L41.8075 75.3938C42.2575 74.6475 42.9363 73.5213 44.16 72.6763C44.68 72.3138 44.9625 72.235 45.0563 72.22C45.1075 72.2113 45.205 72.195 45.33 72.195C45.4713 72.195 45.6463 72.2175 45.8188 72.295C46.43 72.5813 46.5463 73.3988 46.5488 73.4263C46.5788 73.66 46.545 73.8488 46.4963 74.0063C46.3238 74.1475 46.2613 74.2188 46.245 74.2425C44.725 75.94 43.8075 76.9663 43.5625 78.2563V78.2625L43.55 78.33C43.4513 78.3325 43.3538 78.3225 43.2725 78.3038C42.7538 78.18 42.2125 77.6825 41.8938 77.0325C41.6263 76.49 41.5475 75.9225 41.7188 75.5425H41.72ZM34.355 35.445H34.34C32.9462 35.445 31.6338 34.9 30.6438 33.9125C29.645 32.9163 29.095 31.5925 29.095 30.1838C29.095 27.2838 31.4563 24.9225 34.3563 24.9225C37.2563 24.9225 39.6187 27.2838 39.6187 30.1838C39.6187 33.0838 37.2575 35.445 34.355 35.445ZM29.75 35.8275C31.0675 36.91 32.6975 37.505 34.3638 37.505C36.0188 37.505 37.65 36.91 38.975 35.8275C40.025 36.045 40.99 36.5313 41.8025 37.2513C39.015 39.185 37.3638 42.3188 37.3638 45.7263V51.1163C35.73 50.2375 32.955 48.7088 29.0937 46.5613V41.3763C29.0937 40.8113 28.6337 40.3513 28.0687 40.3513C27.5037 40.3513 27.0437 40.8113 27.0437 41.3763V45.4163C26.3162 45.01 25.5588 44.5875 24.7763 44.1438V41.9238C24.7763 38.9613 26.8575 36.425 29.75 35.8263V35.8275ZM52.0025 37.7075C48.12 37.7075 44.96 34.5488 44.96 30.665C44.96 26.7813 48.1187 23.6225 52.0025 23.6225C55.8862 23.6225 59.045 26.7813 59.045 30.665C59.045 34.5488 55.8862 37.7075 52.0025 37.7075ZM52.0025 39.765C54.1562 39.765 56.2375 38.9938 57.885 37.59C58.685 37.7363 59.4325 37.9938 60.1138 38.3563C62.8738 39.78 64.5875 42.6025 64.5875 45.7263V52.6175C64.475 52.6363 64.405 52.6413 64.3638 52.6413C63.8713 52.6225 63.39 52.5675 63.1913 52.5463C62.4763 52.4675 61.7725 52.34 61.095 52.1663V44.7438C61.095 44.1788 60.635 43.7188 60.07 43.7188C59.505 43.7188 59.045 44.1788 59.045 44.7438V51.4875L55.8638 50.3725C55.3688 50.285 54.5875 50.2125 53.6738 50.3725C53.6738 50.3725 53.2963 50.4375 52.9925 50.5288C52.8337 50.5675 52.66 50.6338 52.45 50.7325L52.325 50.6225C51.9825 50.3125 51.4025 49.8888 50.5813 49.6263C49.845 49.3988 49.0763 49.355 48.2975 49.4938C48.2387 49.5038 48.18 49.52 48.0788 49.555C46.9338 50.0225 45.8875 50.4663 44.9588 50.8763V44.2813C44.9588 43.7163 44.4988 43.2563 43.9338 43.2563C43.3688 43.2563 42.9088 43.7163 42.9088 44.2813V51.8125C42.0413 52.2038 41.365 52.4088 40.6238 52.39C40.2138 52.3713 39.8088 52.2913 39.4163 52.1513V45.7313C39.4163 42.6025 41.1325 39.775 43.8962 38.3538L43.9025 38.35C44.5625 37.9963 45.3075 37.7425 46.1187 37.595C47.765 38.9988 49.8463 39.77 52.0013 39.77L52.0025 39.765ZM69.6388 35.445H69.6238C68.23 35.445 66.9163 34.9 65.9263 33.9125C64.9275 32.9163 64.3775 31.5925 64.3775 30.1838C64.3775 27.2838 66.7388 24.9225 69.64 24.9225C72.5413 24.9225 74.9013 27.2838 74.9013 30.1838C74.9013 33.0838 72.54 35.445 69.6388 35.445ZM79.23 46.1125C78.4425 46.5213 77.685 46.9113 76.9625 47.2788V41.3775C76.9625 40.8125 76.5025 40.3525 75.9375 40.3525C75.3725 40.3525 74.9125 40.8125 74.9125 41.3775V48.3075C71.5563 49.95 68.6563 51.2375 66.6425 51.98V45.7288C66.6425 42.3213 64.9963 39.19 62.2138 37.255C63.0238 36.5413 63.9875 36.0525 65.0313 35.83C66.3488 36.9125 67.9788 37.5063 69.6425 37.5063C71.3063 37.5063 72.93 36.9113 74.255 35.83C77.1488 36.4275 79.2313 38.9638 79.2313 41.9275V46.1138L79.23 46.1125ZM57.9813 61.38L57.9338 61.3375L57.1838 60.68C56.225 59.8613 55.2088 59.0338 54.0775 58.1538L53.385 57.61C53.3213 57.5613 53.26 57.5325 53.2038 57.5088C53.155 57.4825 53.0863 57.45 52.9875 57.4313C52.9225 57.42 52.8575 57.4188 52.7775 57.4175H52.6513L52.6025 57.4263C52.5438 57.4375 52.4713 57.46 52.4075 57.4863C52.3913 57.4913 52.3713 57.4975 52.3438 57.51L49.8113 59.105L49.7063 59.165L49.68 59.2013C49.645 59.2325 49.6112 59.2675 49.5725 59.3075C49.5462 59.3338 49.5138 59.3688 49.4738 59.4263L49.4125 59.5113C48.9588 60.3625 48.4163 61.2025 47.8 62.0088C47.2087 62.7888 46.9738 63.0788 46.6425 63.2738C45.6638 63.8688 44.4963 63.6125 44.325 63.4775L44.1525 63.3488C44.1288 63.33 44.0813 63.295 44.0375 63.2588C44.29 62.7713 44.6325 62.0325 45.0038 61.1638C45.295 60.49 45.4525 59.72 45.485 58.8138C45.5037 58.3938 45.5837 58.0375 45.7425 57.6688C48.7563 55.4488 51.385 53.6538 52.8288 52.8363C53.1825 52.64 53.4125 52.5275 53.5312 52.4975C53.7313 52.4363 53.9412 52.3963 54.0088 52.3875C54.71 52.2713 55.2788 52.3413 55.3288 52.3413L59.725 53.9C60.6725 54.21 61.7825 54.445 62.9338 54.5775C62.9613 54.5813 63.605 54.6625 64.3425 54.685C64.6913 54.685 65.2025 54.585 65.8875 54.3825L65.9925 54.355C68.1375 53.7 71.815 52.11 76.3488 49.8775C77.2738 49.4213 78.2338 48.9375 79.225 48.4313V64.085L66.8575 70.7625C66.7613 70.6313 66.655 70.5063 66.515 70.3425C62.8625 66.3525 59.8063 63.1138 59.0688 62.4C58.6325 61.9788 58.2063 61.5888 57.9775 61.38H57.9813Z" fill="url(#paint0_linear_303_1477)"/>
<rect x="1" y="1" width="102" height="102" rx="11" stroke="url(#paint1_linear_303_1477)" stroke-width="2"/>
<defs>
<linearGradient id="paint0_linear_303_1477" x1="22.7188" y1="21.5725" x2="83.5289" y2="80.0906" gradientUnits="userSpaceOnUse">
<stop stop-color="#BE94FF"/>
<stop offset="1" stop-color="#6500FF"/>
</linearGradient>
<linearGradient id="paint1_linear_303_1477" x1="2" y1="2" x2="102" y2="102" gradientUnits="userSpaceOnUse">
<stop stop-color="#BE94FF"/>
<stop offset="1" stop-color="#6500FF"/>
</linearGradient>
</defs>
</svg>
