<svg width="104" height="104" viewBox="0 0 104 104" fill="none" xmlns="http://www.w3.org/2000/svg">
<path d="M57.6995 39.4563C60.8095 39.4563 63.9495 37.8513 63.9495 34.2663C63.9495 31.2038 61.6045 29.2251 57.9757 29.2251H52.1282V40.1476H51.1895V42.1438H52.1282V44.9838H54.167V42.1438H58.4157V40.1476H54.167V39.4563H57.6995ZM54.167 37.5038V31.1776H57.8907C59.0995 31.1776 61.912 31.4801 61.912 34.2876C61.912 36.2401 60.2832 37.5026 57.7645 37.5026H54.1682L54.167 37.5038Z" fill="url(#paint0_linear_303_1453)"/>
<path d="M86.3773 63.4988C85.2473 62.4488 83.2786 62.03 81.5761 62.4763L66.9823 66.625C66.9823 66.5363 66.9798 66.4475 66.9736 66.3625C66.9736 63.7025 64.8111 61.54 62.1523 61.54H52.9123C48.6336 56.105 38.7461 56.0425 38.3223 56.0425H31.3823V54.6775C31.3823 53.9988 30.8298 53.4463 30.1498 53.4463H17.6261C16.9461 53.4463 16.3936 53.9988 16.3936 54.6775V76.5213C16.3936 77.2 16.9461 77.7525 17.6261 77.7525H30.1523C30.8548 77.7525 31.3836 77.2563 31.3836 76.5975V75.6013L49.1298 81.2063C49.3923 81.3375 52.0461 82.0963 55.0698 82.0963C57.0848 82.0963 58.6836 81.7525 59.9023 81.0713C64.1761 79.3625 85.6236 69.35 86.5198 68.9C86.9848 68.7488 87.3448 68.3588 87.4411 67.8613L87.5936 66.3263C87.6836 65.2388 87.2198 64.1725 86.3761 63.4988H86.3773ZM64.3923 67.4575H64.1911V67.7625C63.7423 68.37 63.0561 68.72 62.3048 68.72H45.1211C44.4073 68.72 43.8886 69.2388 43.8886 69.9525C43.8886 70.6663 44.4073 71.1838 45.1211 71.1838H62.2298C63.6961 71.1838 65.0836 70.5375 65.9761 69.4463L82.1923 64.8338C83.0848 64.6275 84.2073 64.85 84.7348 65.32C84.9448 65.5288 85.1836 65.8225 85.1336 66.0863L85.0536 66.9C82.3911 68.18 62.9036 77.2425 59.0161 78.8263C55.9086 80.1038 51.6448 79.2563 49.9548 78.8338C49.9048 78.82 49.8698 78.8113 49.8398 78.8063L31.3848 72.9463V58.505H38.3973C38.4936 58.505 48.0148 58.5963 51.4323 63.56C51.5648 63.6938 51.9223 64.0038 52.3773 64.0038H62.1823C63.2573 64.0038 64.2236 64.6463 64.5311 65.5663C64.7448 66.205 64.6923 66.8813 64.3936 67.4563L64.3923 67.4575ZM28.9186 56.4513V74.745C28.9186 75.0438 28.6761 75.2875 28.3761 75.2875H19.3998C19.1011 75.2875 18.8561 75.045 18.8561 74.745V56.4513C18.8561 56.1525 19.0998 55.9088 19.3998 55.9088H28.3761C28.6748 55.9088 28.9186 56.1513 28.9186 56.4513Z" fill="url(#paint1_linear_303_1453)"/>
<path d="M54.0263 50.8951C54.8613 51.0326 55.6925 51.1013 56.515 51.1013C60.3775 51.1013 64.035 49.6026 66.8175 46.8188C70.1938 43.4426 71.68 38.7801 70.8938 34.0276C69.8975 28.0063 64.9963 23.1051 58.975 22.1076C54.2188 21.3188 49.5575 22.8076 46.1825 26.1851C42.8063 29.5613 41.3213 34.2238 42.1075 38.9751C43.1025 44.9963 48.005 49.8976 54.0263 50.8951ZM44.5375 34.4413C45.3638 29.4376 49.435 25.3651 54.4388 24.5388C58.3888 23.8838 62.2688 25.1176 65.0763 27.9251C67.8838 30.7326 69.1163 34.6076 68.4638 38.5613C67.6363 43.5651 63.565 47.6376 58.5613 48.4638C54.6113 49.1151 50.73 47.8826 47.9238 45.0763C45.1175 42.2701 43.885 38.3951 44.5375 34.4413Z" fill="url(#paint2_linear_303_1453)"/>
<rect x="1" y="1" width="102" height="102" rx="11" stroke="url(#paint3_linear_303_1453)" stroke-width="2"/>
<defs>
<linearGradient id="paint0_linear_303_1453" x1="51.1895" y1="29.2251" x2="66.6035" y2="41.706" gradientUnits="userSpaceOnUse">
<stop stop-color="#BE94FF"/>
<stop offset="1" stop-color="#6500FF"/>
</linearGradient>
<linearGradient id="paint1_linear_303_1453" x1="16.3936" y1="53.4463" x2="36.2351" y2="102.764" gradientUnits="userSpaceOnUse">
<stop stop-color="#BE94FF"/>
<stop offset="1" stop-color="#6500FF"/>
</linearGradient>
<linearGradient id="paint2_linear_303_1453" x1="41.9014" y1="21.9006" x2="71.102" y2="51.0991" gradientUnits="userSpaceOnUse">
<stop stop-color="#BE94FF"/>
<stop offset="1" stop-color="#6500FF"/>
</linearGradient>
<linearGradient id="paint3_linear_303_1453" x1="2" y1="2" x2="102" y2="102" gradientUnits="userSpaceOnUse">
<stop stop-color="#BE94FF"/>
<stop offset="1" stop-color="#6500FF"/>
</linearGradient>
</defs>
</svg>
