<svg width="132" height="127" viewBox="0 0 132 127" fill="none" xmlns="http://www.w3.org/2000/svg">
<g filter="url(#filter0_f_535_2229)">
<path d="M69.5 41C64.7 41 46.5 50 38 54.5V55.5L39.5 59H50.5L52 60.5L71.5 54.5L91.5 40.5C86.1667 40.6667 74.3 41 69.5 41Z" fill="white"/>
</g>
<g filter="url(#filter1_f_535_2229)">
<path d="M63.5 46.4999L55 55.4999C56.1667 55.4999 59.6 55.0999 64 53.4999C69.5 51.4999 68 48.9999 68 46.9999C68 45.3999 65 45.9999 63.5 46.4999Z" fill="white"/>
</g>
<g filter="url(#filter2_f_535_2229)">
<path d="M35 100.5L60 97.5L59 101.5L52.5 105L34.5 106.5L35 100.5Z" fill="white"/>
</g>
<g filter="url(#filter3_f_535_2229)">
<path d="M60.5 98L50.5 98.5V105.5L54 104.5L56 102L59 101.5L60.5 98Z" fill="white"/>
</g>
<defs>
<filter id="filter0_f_535_2229" x="-2" y="0.5" width="133.5" height="100" filterUnits="userSpaceOnUse" color-interpolation-filters="sRGB">
<feFlood flood-opacity="0" result="BackgroundImageFix"/>
<feBlend mode="normal" in="SourceGraphic" in2="BackgroundImageFix" result="shape"/>
<feGaussianBlur stdDeviation="20" result="effect1_foregroundBlur_535_2229"/>
</filter>
<filter id="filter1_f_535_2229" x="53" y="43.9619" width="17.1865" height="13.5381" filterUnits="userSpaceOnUse" color-interpolation-filters="sRGB">
<feFlood flood-opacity="0" result="BackgroundImageFix"/>
<feBlend mode="normal" in="SourceGraphic" in2="BackgroundImageFix" result="shape"/>
<feGaussianBlur stdDeviation="1" result="effect1_foregroundBlur_535_2229"/>
</filter>
<filter id="filter2_f_535_2229" x="14.5" y="77.5" width="65.5" height="49" filterUnits="userSpaceOnUse" color-interpolation-filters="sRGB">
<feFlood flood-opacity="0" result="BackgroundImageFix"/>
<feBlend mode="normal" in="SourceGraphic" in2="BackgroundImageFix" result="shape"/>
<feGaussianBlur stdDeviation="10" result="effect1_foregroundBlur_535_2229"/>
</filter>
<filter id="filter3_f_535_2229" x="48.5" y="96" width="14" height="11.5" filterUnits="userSpaceOnUse" color-interpolation-filters="sRGB">
<feFlood flood-opacity="0" result="BackgroundImageFix"/>
<feBlend mode="normal" in="SourceGraphic" in2="BackgroundImageFix" result="shape"/>
<feGaussianBlur stdDeviation="1" result="effect1_foregroundBlur_535_2229"/>
</filter>
</defs>
</svg>
