<svg width="166" height="49" viewBox="0 0 166 49" fill="none" xmlns="http://www.w3.org/2000/svg">
<path d="M154.306 0H10.3727C9.99752 0 9.62232 0 9.2438 0C8.41829 0.0118096 7.5948 0.0838742 6.78012 0.2156C5.97071 0.35047 5.18695 0.606032 4.45589 0.973467C3.72053 1.34334 3.04838 1.82388 2.46369 2.39773C1.8791 2.97188 1.39051 3.63339 1.01602 4.35773C0.638016 5.08721 0.375983 5.86942 0.239064 6.67707C0.101454 7.47701 0.0281791 8.28639 0.019922 9.09767C0 9.47333 0 9.8392 0 10.2116V38.7917C0 39.1673 0 39.5332 0.019922 39.9089C0.0284672 40.7201 0.10174 41.5295 0.239064 42.3295C0.374798 43.1257 0.633451 43.8968 1.00606 44.6161C1.75925 46.0792 2.96323 47.2705 4.44592 48.02C5.1773 48.3881 5.96082 48.6458 6.77016 48.7844C7.58491 48.9151 8.40841 48.986 9.23384 48.9967C9.61236 48.9967 9.98756 48.9967 10.3628 48.9967H155.627C156.002 48.9967 156.384 48.9967 156.76 48.9967C157.583 48.9867 158.404 48.9158 159.217 48.7844C160.033 48.6452 160.824 48.3876 161.564 48.02C162.302 47.654 162.975 47.173 163.556 46.5957C164.144 46.0226 164.635 45.3609 165.011 44.6357C165.38 43.9155 165.636 43.1446 165.771 42.3491C165.908 41.5489 165.985 40.7398 166 39.9285C166 39.5528 166 39.1869 166 38.8113C166 38.3735 166 37.9358 166 37.5046V11.5313C166 11.0871 166 10.6493 166 10.2247C166 9.85227 166 9.47987 166 9.11073C165.985 8.29937 165.909 7.49025 165.771 6.69013C165.635 5.8949 165.378 5.12417 165.011 4.40347C164.258 2.93614 163.056 1.73857 161.574 0.98C160.834 0.616335 160.043 0.364162 159.227 0.231933C158.414 0.0994913 157.593 0.0274209 156.769 0.0163333C156.394 0.0163333 156.012 0.0163333 155.637 0.0163333L154.306 0Z" fill="#D9DADA"/>
<path d="M10.3797 47.9416C10.0045 47.9416 9.63931 47.9416 9.26743 47.9416C8.49769 47.9318 7.72973 47.8663 6.96976 47.7456C6.26237 47.6273 5.57655 47.4072 4.9344 47.0923C3.65859 46.4489 2.61945 45.4289 1.9627 44.1751C1.6395 43.5434 1.4156 42.8672 1.29863 42.1694C1.17168 41.42 1.10396 40.662 1.09609 39.9023C1.09609 39.6475 1.07617 38.7982 1.07617 38.7982V10.2116C1.07617 10.2116 1.07617 9.37531 1.09609 9.13031C1.10184 8.36956 1.16845 7.61044 1.29531 6.85998C1.41076 6.15975 1.63472 5.4811 1.95938 4.84771C2.28212 4.22444 2.70478 3.65639 3.21115 3.16537C3.71687 2.66731 4.29823 2.24963 4.9344 1.92731C5.57512 1.61173 6.25995 1.39155 6.96644 1.27397C7.72837 1.1507 8.49865 1.08409 9.27075 1.07471H10.3797H155.631H156.753C157.519 1.08115 158.283 1.14668 159.038 1.27071C159.751 1.38587 160.443 1.60612 161.09 1.92404C162.368 2.57299 163.407 3.60164 164.058 4.86404C164.38 5.49262 164.604 6.16554 164.722 6.85998C164.85 7.61606 164.921 8.38033 164.935 9.14664C164.935 9.48964 164.935 9.85878 164.935 10.2246C164.935 10.6787 164.935 11.1099 164.935 11.5313V37.4687C164.935 37.9097 164.935 38.3376 164.935 38.7753C164.935 39.2131 164.935 39.5299 164.935 39.9023C164.923 40.6534 164.853 41.4026 164.725 42.1433C164.612 42.846 164.388 43.5271 164.061 44.1621C163.402 45.4111 162.365 46.428 161.093 47.0727C160.447 47.391 159.757 47.6112 159.044 47.726C158.284 47.8474 157.516 47.9129 156.747 47.922C156.388 47.922 156.009 47.922 155.644 47.922H10.3797V47.9416Z" fill="black"/>
<path d="M61.1603 35.017H61.6244V23.3798H60.174V28.8266L60.3287 32.1542L52.4579 23.3984H51.9551V34.9984H53.3861V29.4215L53.2701 26.2426L61.1603 35.017ZM72.338 32.1356L73.7497 34.9984H75.2388V34.8125L69.6693 23.3426H69.0118L63.3842 34.8125V34.9984H64.8926L66.3043 32.1356H72.338ZM69.3212 25.5176L71.8545 30.9459H66.7878L69.3212 25.5176ZM75.993 31.8382C76.0704 34.2177 78.6037 35.2587 80.847 35.2029C83.0323 35.1472 85.527 34.2548 85.527 31.7638C85.527 29.1984 83.2837 28.7708 80.8857 28.5106C79.4159 28.3247 77.6755 28.2689 77.6755 26.5401C77.6755 25.0157 79.3386 24.4766 80.6536 24.4394C82.0267 24.4394 83.6511 24.9041 83.7865 26.3727H85.1402C85.0628 24.1234 82.7035 23.1381 80.6149 23.1939C78.4877 23.1939 76.2251 24.2721 76.2251 26.5586C76.2251 28.8824 78.4297 29.4215 80.6149 29.6446C82.2587 29.8676 84.0766 29.8862 84.0766 31.7638C84.0185 33.4555 82.2394 33.9388 80.8083 33.9946C79.3193 33.9946 77.4627 33.3997 77.366 31.8382H75.9737H75.993ZM97.1882 34.9984V23.3984H95.7378V28.2875H89.356V23.3984H87.9249V34.9984H89.356V29.5516H95.7378V34.9984H97.1882ZM102.468 31.4478C101.423 31.4478 100.514 31.4478 99.4894 31.4478C99.4121 36.56 109.255 36.4299 109.255 31.5407C109.255 28.6407 106.915 28.3433 104.517 28.083C103.435 27.9715 102.526 27.7856 102.603 26.9119C102.7 25.5362 105.949 25.4061 105.949 26.949C106.993 26.949 107.786 26.949 108.888 26.949C108.965 21.9484 99.5668 21.9484 99.6828 26.949C99.7215 29.4773 101.443 30.3324 104.073 30.5183C105.272 30.5926 106.277 30.7228 106.277 31.5221C106.277 32.8792 102.506 32.9164 102.506 31.4478H102.468ZM113.278 26.0381V34.9984C114.303 34.9984 115.308 34.9984 116.333 34.9984V26.0381H119.292C119.292 25.1458 119.292 24.2721 119.292 23.3798H110.319C110.319 24.2535 110.319 25.1458 110.319 26.0381H113.278ZM132.849 29.1984C132.849 21.1676 120.453 21.1676 120.453 29.1984C120.453 37.2478 132.849 37.2478 132.849 29.1984ZM123.643 29.1984C123.643 25.0157 129.696 25.0157 129.696 29.1984C129.696 33.4183 123.643 33.4183 123.643 29.1984ZM143.021 30.8715C146.076 28.8824 145.206 23.3984 140.468 23.3798C138.708 23.3798 136.91 23.3798 135.169 23.3798C135.169 27.2651 135.169 31.1317 135.169 34.9798C136.175 34.9798 137.219 34.9798 138.263 34.9798V31.5593H139.869L141.938 34.9798H145.38V34.5523L143.021 30.8715ZM140.468 28.901H138.263C138.263 27.9715 138.263 26.9862 138.263 26.0381C138.979 26.0381 139.752 26.0195 140.468 26.0381C142.228 26.0567 142.15 28.901 140.468 28.901ZM154.779 23.3798C151.955 23.3798 150.041 23.3798 147.237 23.3798C147.237 27.2279 147.237 31.1132 147.237 34.9798C150.041 34.9798 152.11 34.9798 154.933 34.9798C154.933 34.1061 154.933 33.2138 154.933 32.3401C153.115 32.3401 152.091 32.3401 150.311 32.3401C150.311 31.6523 150.311 30.983 150.311 30.2952H154.411C154.411 29.4215 154.411 28.5292 154.411 27.6554H150.311V26.0195C152.091 26.0195 152.98 26.0195 154.779 26.0195C154.779 25.1272 154.779 24.2349 154.779 23.3612V23.3798Z" fill="white"/>
<path d="M38.1145 12.4264C38.2422 12.2434 38.089 11.9917 37.8338 11.9917H32.5503C32.295 11.9917 32.1419 12.2205 32.2695 12.4264L34.8985 16.5222C35.0261 16.7052 35.3324 16.7052 35.46 16.5222L38.1145 12.4264Z" fill="#AE2B30"/>
<path d="M32.5254 35.3971C32.3977 35.5801 32.5509 35.8318 32.8061 35.8318H38.0896C38.3449 35.8318 38.498 35.603 38.3704 35.3971L35.7159 31.3013C35.5883 31.1183 35.282 31.1183 35.1544 31.3013L32.4998 35.3971H32.5254Z" fill="#AE2B30"/>
<path d="M42.0478 17.1394C42.303 17.1394 42.4562 16.9106 42.3285 16.7047L39.674 12.609C39.5464 12.4259 39.2401 12.4259 39.1125 12.609L36.458 16.7047C36.3304 16.8877 36.4835 17.1394 36.7387 17.1394H42.0222H42.0478Z" fill="#AE2B30"/>
<path d="M39.1133 22.5153C39.241 22.6984 39.5472 22.6984 39.6749 22.5153L42.3294 18.4196C42.457 18.2366 42.3039 17.9849 42.0486 17.9849H36.7651C36.5099 17.9849 36.3567 18.2137 36.4843 18.4196L39.1389 22.5153H39.1133Z" fill="#AE2B30"/>
<path d="M46.0282 23.3401C46.2835 23.3401 46.4366 23.1113 46.309 22.9054L43.6545 18.8097C43.5269 18.6266 43.2206 18.6266 43.093 18.8097L40.4384 22.9054C40.3108 23.0884 40.464 23.3401 40.7192 23.3401H46.0027H46.0282Z" fill="#AE2B30"/>
<path d="M43.1182 28.7165C43.2458 28.8996 43.5521 28.8996 43.6797 28.7165L46.3343 24.6208C46.4619 24.4377 46.3087 24.186 46.0535 24.186H40.77C40.5148 24.186 40.3616 24.4148 40.4892 24.6208L43.1437 28.7165H43.1182Z" fill="#AE2B30"/>
<path d="M36.4843 29.1285C36.3567 29.3116 36.5099 29.5633 36.7651 29.5633H42.0486C42.3039 29.5633 42.457 29.3345 42.3294 29.1285L39.6749 25.0328C39.5472 24.8497 39.241 24.8497 39.1133 25.0328L36.4588 29.1285H36.4843Z" fill="#AE2B30"/>
<path d="M39.1133 34.9177C39.241 35.1007 39.5472 35.1007 39.6749 34.9177L42.3294 30.8219C42.457 30.6389 42.3039 30.3872 42.0486 30.3872H36.7651C36.5099 30.3872 36.3567 30.616 36.4843 30.8219L39.1389 34.9177H39.1133Z" fill="#AE2B30"/>
<path d="M27.6263 12.173C27.7539 11.99 27.6007 11.7383 27.3455 11.7383H22.062C21.8067 11.7383 21.6536 11.9671 21.7812 12.173L24.4102 16.2688C24.5378 16.4518 24.8441 16.4518 24.9717 16.2688L27.6263 12.173Z" fill="#363789"/>
<path d="M21.6552 35.3756C21.5276 35.5586 21.6808 35.8103 21.936 35.8103H27.2195C27.4748 35.8103 27.6279 35.5815 27.5003 35.3756L24.8458 31.2799C24.7181 31.0968 24.4119 31.0968 24.2842 31.2799L21.6297 35.3756H21.6552Z" fill="#363789"/>
<path d="M31.4784 17.1155C31.7337 17.1155 31.8868 16.8867 31.7592 16.6808L29.1047 12.585C28.9771 12.402 28.6708 12.402 28.5432 12.585L25.8886 16.6808C25.761 16.8638 25.9142 17.1155 26.1694 17.1155H31.4529H31.4784Z" fill="#363789"/>
<path d="M28.545 22.4704C28.6726 22.6535 28.9789 22.6535 29.1065 22.4704L31.761 18.3747C31.8886 18.1916 31.7355 17.9399 31.4803 17.9399H26.1968C25.9415 17.9399 25.7884 18.1688 25.916 18.3747L28.5705 22.4704H28.545Z" fill="#363789"/>
<path d="M35.4618 23.3177C35.7171 23.3177 35.8702 23.0888 35.7426 22.8829L33.0881 18.7872C32.9605 18.6041 32.6542 18.6041 32.5266 18.7872L29.872 22.8829C29.7444 23.066 29.8976 23.3177 30.1528 23.3177H35.4363H35.4618Z" fill="#363789"/>
<path d="M32.5538 28.6711C32.6814 28.8541 32.9877 28.8541 33.1153 28.6711L35.7698 24.5754C35.8974 24.3923 35.7443 24.1406 35.489 24.1406H30.2055C29.9503 24.1406 29.7972 24.3694 29.9248 24.5754L32.5793 28.6711H32.5538Z" fill="#363789"/>
<path d="M25.916 29.0831C25.7884 29.2662 25.9415 29.5179 26.1968 29.5179H31.4803C31.7355 29.5179 31.8886 29.289 31.761 29.0831L29.1065 24.9874C28.9789 24.8043 28.6726 24.8043 28.545 24.9874L25.8905 29.0831H25.916Z" fill="#363789"/>
<path d="M28.545 34.8728C28.6726 35.0558 28.9789 35.0558 29.1065 34.8728L31.761 30.777C31.8886 30.594 31.7355 30.3423 31.4803 30.3423H26.1968C25.9415 30.3423 25.7884 30.5711 25.916 30.777L28.5705 34.8728H28.545Z" fill="#363789"/>
<path d="M17.469 12.0138C17.5966 11.8308 17.4435 11.5791 17.1883 11.5791H11.9048C11.6495 11.5791 11.4964 11.8079 11.624 12.0138L14.253 16.1096C14.3806 16.2926 14.6869 16.2926 14.8145 16.1096L17.469 12.0138Z" fill="#D9DADA"/>
<path d="M11.1123 35.2149C10.9847 35.398 11.1378 35.6497 11.393 35.6497H16.6765C16.9318 35.6497 17.0849 35.4209 16.9573 35.2149L14.3028 31.1192C14.1752 30.9362 13.8689 30.9362 13.7413 31.1192L11.0868 35.2149H11.1123Z" fill="#D9DADA"/>
<path d="M21.4735 16.9563C21.7288 16.9563 21.8819 16.7275 21.7543 16.5216L19.0998 12.4259C18.9722 12.2428 18.6659 12.2428 18.5383 12.4259L15.8838 16.5216C15.7561 16.7046 15.9093 16.9563 16.1645 16.9563H21.448H21.4735Z" fill="#D9DADA"/>
<path d="M18.002 22.3098C18.1296 22.4928 18.4359 22.4928 18.5635 22.3098L21.218 18.214C21.3457 18.031 21.1925 17.7793 20.9373 17.7793H15.6538C15.3985 17.7793 15.2454 18.0081 15.373 18.214L18.0275 22.3098H18.002Z" fill="#D9DADA"/>
<path d="M24.9218 23.1565C25.177 23.1565 25.3302 22.9277 25.2026 22.7218L22.548 18.6261C22.4204 18.443 22.1141 18.443 21.9865 18.6261L19.332 22.7218C19.2044 22.9048 19.3575 23.1565 19.6128 23.1565H24.8963H24.9218Z" fill="#D9DADA"/>
<path d="M22.0108 28.5119C22.1384 28.695 22.4447 28.695 22.5723 28.5119L25.2268 24.4162C25.3545 24.2331 25.2013 23.9814 24.9461 23.9814H19.6626C19.4073 23.9814 19.2542 24.2103 19.3818 24.4162L22.0363 28.5119H22.0108Z" fill="#D9DADA"/>
<path d="M15.373 28.9234C15.2454 29.1065 15.3985 29.3582 15.6538 29.3582H20.9373C21.1925 29.3582 21.3457 29.1294 21.218 28.9234L18.5635 24.8277C18.4359 24.6447 18.1296 24.6447 18.002 24.8277L15.3475 28.9234H15.373Z" fill="#D9DADA"/>
<path d="M18.002 34.7116C18.1296 34.8947 18.4359 34.8947 18.5635 34.7116L21.218 30.6159C21.3457 30.4328 21.1925 30.1812 20.9373 30.1812H15.6538C15.3985 30.1812 15.2454 30.41 15.373 30.6159L18.0275 34.7116H18.002Z" fill="#D9DADA"/>
<path d="M55.0512 19.5999C54.4101 19.5999 53.8288 19.4554 53.3074 19.1664C52.7921 18.8712 52.3846 18.466 52.085 17.9509C51.7913 17.4295 51.6445 16.8421 51.6445 16.1887C51.6445 15.5354 51.7913 14.9512 52.085 14.4361C52.3846 13.9146 52.7921 13.5095 53.3074 13.2205C53.8288 12.9252 54.4131 12.7776 55.0602 12.7776C55.6056 12.7776 56.0969 12.8781 56.5344 13.0791C56.9778 13.2802 57.3494 13.5691 57.649 13.9461L56.7142 14.8507C56.2887 14.3355 55.7614 14.078 55.1321 14.078C54.7426 14.078 54.3951 14.1691 54.0895 14.3512C53.7838 14.5271 53.5441 14.7753 53.3704 15.0957C53.2026 15.4161 53.1187 15.7804 53.1187 16.1887C53.1187 16.5971 53.2026 16.9614 53.3704 17.2818C53.5441 17.6022 53.7838 17.8535 54.0895 18.0357C54.3951 18.2116 54.7426 18.2995 55.1321 18.2995C55.7614 18.2995 56.2887 18.0388 56.7142 17.5174L57.649 18.422C57.3494 18.8052 56.9778 19.0973 56.5344 19.2984C56.0909 19.4994 55.5966 19.5999 55.0512 19.5999Z" fill="white"/>
<path d="M61.034 16.8295H60.0273V19.4868H58.5801V12.8907H60.0273V15.5574H61.07L62.7239 12.8907H64.2609L62.2025 16.0757L64.3239 19.4868H62.6699L61.034 16.8295Z" fill="white"/>
<path d="M69.1438 18.0734H66.2224L65.6651 19.4868H64.173L66.9775 12.8907H68.4157L71.2292 19.4868H69.7011L69.1438 18.0734ZM68.6854 16.9143L67.6876 14.3889L66.6899 16.9143H68.6854Z" fill="white"/>
<path d="M76.7581 12.8907V19.4868H75.3199V17.1122C74.7745 17.3195 74.2682 17.4232 73.8008 17.4232C72.9558 17.4232 72.3086 17.2127 71.8592 16.7918C71.4098 16.3646 71.1851 15.7521 71.1851 14.9543V12.8907H72.6232V14.7847C72.6232 15.237 72.7371 15.5794 72.9648 15.8118C73.1985 16.038 73.5341 16.1511 73.9716 16.1511C74.4509 16.1511 74.9004 16.0537 75.3199 15.8589V12.8907H76.7581Z" fill="white"/>
<path d="M82.5829 18.0734H79.6616L79.1043 19.4868H77.6122L80.4167 12.8907H81.8549L84.6683 19.4868H83.1402L82.5829 18.0734ZM82.1245 16.9143L81.1268 14.3889L80.129 16.9143H82.1245Z" fill="white"/>
<path d="M85.5027 12.8907H86.9499V17.1876L89.9521 12.8907H91.3184V19.4868H89.8802V15.1993L86.878 19.4868H85.5027V12.8907ZM88.4061 12.4666C87.2555 12.4666 86.6742 11.9861 86.6623 11.0249H87.66C87.672 11.4835 87.9207 11.7128 88.4061 11.7128C88.6458 11.7128 88.8285 11.6562 88.9544 11.5432C89.0802 11.4238 89.1461 11.2511 89.1521 11.0249H90.1499C90.1439 11.4961 89.9971 11.8541 89.7094 12.0991C89.4218 12.3441 88.9873 12.4666 88.4061 12.4666Z" fill="white"/>
<path d="M100.599 12.8907V19.4868H99.161V17.1122C98.6157 17.3195 98.1093 17.4232 97.6419 17.4232C96.797 17.4232 96.1498 17.2127 95.7003 16.7918C95.2509 16.3646 95.0262 15.7521 95.0262 14.9543V12.8907H96.4644V14.7847C96.4644 15.237 96.5782 15.5794 96.8059 15.8118C97.0396 16.038 97.3752 16.1511 97.8127 16.1511C98.2921 16.1511 98.7415 16.0537 99.161 15.8589V12.8907H100.599Z" fill="white"/>
<path d="M107.035 18.2618V19.4868H102.163V12.8907H106.918V14.1157H103.611V15.548H106.532V16.7353H103.611V18.2618H107.035Z" fill="white"/>
<path d="M110.935 12.8907C111.492 12.8907 111.975 12.988 112.382 13.1828C112.796 13.3775 113.113 13.6539 113.335 14.012C113.557 14.3701 113.668 14.7941 113.668 15.2841C113.668 15.7679 113.557 16.1919 113.335 16.5562C113.113 16.9143 112.796 17.1907 112.382 17.3855C111.975 17.5739 111.492 17.6682 110.935 17.6682H109.668V19.4868H108.211V12.8907H110.935ZM110.854 16.4243C111.292 16.4243 111.624 16.327 111.852 16.1322C112.08 15.9312 112.193 15.6485 112.193 15.2841C112.193 14.9135 112.08 14.6308 111.852 14.4361C111.624 14.235 111.292 14.1345 110.854 14.1345H109.668V16.4243H110.854Z" fill="white"/>
<path d="M119.5 18.2618V19.4868H114.628V12.8907H119.383V14.1157H116.075V15.548H118.997V16.7353H116.075V18.2618H119.5Z" fill="white"/>
<path d="M124.254 16.0474C124.619 16.1793 124.904 16.3866 125.108 16.6693C125.317 16.9457 125.422 17.2693 125.422 17.6399C125.422 18.042 125.296 18.3906 125.045 18.6859C124.793 18.9811 124.452 19.2073 124.02 19.3643C123.595 19.5214 123.127 19.5999 122.618 19.5999C122.186 19.5999 121.755 19.5434 121.323 19.4303C120.898 19.3172 120.494 19.1445 120.11 18.912L120.559 17.8189C120.835 17.9948 121.138 18.1299 121.467 18.2241C121.803 18.3121 122.129 18.3561 122.447 18.3561C122.879 18.3561 123.235 18.2744 123.517 18.1111C123.804 17.9477 123.948 17.7184 123.948 17.4232C123.948 17.1782 123.849 16.9929 123.652 16.8672C123.46 16.7416 123.196 16.6787 122.861 16.6787H121.323V15.5291H122.753C123.046 15.5291 123.274 15.4663 123.436 15.3407C123.604 15.215 123.688 15.0423 123.688 14.8224C123.688 14.5648 123.568 14.3638 123.328 14.2193C123.094 14.0748 122.792 14.0026 122.42 14.0026C122.144 14.0026 121.86 14.0434 121.566 14.1251C121.273 14.2005 120.994 14.3167 120.73 14.4737L120.29 13.2864C120.955 12.9284 121.674 12.7493 122.447 12.7493C122.938 12.7493 123.391 12.8247 123.804 12.9755C124.218 13.1262 124.547 13.3461 124.793 13.6351C125.039 13.9241 125.162 14.2602 125.162 14.6434C125.162 14.9575 125.081 15.237 124.919 15.482C124.757 15.727 124.535 15.9155 124.254 16.0474Z" fill="white"/>
</svg>
