<?xml version="1.0" standalone="no"?>
<!DOCTYPE svg PUBLIC "-//W3C//DTD SVG 20010904//EN"
 "http://www.w3.org/TR/2001/REC-SVG-20010904/DTD/svg10.dtd">
<svg version="1.0" xmlns="http://www.w3.org/2000/svg"
 width="520.000000pt" height="520.000000pt" viewBox="0 0 520.000000 520.000000"
 preserveAspectRatio="xMidYMid meet">
<metadata>
Created by potrace 1.14, written by Peter Selinger 2001-2017
</metadata>
<g transform="translate(0.000000,520.000000) scale(0.100000,-0.100000)"
fill="#000000" stroke="none">
<path d="M0 2605 l0 -2535 2600 0 2600 0 0 2535 0 2535 -2600 0 -2600 0 0
-2535z m2643 1379 c18 -9 237 -139 487 -289 250 -149 685 -408 965 -575 281
-166 522 -311 536 -321 15 -10 32 -31 38 -46 8 -20 11 -235 9 -788 l-3 -760
-285 0 -285 0 2 30 c0 17 7 167 14 335 14 347 7 429 -50 545 -29 59 -104 140
-176 191 l-30 21 85 28 c165 54 220 92 220 150 0 83 -121 127 -247 90 -73 -22
-97 -45 -118 -114 -10 -34 -22 -61 -26 -61 -18 0 -112 171 -138 252 -28 86
-114 167 -205 193 -135 39 -617 70 -961 62 -254 -6 -647 -38 -720 -58 -102
-28 -178 -100 -220 -208 -32 -83 -118 -243 -130 -244 -6 0 -16 18 -23 39 -31
90 -42 105 -85 124 -132 59 -287 19 -287 -75 0 -58 57 -97 223 -151 48 -15 87
-31 87 -35 0 -3 -27 -23 -59 -43 -111 -68 -172 -164 -198 -313 -14 -77 -14
-125 -4 -393 7 -168 13 -318 14 -335 l2 -30 -285 0 -285 0 -3 750 c-2 511 1
762 8 787 6 20 23 46 38 56 15 11 234 142 487 292 253 150 687 409 965 575
278 166 519 309 535 318 39 21 68 21 108 1z m252 -1144 c188 -13 423 -40 455
-52 74 -27 133 -94 213 -239 46 -82 48 -115 10 -123 -92 -18 -407 -58 -573
-72 -370 -32 -932 -22 -1280 22 -134 17 -150 21 -150 38 0 23 41 140 76 216
66 143 117 172 340 194 82 9 172 17 199 19 117 8 581 6 710 -3z m1083 -859
c-5 -91 -38 -143 -113 -177 -72 -33 -174 -54 -266 -54 -87 0 -121 18 -146 78
-13 31 -13 37 1 51 13 12 484 167 520 170 4 1 7 -30 4 -68z m-2505 -12 c128
-39 240 -79 250 -89 17 -16 17 -20 4 -52 -8 -19 -27 -45 -43 -57 -27 -22 -36
-23 -134 -18 -234 12 -350 88 -350 232 0 49 2 55 21 55 11 0 125 -32 252 -71z
m835 -166 l3 -93 94 0 95 0 0 95 0 95 90 0 89 0 3 -96 3 -96 90 -2 90 -1 3
-98 3 -98 -93 3 -93 3 -3 93 -3 92 -89 0 -89 0 -3 -92 -3 -93 -92 -3 -93 -3 0
95 0 95 -92 3 -93 3 -3 84 c-2 46 0 91 2 98 4 11 26 13 93 11 l88 -3 3 -92z
m750 0 l-3 -98 -92 -3 -93 -3 0 94 c0 51 3 97 7 100 3 4 46 7 95 7 l89 0 -3
-97z"/>
</g>
</svg>
