<svg width="144" height="144" viewBox="0 0 144 144" fill="none" xmlns="http://www.w3.org/2000/svg">
<path d="M126.655 25.1995L70.2009 81.6541L52.8557 61.8547C49.2557 57.7638 43.0369 57.4362 38.946 61.0363C34.8551 64.6363 34.5276 70.855 38.1276 74.9459L62.5097 102.601C64.3098 104.564 66.9282 105.873 69.5455 105.873H69.8731C72.4916 105.873 74.9455 104.892 76.7458 102.928L140.564 39.1102C144.327 35.3468 144.327 29.1283 140.564 25.2005C136.802 21.436 130.583 21.436 126.656 25.1993L126.655 25.1995Z" fill="url(#paint0_linear_348_3082)"/>
<path d="M134.182 62.1809C128.782 62.1809 124.364 66.5994 124.364 71.9997C124.364 74.2906 124.2 76.5815 123.873 78.8724C120.6 104.727 98.1824 124.363 72 124.363C43.2003 124.363 19.6364 100.799 19.6364 71.9997C19.6364 43.2 43.2003 19.6361 72 19.6361C81.3278 19.6361 90.4912 22.0901 98.3454 26.8364C103.09 29.618 108.981 27.9824 111.764 23.3994C114.546 18.6545 112.91 12.7636 108.327 9.98065C97.3636 3.43578 84.7633 0 72 0C32.2364 0 0 32.2364 0 72C0 111.764 32.2364 144 72 144C108 144 138.764 117.164 143.345 81.3273C143.673 78.2179 143.999 75.1088 143.999 71.9994C143.999 66.6003 139.582 62.1818 134.182 62.1818L134.182 62.1809Z" fill="url(#paint1_linear_348_3082)"/>
<defs>
<linearGradient id="paint0_linear_348_3082" x1="35.6367" y1="22.377" x2="116.49" y2="126.716" gradientUnits="userSpaceOnUse">
<stop stop-color="#BE94FF"/>
<stop offset="1" stop-color="#6500FF"/>
</linearGradient>
<linearGradient id="paint1_linear_348_3082" x1="0" y1="0" x2="144" y2="143.999" gradientUnits="userSpaceOnUse">
<stop stop-color="#BE94FF"/>
<stop offset="1" stop-color="#6500FF"/>
</linearGradient>
</defs>
</svg>
