<svg width="150" height="104" viewBox="0 0 150 104" fill="none" xmlns="http://www.w3.org/2000/svg">
<g filter="url(#filter0_f_532_2225)">
<path d="M81.5 41.5L45.5 42.5L46.5 44L83.5 43.5L81.5 41.5Z" fill="#FF0000"/>
<path d="M81.5 46H56C56.5 46 74.5 50 77.5 50.5C79.9 50.9 86.5 56.3333 89.5 59C89.8333 57.5 90.5 54.3 90.5 53.5C90.5 52.7 84.5 48.1667 81.5 46Z" fill="#FF0000"/>
<path d="M92.5 51.5L86 45.5H99.5C103.1 45.5 101 49.5 99.5 51.5H92.5Z" fill="#FF0000"/>
</g>
<g filter="url(#filter1_f_532_2225)">
<path d="M98.4985 40L40.9985 40.5C40.1985 42.9 47.9985 45.8333 51.9985 47C56.6652 47.6667 67.4985 49.2 73.4985 50C79.4985 50.8 87.9985 59.3333 91.4985 63.5C98.6652 61.1667 113.399 56.3 114.999 55.5C116.999 54.5 117.499 49 116.499 45C115.699 41.8 104.165 40.3333 98.4985 40Z" fill="#FF0000"/>
</g>
<g filter="url(#filter2_f_532_2225)">
<path d="M95.5003 53.9998L114.5 52.4998C115.701 52.4051 115 54.127 114.5 54.9998C107.834 56.9998 93.9003 61.0998 91.5003 61.4998C89.1003 61.8998 93.167 56.6665 95.5003 53.9998Z" fill="white"/>
</g>
<g filter="url(#filter3_f_532_2225)">
<path d="M95.5003 53.9998L114.5 52.4998C115.701 52.4051 115 54.127 114.5 54.9998C107.834 56.9998 93.9003 61.0998 91.5003 61.4998C89.1003 61.8998 93.167 56.6665 95.5003 53.9998Z" fill="white"/>
</g>
<defs>
<filter id="filter0_f_532_2225" x="43.5" y="39.5" width="59.9873" height="21.5" filterUnits="userSpaceOnUse" color-interpolation-filters="sRGB">
<feFlood flood-opacity="0" result="BackgroundImageFix"/>
<feBlend mode="normal" in="SourceGraphic" in2="BackgroundImageFix" result="shape"/>
<feGaussianBlur stdDeviation="1" result="effect1_foregroundBlur_532_2225"/>
</filter>
<filter id="filter1_f_532_2225" x="0.941406" y="0" width="156.058" height="103.5" filterUnits="userSpaceOnUse" color-interpolation-filters="sRGB">
<feFlood flood-opacity="0" result="BackgroundImageFix"/>
<feBlend mode="normal" in="SourceGraphic" in2="BackgroundImageFix" result="shape"/>
<feGaussianBlur stdDeviation="20" result="effect1_foregroundBlur_532_2225"/>
</filter>
<filter id="filter2_f_532_2225" x="88.7676" y="50.4961" width="28.3955" height="13.0254" filterUnits="userSpaceOnUse" color-interpolation-filters="sRGB">
<feFlood flood-opacity="0" result="BackgroundImageFix"/>
<feBlend mode="normal" in="SourceGraphic" in2="BackgroundImageFix" result="shape"/>
<feGaussianBlur stdDeviation="1" result="effect1_foregroundBlur_532_2225"/>
</filter>
<filter id="filter3_f_532_2225" x="69.7676" y="31.4961" width="66.3955" height="51.0254" filterUnits="userSpaceOnUse" color-interpolation-filters="sRGB">
<feFlood flood-opacity="0" result="BackgroundImageFix"/>
<feBlend mode="normal" in="SourceGraphic" in2="BackgroundImageFix" result="shape"/>
<feGaussianBlur stdDeviation="10.5" result="effect1_foregroundBlur_532_2225"/>
</filter>
</defs>
</svg>
