<svg width="150" height="150" viewBox="0 0 150 150" fill="none" xmlns="http://www.w3.org/2000/svg">
<rect width="150" height="150" fill="#27282E"/>
<path d="M129.04 71.8092L130.5 67.2024L125.669 67.3517C125.261 67.3517 122.294 67.2688 119.415 65.2119C119.63 65.2326 119.844 65.2618 120.063 65.2618C123.026 65.2618 125.892 63.5035 127.041 60.9906L129.12 56.45C126.515 56.4833 124.133 56.1598 124.133 56.1598C124.111 56.1557 122.235 55.9194 120.063 53.7342C118.506 52.1667 116.579 51.3373 114.491 51.3373C113.578 51.3373 112.761 51.4991 112.059 51.719C112.168 51.3498 112.273 50.9765 112.332 50.5909C112.997 46.3409 110.22 43.0981 110.22 43.1024L106.588 38.6695L104.336 43.8778C104.328 43.8944 103.759 45.1134 102.741 45.7106C102.434 44.1805 101.681 42.4596 100.069 40.8133C97.0303 37.7116 93.331 37.2515 91.3953 37.2515C90.4988 37.2515 89.8591 37.3468 89.7034 37.3718L85.3181 38.2218C85.5707 37.2556 86.1093 35.5763 87.0941 34.0626L89.5141 30.3473L83.4242 31.0315L81.4842 26.9721L77.7303 28.8795L74.2584 25.5L70.795 28.8795L67.0282 26.9721L65.0924 31.0315L59.007 30.3473L61.4312 34.0626C62.4159 35.5763 62.9546 37.2515 63.2029 38.2175L59.0198 37.4048L58.8765 37.3799C58.6661 37.3468 58.0308 37.2515 57.1299 37.2515C55.1943 37.2515 51.495 37.7159 48.4649 40.8133C46.8487 42.4553 46.0955 44.1805 45.7841 45.7106C44.7741 45.1217 44.2102 43.9191 44.2102 43.9191L41.9544 38.6821L38.2636 43.1437C37.8134 43.7202 35.5871 46.7677 36.1929 50.5993C36.2563 50.9808 36.3573 51.3539 36.4667 51.7229C35.7682 51.5032 34.9514 51.3416 34.0383 51.3416C31.9511 51.3416 30.0235 52.171 28.4622 53.7383C26.2989 55.9153 24.4306 56.1598 24.4473 56.1598C24.4473 56.1598 22.4734 56.5083 19.4182 56.4543L21.4847 60.9949C22.6334 63.5119 25.5037 65.2657 28.4622 65.2657C28.6852 65.2657 28.8998 65.2368 29.1187 65.216C26.2484 67.2727 23.2816 67.3556 22.924 67.3599L18 67.2024L19.4898 71.8051C20.2389 74.1769 22.7428 78.1079 27.5404 78.5309C27.0186 80.6869 25.8614 83.1002 23.3195 84.1411L19.654 85.6298L21.6529 89.0591C22.7807 90.9086 25.4279 93.073 29.1986 93.073C30.015 93.0687 30.8019 92.9901 31.5597 92.8326C31.7531 93.6783 31.9972 94.5241 32.2834 95.3619C33.4071 98.6541 32.439 100.952 32.4265 100.976L30.6168 104.712L34.6569 105.762C34.7074 105.778 35.9278 106.106 37.4555 106.106C38.1501 106.106 38.8107 106.035 39.4337 105.89C39.905 105.782 40.3552 105.637 40.7886 105.463C41.3105 106.388 41.9461 107.229 42.6868 107.984C45.2748 110.601 48.9403 111.927 53.5866 111.927H53.6034L56.9197 111.886L50.0684 114.689L55.2699 117.165C57.1596 118.073 59.4028 119.147 61.6834 119.968L61.0355 121.718L62.8282 122.522C62.9883 122.593 66.4349 124.114 72.167 124.438C72.167 124.438 73.5514 124.5 74.3131 124.5C75.0749 124.5 76.4426 124.434 76.4426 124.434C82.1365 124.102 85.5581 122.597 85.7182 122.522L87.5149 121.713L86.8584 119.959C89.2068 119.113 91.5299 117.998 93.3395 117.127L98.4443 114.685L91.614 111.878L94.943 111.919C99.5932 111.919 103.263 110.592 105.847 107.972C106.584 107.221 107.219 106.379 107.745 105.455C108.179 105.629 108.633 105.774 109.104 105.882C109.723 106.027 110.384 106.097 111.078 106.097C112.58 106.097 113.813 105.77 113.847 105.762L117.904 104.704L116.136 101.038C116.095 100.943 115.127 98.6502 116.25 95.3535C116.537 94.5118 116.776 93.6658 116.97 92.8241C117.732 92.9818 118.527 93.0646 119.348 93.0646C124.149 93.0646 126.452 89.7349 126.898 89.0133L128.876 85.6216L125.21 84.1372C122.664 83.0963 121.511 80.6787 120.993 78.5268C125.723 78.1286 128.265 74.1976 129.04 71.8092ZM63.5228 39.8058L63.4723 39.8182L63.5141 39.7642L63.5228 39.8058Z" fill="white"/>
<path d="M74.2499 39C70.7218 39.0045 68.0777 40.3428 67.5 41.9159L74.2499 45L81 41.9159C80.4261 40.3428 77.7818 39.0045 74.2499 39Z" fill="white"/>
<path d="M75.0749 116.369H75.0665H75.004H74.9333H74.9292C72.6022 116.385 69.4008 115.928 67.8565 115.5L66 120.29C67.2237 120.706 71.37 121.5 75.004 121.5C78.6298 121.5 82.7803 120.702 84 120.29L82.1476 115.5C80.5987 115.933 77.4017 116.385 75.0749 116.369Z" fill="white"/>
<path d="M88.0458 111C86.8214 111.882 84.0893 113.206 82.5 113.821L83.8347 118.5C86.2943 117.646 88.3223 116.646 90 115.576L87.2307 114.403L88.0458 111Z" fill="white"/>
<path d="M60.4552 111L61.2742 114.403L58.5 115.576C60.1749 116.646 62.215 117.646 64.6644 118.5L66 113.821C64.4174 113.206 61.68 111.878 60.4552 111Z" fill="white"/>
<path d="M74.2441 34.2641C76.9672 34.2641 79.6396 34.8931 81.6927 36C81.8809 35.3897 82.1433 34.6505 82.5 33.8775L81.7241 33.9683L80.9091 34.0517L80.5642 33.3354L79.5261 31.2129L77.6334 32.1681L76.8969 32.5319L76.309 31.9709L74.2518 30L72.1988 31.9709L71.6109 32.5319L70.8743 32.1681L68.9701 31.2129L67.9436 33.3354L67.5907 34.0517L66.7757 33.9683L66 33.8775C66.3565 34.6544 66.6153 35.3897 66.8071 36C68.8642 34.8931 71.5287 34.2641 74.2441 34.2641Z" fill="white"/>
<path d="M118.899 61.3024C119.327 61.4386 119.765 61.5 120.198 61.5C122.068 61.5 123.877 60.3841 124.5 59.1056C124.5 59.1056 121.069 58.9122 117.381 55.4545C116.206 54.334 114.964 54 113.898 54C112.242 54 111 54.8085 111 54.8085C115.454 56.9967 116.363 60.5116 118.899 61.3024Z" fill="white"/>
<path d="M29.3196 61.5C29.7045 61.5 30.0937 61.4386 30.4658 61.3024C32.729 60.5116 33.5409 56.9967 37.5 54.8085C37.5 54.8085 36.3919 54 34.9282 54C33.9768 54 32.8726 54.334 31.8236 55.4545C28.5497 58.9122 25.5 59.1056 25.5 59.1056C26.0457 60.3841 27.6572 61.5 29.3196 61.5Z" fill="white"/>
<path d="M120.139 75.5569C120.208 75.5611 120.269 75.5611 120.342 75.5611C124.566 75.5611 126 71.1273 126 71.1273H125.918C125.143 71.1273 118.86 70.9502 114.421 65.4195C111.497 61.7831 109.103 58.5854 104.37 57.3282L103.905 57.248L103.802 56.784C103.672 56.0752 104.168 55.413 105.292 54.6958C111.82 50.5067 107.389 45.1658 107.389 45.1658C107.389 45.1658 105.524 49.4394 101.351 49.4394C101.252 49.4394 101.145 49.4352 101.041 49.4352C100.568 49.4099 100.111 49.393 99.6504 49.2961L98.8795 49.1482C98.8795 49.1482 100.068 45.9801 97.2002 43.0693C95.0383 40.8713 92.4072 40.5 90.8872 40.5C90.1207 40.5 89.634 40.5972 89.634 40.5972C91.0766 42.4449 92.1188 45.5077 90.4522 47.3975C89.014 49.0218 85.5 49.1018 85.5 51.5234C85.5 52.5485 86.4775 53.7465 88.2346 54.8224C93.5184 58.0832 98.7632 62.4075 100.942 68.2037C103.668 75.4347 100.598 80.2311 96.214 82.9818C96.214 82.9818 97.5877 84.2218 99.5815 84.3781C99.9863 84.4161 100.382 84.433 100.753 84.433C104.96 84.433 107.135 82.5009 107.135 82.5009C107.135 82.5009 106.777 85.1711 104.585 87.6516C102.566 89.9424 99.9129 91.2882 95.8694 91.3471C95.8694 91.3471 95.7404 93.1867 97.5316 94.7769C98.6773 95.7809 101.325 96.1101 101.325 96.1101C101.325 96.1101 96.3689 97.0928 95.8222 104.265C95.5249 108.15 94.5128 109.5 94.5128 109.5H94.6033C106.105 109.5 105.808 99.8351 105.808 99.8351C105.808 99.8351 106.609 102.695 109.817 103.442C110.205 103.543 110.618 103.581 111.014 103.581C112.048 103.581 112.944 103.345 112.944 103.345C112.944 103.345 111.264 99.8731 112.931 95.0173C114.313 90.9886 114.089 88.0019 114.089 88.0019C114.089 88.0019 115.639 90.2967 119.481 90.3181H119.519C122.719 90.3181 124.114 87.9428 124.114 87.9428C116.445 84.8253 117.203 74.7597 117.203 74.7597C117.203 74.7597 118.197 75.4851 120.139 75.5569ZM117.831 86.0696C114.713 84.5638 112.741 80.5643 112.263 79.1216C111.747 87.0527 107.794 92.5581 103.173 97.8566C100.774 100.603 99.9388 103.273 99.9388 103.273C99.9388 103.273 100.4 100.249 102.475 97.7847C106.786 92.7098 110.881 86.3946 111.187 79.0922C111.398 73.996 110.058 69.8618 107.97 66.4573C109.137 70.0051 108.973 74.3503 105.007 78.4045C105.007 78.4045 112.901 69.1363 101.864 59.6357C97.4456 56.0202 92.614 53.7887 90.1252 52.2067C99.1164 55.0798 103.504 51.9157 103.504 51.9157C100.632 54.3542 96.9158 54.3118 94.6122 53.9617C95.2365 54.2613 95.8866 54.5734 96.5886 54.9404C104.168 58.9733 110.98 65.6093 112.143 74.8017V74.7301C113.908 83.7537 117.831 86.0696 117.831 86.0696Z" fill="white"/>
<path d="M47.1773 96.1101C47.1773 96.1101 49.8259 95.7853 50.9716 94.7769C52.7588 93.1867 52.6339 91.3471 52.6339 91.3471C48.5855 91.2924 45.9371 89.9424 43.9041 87.656C41.7294 85.1755 41.3676 82.5051 41.3676 82.5051C41.3676 82.5051 43.5424 84.437 47.7457 84.437C48.1248 84.437 48.5167 84.4201 48.9217 84.3823C50.9154 84.2262 52.2936 82.9857 52.2936 82.9857C47.9095 80.2353 44.8345 75.4347 47.5562 68.2037C49.7399 62.4117 54.981 58.0832 60.2653 54.8224C62.0224 53.7465 63 52.5527 63 51.5234C63 49.1018 59.4901 49.0218 58.0518 47.3975C56.385 45.5077 57.4315 42.4405 58.8698 40.5972C58.8698 40.5972 58.3919 40.5 57.6209 40.5C56.1053 40.5 53.4736 40.8713 51.3117 43.0693C48.4349 45.9801 49.6278 49.1482 49.6278 49.1482L48.8568 49.2961C48.3961 49.393 47.9354 49.4099 47.466 49.4352C47.3583 49.4352 47.2634 49.4394 47.1599 49.4394C42.9782 49.4394 41.1222 45.1702 41.1222 45.1702C41.1222 45.1702 36.6905 50.511 43.2154 54.7C44.3392 55.4171 44.83 56.0796 44.701 56.7882L44.5976 57.2524L44.1239 57.3324C39.3995 58.5896 37.0007 61.7875 34.0766 65.4238C29.6448 70.946 23.37 71.1273 22.5863 71.1273H22.5C22.5 71.1273 23.9341 75.5611 28.159 75.5611C28.2279 75.5611 28.2881 75.5611 28.3614 75.5569C30.3039 75.4894 31.3031 74.7597 31.3031 74.7597C31.3031 74.7597 32.0523 84.821 24.3908 87.9428C24.3908 87.9428 25.7861 90.3181 28.9859 90.3181H29.0245C32.8705 90.2967 34.4167 88.0019 34.4167 88.0019C34.4167 88.0019 34.1927 90.9886 35.5706 95.0173C37.2374 99.8731 35.5666 103.345 35.5666 103.345C35.5666 103.345 36.4624 103.581 37.4915 103.581C37.8921 103.581 38.3013 103.543 38.6847 103.442C41.8887 102.695 42.6941 99.8351 42.6941 99.8351C42.6941 99.8351 42.4012 109.5 53.9044 109.5H53.9862C53.9862 109.5 52.9785 108.15 52.6856 104.265C52.1342 97.0928 47.1773 96.1101 47.1773 96.1101ZM45.3298 97.8566C40.7087 92.5581 36.7595 87.0527 36.2384 79.1216C35.7603 80.5604 33.7964 84.5638 30.6786 86.0696C30.6786 86.0696 34.5975 83.7537 36.359 74.7301V74.8017C37.5261 65.6135 44.335 58.9733 51.9191 54.9404C52.6123 54.5694 53.2712 54.2569 53.8915 53.9617C51.5872 54.3118 47.8707 54.3542 44.9983 51.9157C44.9983 51.9157 49.3868 55.0798 58.3745 52.2067C55.8853 53.7887 51.0576 56.0202 46.639 59.6357C35.5967 69.1363 43.4951 78.4045 43.4951 78.4045C39.5243 74.3463 39.3649 70.0051 40.5322 66.4573C38.439 69.866 37.1039 73.996 37.3192 79.0922C37.6208 86.3946 41.7164 92.7098 46.0189 97.7847C48.099 100.244 48.5684 103.273 48.5684 103.273C48.5684 103.273 47.7241 100.603 45.3298 97.8566Z" fill="white"/>
<path d="M66.1303 60.4778C66.3112 60.6773 66.4879 60.8936 66.6568 61.1097C66.6981 61.1607 66.7349 61.2073 66.776 61.2667C66.9322 61.483 67.0929 61.7119 67.245 61.9451C67.2778 61.9918 67.3107 62.047 67.3478 62.102C67.533 62.3903 67.7056 62.6872 67.8785 62.9925C69.4622 65.8124 72 67.4956 74.25 67.5C76.5043 67.4956 79.0338 65.8124 80.6257 62.9925C80.8025 62.6788 80.9794 62.3735 81.1646 62.0892C81.1933 62.047 81.2223 62.0088 81.2467 61.9664C81.403 61.7247 81.5676 61.4874 81.7404 61.2581C81.7775 61.2073 81.8105 61.1649 81.8432 61.1227C82.0202 60.8978 82.2011 60.6773 82.3861 60.4739C82.4191 60.4398 82.4438 60.4102 82.4725 60.3848C83.2787 59.5325 84.2414 58.8837 85.5 58.5232L84.9405 58.1883H84.9075L82.6784 56.8527L80.3873 55.5L74.2664 58.9348L74.25 58.9217L74.2377 58.9348L68.1129 55.5L65.8259 56.8485L63.5923 58.1841H63.5678L63 58.519C64.2626 58.8795 65.2213 59.5197 66.0315 60.372C66.0685 60.406 66.0932 60.4443 66.1303 60.4778ZM71.7739 60.2024H74.3652H76.9524V62.0344C76.3435 61.2667 75.159 61.4236 75.159 61.4236V64.0652C75.159 64.0652 75.2044 65.3629 75.6444 65.9269H74.3652H73.0819C73.53 65.3669 73.5713 64.0652 73.5713 64.0652V61.4236C73.5713 61.4236 72.3909 61.2667 71.7739 62.0344V60.2024Z" fill="white"/>
<path d="M73.5 57V45.8971L67.5 43.5L69.084 54.2603L73.5 57ZM72.2105 48.6233V50.4058L71.9198 50.2478C71.9048 50.2345 71.4801 50.1206 70.7348 49.4269C69.5049 48.3029 69.4827 47.2668 69.4827 47.2668L72.2105 48.6233Z" fill="white"/>
<path d="M79.4225 54.2603L81 43.5L75 45.8971V57L79.4225 54.2603ZM76.2902 48.6233L79.0197 47.2713C79.0197 47.2713 78.9975 48.3072 77.7631 49.4312C77.021 50.1247 76.5922 50.2391 76.5773 50.2521L76.2865 50.4102V48.6233H76.2902Z" fill="white"/>
<path d="M64.2659 82.1702C64.7894 82.4428 65.4232 82.5 65.7466 82.5C65.7599 82.4428 65.7767 82.3711 65.7934 82.285C65.8234 82.1466 65.85 82.0127 65.87 81.8599C65.96 81.1911 65.9934 80.4316 66 79.9443C65.7799 79.7484 65.4698 79.3997 65.2963 78.879C65.0963 78.277 64.8129 78 64.3959 78C63.8558 78 63.2756 78.4634 63.0288 78.6829C62.832 80.3504 63.6889 81.8646 64.2659 82.1702Z" fill="white"/>
<path d="M79.2385 76.5C78.0163 77.829 75.6253 80.1436 75.5066 80.2623L75.3636 80.4093L67.8065 80.2908C67.8023 81.0392 67.6796 81.6771 67.5611 82.1433C67.5408 82.221 67.5203 82.3028 67.5 82.3847L76.4918 84C77.4278 83.3457 80.0028 81.4645 81 80.7286C80.2723 79.6653 80.2031 78.4057 80.3666 77.5182C79.8924 77.2116 79.5286 76.8681 79.2385 76.5Z" fill="white"/>
<path d="M79.7541 66.0129C77.9542 67.8164 76.2263 68.4817 74.6842 68.6352C74.4052 68.665 74.1222 68.6821 73.8349 68.6821H73.8137H73.7966C73.5093 68.6821 73.2222 68.665 72.9434 68.6352C72.6729 68.6097 72.3899 68.567 72.1068 68.5031C72.0053 68.9083 71.8785 69.7567 72.2421 70.5585C72.5675 71.2876 73.2307 71.8292 74.1983 72.1873L74.5235 72.3151L74.5279 72.6692C74.5279 72.7758 74.6038 75.0699 77.0839 75.7052C77.4895 75.2831 77.8571 74.9035 78.1276 74.588C77.6205 73.3855 77.8867 72.1576 78.6218 71.5562C78.5879 71.6842 78.2671 74.6946 80.6583 75.8117L81.0513 75.9994L80.933 76.4217C80.8949 76.5494 80.0965 79.4619 82.9907 80.545L83.5019 80.7413L83.2738 81.2443C83.2231 81.3552 82.0864 83.9991 84.7608 85.5H90.5619V80.852C88.5003 80.5961 87.6256 78.9248 87.4017 77.7393C86.4424 77.5729 85.6991 77.155 85.192 76.4728C83.9751 74.8568 85.023 73.377 85.0357 73.2959C85.0313 73.3088 85.0357 74.8866 85.9989 75.8587C86.4763 76.3277 87.0426 76.6903 87.9002 76.7714L88.3227 76.8098L88.3608 77.2446C88.3693 77.3383 88.6015 79.4706 90.5663 79.8074L90.5619 70.3152C90.5619 68.8443 90.9887 67.3647 91.5 66H79.7541V66.0129Z" fill="white"/>
<path d="M64.6998 70.7007L64.5 77.8784L65.3701 78L67.5 71.1158L66.4187 69L64.6998 70.7007Z" fill="white"/>
<path d="M82.3337 98.4622C82.3816 98.4622 82.4374 98.4708 82.4895 98.4836C83.4673 98.7798 83.715 102.522 85.4313 102.857C85.5989 102.895 85.7545 102.903 85.8904 102.903C86.3854 102.903 86.6806 102.679 87 102.281C87 102.281 86.1377 100.841 85.4913 99.872C84.6329 98.602 83.9664 97.0654 82.3695 97.0654C82.3337 97.0654 82.2858 97.0654 82.2459 97.0696C81.7189 97.0992 81.3958 97.37 81.3958 97.37C80.7489 96.9382 80.1461 96.7902 79.5995 96.7902C78.5975 96.7902 77.8191 97.2769 77.4319 97.2769H77.4158L73.8473 96.9046C73.2885 96.8495 72.8495 96.2525 72.6898 96.0198C72.6497 95.9563 72.6297 95.9181 72.6297 95.9181C72.6297 95.8164 72.6297 95.7108 72.6218 95.6175C72.502 92.5229 70.2429 91.198 69.4403 91.1769C69.4403 91.1769 69.5362 90.5882 69.3168 90.3639L68.5303 91.3758L65.9477 90L67.7878 92.2816L66.227 94.1402C66.0315 94.3517 66.0555 94.6396 66.1353 94.7582L66.81 95.389L67.664 94.8385C67.708 94.8045 67.7839 94.7964 67.8795 94.7964C68.1152 94.7964 68.4704 94.8597 68.7898 94.8597C69.137 94.8597 69.4403 94.7794 69.4765 94.4322C69.3686 95.5795 68.3667 97.5734 69.0253 99.1395L69.5124 100.321L66.3588 99.8382L64.8819 102.484C64.4269 103.365 64.3549 104.317 64.7941 104.834L65.345 105.566C65.345 105.566 66.1194 104.694 66.295 104.122L66.0435 103.83C65.8318 103.585 65.844 103.365 65.9718 103.098L66.8976 101.468L70.622 102.399L70.8175 102.044C71.0691 101.599 71.4323 101.464 71.8316 101.464C71.995 101.464 72.1628 101.485 72.3384 101.515C73.029 101.658 74.1667 101.853 75.3042 101.853C76.5537 101.853 77.7912 101.616 78.4498 100.833C79.7988 102.954 82.5333 103.293 82.3178 104.368L81.5993 108C82.0742 107.979 82.5333 107.945 82.9684 107.882L83.6509 104.101C83.7268 103.69 83.7987 103.136 83.7987 103.136C83.5353 102.852 82.8965 102.251 82.5372 101.523C82.0542 100.541 82.3178 100.029 81.8666 98.7502C81.8827 98.7586 82.0183 98.4622 82.3337 98.4622ZM68.4024 93.1537C68.2189 93.1497 68.0871 92.9845 68.0952 92.7896C68.1113 92.6034 68.2588 92.4554 68.4385 92.4722C68.6222 92.4806 68.7538 92.65 68.746 92.8361C68.7298 93.0225 68.5782 93.1663 68.4024 93.1537Z" fill="white"/>
<path d="M63.4709 102C63.4709 102 64.8725 101.447 64.9995 101.05L64.8136 100.602C64.6819 100.31 64.7002 99.9917 64.9542 99.8174L66.469 98.8111L69 99.2773C69 99.2773 68.5418 98.7285 68.5873 97.9923L66.1744 97.5L63.8974 98.8329C62.9223 99.5344 62.8497 100.68 63.1716 101.36L63.4709 102Z" fill="white"/>
<path d="M79.5 108C79.9731 107.98 80.4936 107.97 81.0664 107.97C81.0664 107.97 82.4243 103.779 82.5 103.644C81.7381 103.289 80.1578 102.405 79.5473 102C79.9496 102.635 80.929 103.364 80.735 103.924L79.5 108Z" fill="white"/>
<path d="M91.5 87H58.5V99.4058C58.5 104.478 62.1731 107.654 67.5934 107.654C72.1236 107.654 73.3174 107.829 75.0023 109.5C76.1627 108.344 77.1238 107.912 79.0954 107.75L79.1413 107.558L80.1811 104.345C80.123 104.274 78.4216 102.341 78.4216 102.341C77.7477 102.565 77.1819 102.603 76.2294 102.603C75.2518 102.603 74.1493 102.491 72.9555 102.266C72.8349 102.237 72.7227 102.229 72.6101 102.229C72.4646 102.229 72.4521 102.241 72.4146 102.312L72.2067 102.653L71.8282 103.276L71.1169 103.114L67.9512 102.37L67.5186 103.085L67.5852 103.16L67.9719 103.584L67.8015 104.137C67.5686 104.86 66.8114 105.704 66.5826 105.937L65.7922 106.785L65.0727 105.875L64.5317 105.197C63.962 104.561 63.8287 103.584 64.1491 102.561C64.1407 102.569 64.1284 102.574 64.1157 102.574L63.2214 102.944L62.8179 102.071L62.535 101.451C62.0483 100.362 62.2272 98.7696 63.5374 97.8092L66.0876 96.3708L68.5129 96.8488C68.571 96.6162 68.6584 95.7847 68.729 95.5726C68.6832 95.5683 68.6375 95.5559 68.5919 95.5559L67.194 96.0756L65.8463 95.1442C65.8463 95.1442 65.3181 94.6371 65.7963 94.1298L67.1025 92.1551L63.7956 88.0059L68.8789 90.0929L69.2156 89.6731L69.9022 88.8541L70.68 89.594C70.9007 89.8061 71.0254 90.0681 71.0876 90.33C72.4896 90.8746 74.998 92.4835 75.2184 95.0985L74.4322 95.4145V95.4353C74.6111 95.6473 74.7607 95.7346 74.8068 95.7429L78.434 96.1007C78.5255 96.084 78.642 96.0422 78.771 96.0047C79.2203 95.8512 79.8983 95.6307 80.7013 95.6307C81.3543 95.6307 81.9866 95.7803 82.5937 96.0632C82.8185 95.98 83.093 95.9176 83.4093 95.8969L83.5839 95.8925C85.5265 95.8925 86.4916 97.3435 87.2654 98.4993C87.3943 98.6988 87.5233 98.8903 87.6566 99.0772C88.3345 100.033 89.2205 101.434 89.2579 101.493L89.6573 102.116L89.1664 102.686C88.7879 103.122 88.2221 103.634 87.2488 103.634C87.049 103.634 86.8286 103.613 86.5915 103.567C86.3833 103.53 86.1964 103.467 86.0132 103.393C85.984 103.584 85.9467 103.813 85.9092 104.008L85.2726 107.326C89.0792 106.39 91.4961 103.517 91.4961 99.4099L91.5 87Z" fill="#FFDD2D"/>
<path d="M57.9298 85.5H84C82.6982 84.1447 82.715 82.4271 83.049 81.3103C82.6687 81.1271 82.3559 80.9053 82.077 80.6666C81.0585 81.4254 77.9481 83.7099 77.1369 84.2811L76.9636 84.4003L66.7323 82.5335H66.5252C66.2802 82.5335 65.9208 82.525 65.528 82.4782C65.418 82.9427 65.0208 83.2625 64.5644 83.2625C64.5136 83.2625 64.4546 83.2583 64.3997 83.2454C64.1335 83.1983 63.9008 83.0622 63.7446 82.8361C63.5838 82.6145 63.5206 82.3503 63.567 82.0776L63.6051 81.8559C62.5486 81.1056 61.5767 79.4306 62.0078 77.6661L62.05 77.4784L62.1978 77.3718C62.2188 77.3547 62.3964 77.2357 62.6584 77.082L61.9148 76.967C61.6357 76.9159 61.4498 76.6557 61.4922 76.3788C61.5386 76.0974 61.8006 75.8971 62.0753 75.9526L63.8461 76.234L64.0066 69.9427L66.6435 67.1294L68.2876 70.6205L66.5507 76.6728L68.1143 76.9199C68.3891 76.9628 68.5791 77.2226 68.5369 77.5082C68.4945 77.7598 68.2834 77.9343 68.0341 77.9343C68.0085 77.9343 67.979 77.9343 67.9538 77.9303L66.6815 77.7214C66.6986 77.7598 66.724 77.7811 66.7408 77.8237C66.8762 78.1049 67.1761 78.3096 67.3536 78.3949L75.1546 78.5183C75.4845 78.1946 76.3042 77.3845 77.1452 76.528C75.2266 75.7947 74.5295 74.1239 74.411 73.0158C73.3375 72.5553 72.5981 71.8651 72.1882 70.9658C71.6893 69.8532 71.8671 68.7409 71.9979 68.1993C70.9583 67.8158 69.8639 67.1168 68.7482 66H57C57.5028 67.3639 57.9298 68.8429 57.9298 70.3136V85.5Z" fill="#FFDD2D"/>
<path d="M90.8703 114.475L88.9505 113.726L89.4797 111.705L90.0637 109.5C90.0637 109.5 86.6612 111.379 81.868 112.793C80.507 113.191 79.4778 113.371 79.4778 113.371V114.869C79.4778 114.869 76.9152 115.323 74.3237 115.323H74.2941H74.2565H74.2061H74.1765C71.5846 115.323 69.0224 114.869 69.0224 114.869V113.371C69.0224 113.371 67.9888 113.191 66.6322 112.793C61.839 111.379 58.4407 109.5 58.4407 109.5L59.0162 111.705L59.5581 113.726L57.6341 114.475L55.5 115.289C57.9491 116.492 61.3392 118.247 64.4435 119.112L63.7126 121.15C63.7126 121.15 67.6486 122.978 74.2061 122.996V123H74.227H74.2565H74.2815H74.2985V122.996C80.864 122.978 84.7959 121.15 84.7959 121.15L84.0608 119.112C87.1652 118.247 90.5635 116.492 93 115.289L90.8703 114.475ZM57.7769 115.426L60.9359 114.355L60.0034 111.251C61.3937 112.056 64.5149 113.263 66.3211 113.824L64.7962 118.093C62.007 117.31 59.684 116.398 57.7769 115.426ZM74.2565 121.925C70.5893 121.925 66.4009 121.064 65.1701 120.619L67.0438 115.451C68.598 115.914 71.8326 116.406 74.1807 116.389H74.185H74.2565H74.3194H74.3278C76.6761 116.406 79.9022 115.914 81.4647 115.451L83.3342 120.619C82.1032 121.069 77.9192 121.925 74.2565 121.925ZM83.708 118.093L82.1874 113.824C83.998 113.263 87.1106 112.056 88.5051 111.251L87.5769 114.355L90.7316 115.426C88.8201 116.398 86.5099 117.31 83.708 118.093Z" fill="black"/>
<path d="M74.2456 36.2878C78.2345 36.2878 81.4256 37.5992 83.1881 39C83.1881 39 83.7115 35.8706 85.5 33.1071L82.2876 33.469L80.6063 29.9221L77.3768 31.574L74.2456 28.5L71.1232 31.574L67.8895 29.9221L66.2124 33.469L63 33.1071C64.7885 35.8706 65.3119 39 65.3119 39C67.0788 37.5992 70.2613 36.2878 74.2456 36.2878ZM66.0666 34.7123L66.9587 34.806L67.3447 34.0012L68.4686 31.6167L70.553 32.6855L71.3592 33.0942L72.0027 32.4642L74.25 30.25L76.5017 32.4642L77.145 33.0942L77.9512 32.6855L80.0229 31.6167L81.1595 34.0012L81.537 34.806L82.4292 34.7123L83.2782 34.61C82.888 35.4831 82.6008 36.3091 82.3948 36.9945C80.1473 35.7513 77.2223 35.0444 74.2416 35.0444C71.2733 35.0444 68.3525 35.7513 66.0968 36.9945C65.8866 36.3091 65.6036 35.4787 65.2131 34.61L66.0666 34.7123Z" fill="black"/>
<path d="M119.987 76.1289C125.134 76.1289 126.854 71.0522 126.927 70.8365L127.5 69.0491L125.57 69.107H125.562C124.882 69.107 119.204 68.9618 115.178 64.0014L114.797 63.5409C112.166 60.2977 109.671 57.2161 105.213 55.81C105.341 55.6979 105.525 55.557 105.778 55.3995C108.144 53.8897 109.522 52.0564 109.868 49.9289C110.373 46.7267 108.268 44.1762 108.174 44.0723L106.74 42.3553L105.846 44.3918C105.787 44.5204 104.28 47.7804 101.114 47.7804H100.879C100.661 47.7678 100.455 47.7594 100.25 47.743C100.361 46.2872 100.087 44.035 97.9824 41.9239C95.4536 39.3815 92.3475 39 90.7215 39C89.853 39 89.2753 39.1036 89.2155 39.112L87.0505 39.5267L88.3854 41.2314C89.4338 42.5462 90.3836 44.9724 89.2583 46.2416C88.8989 46.6438 88.1588 46.9716 87.4484 47.2991C85.9894 47.9504 84 48.8545 84 51.1608C84 52.6537 85.1938 54.2132 87.3588 55.5404C93.7678 59.4474 97.7214 63.5242 99.4284 68.0246C102.068 74.9469 98.6239 78.8952 95.2782 80.9732L93.7765 81.9106L95.09 83.0801C95.2654 83.2294 96.8741 84.6024 99.2486 84.8012C99.6979 84.8303 100.13 84.8552 100.532 84.8552C102.056 84.8552 103.352 84.6229 104.405 84.312C104.114 84.8055 103.758 85.3072 103.309 85.8133C101.397 87.9616 99.0436 88.9405 95.6589 88.9904L94.4011 89.0111L94.3028 90.2346C94.29 90.4792 94.1956 92.7481 96.412 94.6766C96.7499 94.9753 97.1607 95.2199 97.5887 95.4232C96.0869 96.7338 94.5595 99.015 94.2643 102.926C94.016 106.19 93.2118 107.397 93.2032 107.41L91.8125 109.467L94.3243 109.5C98.4743 109.5 101.653 108.388 103.857 106.19C105.157 104.888 105.902 103.42 106.343 102.117C107.066 102.715 107.998 103.237 109.214 103.515C109.676 103.619 110.181 103.677 110.724 103.677C111.896 103.677 112.876 103.436 112.987 103.411L114.592 102.997L113.881 101.545C113.83 101.429 112.491 98.5173 113.933 94.3614C114.553 92.5655 114.87 90.9563 115.024 89.7037C116.034 90.2139 117.385 90.6369 119.135 90.6411C123.106 90.6411 124.856 87.7667 124.937 87.6466L125.72 86.3276L124.27 85.747C119.538 83.8433 118.489 78.7292 118.28 75.9588C118.708 76.0375 119.195 76.1122 119.747 76.1289H119.987ZM123.739 86.9706C123.739 86.9706 122.353 89.3054 119.174 89.3054H119.135C115.319 89.2849 113.779 87.0286 113.779 87.0286C113.779 87.0286 114.001 89.9651 112.623 93.9258C110.968 98.6999 112.636 102.113 112.636 102.113C112.636 102.113 111.747 102.345 110.719 102.345C110.326 102.345 109.915 102.308 109.53 102.208C106.343 101.474 105.547 98.6623 105.547 98.6623C105.547 98.6623 105.842 108.165 94.414 108.165H94.3243C94.3243 108.165 95.3296 106.837 95.629 103.017C96.1724 95.9664 101.097 95.0001 101.097 95.0001C101.097 95.0001 98.47 94.6807 97.3319 93.6896C95.5522 92.1258 95.6762 90.3176 95.6762 90.3176C99.6979 90.2636 102.329 88.9364 104.336 86.6843C106.51 84.2456 106.869 81.6202 106.869 81.6202C106.869 81.6202 104.708 83.5198 100.528 83.5198C100.16 83.5198 99.7663 83.5032 99.3644 83.4658C97.3876 83.3124 96.0185 82.093 96.0185 82.093C100.37 79.3887 103.424 74.669 100.716 67.5598C98.5471 61.8654 93.3358 57.6098 88.0904 54.4038C86.3446 53.3465 85.3734 52.1725 85.3734 51.1608C85.3734 48.7798 88.8645 48.7052 90.2979 47.1042C91.9496 45.2462 90.9142 42.2308 89.4808 40.4185C89.4808 40.4185 89.9644 40.3229 90.7259 40.3229C92.2361 40.3229 94.8504 40.6921 96.9984 42.849C99.852 45.7107 98.6669 48.8256 98.6669 48.8256L99.4328 48.9708C99.8906 49.0661 100.344 49.0827 100.815 49.1032C100.918 49.1032 101.02 49.1075 101.123 49.1075C105.269 49.1075 107.121 44.9061 107.121 44.9061C107.121 44.9061 111.528 50.161 105.042 54.2754C103.925 54.9805 103.433 55.6318 103.562 56.3284L103.664 56.7846L104.126 56.8635C108.828 58.0995 111.207 61.2433 114.113 64.8186C118.524 70.2559 124.766 70.4301 125.536 70.4301H125.618C125.618 70.4301 124.193 74.7891 119.995 74.7891C119.927 74.7891 119.867 74.7891 119.794 74.785C117.865 74.7187 116.876 74.0011 116.876 74.0011C116.876 74.0011 116.119 83.9014 123.739 86.9706Z" fill="black"/>
<path d="M111.437 56.0329C113.319 57.1014 114.413 58.5326 115.373 59.8026C116.316 61.0413 117.213 62.2354 118.613 62.7316C119.112 62.915 119.641 63 120.177 63C122.282 63 124.394 61.627 125.195 59.7264L126 57.8215L124.051 57.6962C123.958 57.692 121.451 57.4502 118.66 54.4051C117.511 53.1572 116.124 52.5 114.627 52.5C112.799 52.5 111.445 53.4748 111.294 53.5731L109.5 54.9193L111.437 56.0329ZM114.631 53.9398C115.57 53.9398 116.664 54.2797 117.7 55.4202C120.948 58.9394 123.971 59.1362 123.971 59.1362C123.422 60.4332 121.829 61.5732 120.181 61.5732C119.8 61.5732 119.418 61.5108 119.037 61.3722C116.803 60.5672 116.002 56.9898 112.074 54.7627C112.074 54.7627 113.172 53.9398 114.631 53.9398Z" fill="black"/>
<path d="M111.463 74.3262V74.3949C110.33 65.0025 103.689 58.2191 96.3009 54.0918C95.6165 53.7168 94.9869 53.3978 94.3742 53.0915C96.6241 53.4494 100.247 53.4926 103.043 51C103.043 51 98.765 54.2342 90 51.2975C92.4263 52.9147 97.1404 55.1961 101.443 58.8918C112.202 68.6034 104.503 78.078 104.503 78.078C108.369 73.9337 108.529 69.4918 107.391 65.8651C109.427 69.3451 110.729 73.5715 110.527 78.7808C110.229 86.2457 106.237 92.7016 102.035 97.8896C100.016 100.408 99.5625 103.5 99.5625 103.5C99.5625 103.5 100.377 100.77 102.715 97.9628C107.219 92.5463 111.068 86.9186 111.572 78.811C112.038 80.2817 113.957 84.3742 117 85.9139C117.008 85.9181 113.184 83.5505 111.463 74.3262Z" fill="black"/>
<path d="M55.3029 107.414C55.2985 107.401 54.503 106.194 54.2464 102.93C53.9466 99.0186 52.4239 96.7375 50.9182 95.4267C51.3546 95.2276 51.7566 94.9828 52.0945 94.6801C54.3062 92.7514 54.2121 90.4826 54.1992 90.2378L54.1138 89.014L52.8474 88.9935C49.4723 88.9394 47.1153 87.9605 45.2032 85.8162C44.7584 85.3103 44.3988 84.8083 44.1079 84.3147C45.1604 84.6257 46.448 84.858 47.975 84.858C48.3857 84.858 48.8092 84.8332 49.2584 84.8042C51.6324 84.605 53.241 83.2364 53.4206 83.0828L54.7339 81.9133L53.2324 80.9756C49.8745 78.8935 46.4436 74.945 49.0786 68.0262C50.7856 63.526 54.7339 59.4487 61.1503 55.5414C63.3149 54.2142 64.5 52.6546 64.5 51.1614C64.5 48.8554 62.515 47.9469 61.0564 47.2999C60.3464 46.9721 59.6063 46.6445 59.2468 46.2421C58.1177 44.977 59.0714 42.5464 60.1153 41.2315L61.4585 39.5267L59.2855 39.112C59.2213 39.1038 58.6523 39 57.7796 39C56.1541 39 53.0571 39.3817 50.5246 41.9243C48.4158 44.0396 48.1377 46.292 48.2447 47.7436C48.0392 47.7602 47.8342 47.7686 47.6201 47.7809H47.3892C44.2151 47.7809 42.7136 44.5207 42.6538 44.3921L41.7596 42.3555L40.3137 44.0729C40.2324 44.1765 38.1192 46.7316 38.6326 49.9294C38.9749 52.0573 40.3522 53.8907 42.7178 55.4005C42.9746 55.5581 43.1542 55.699 43.2826 55.8111C38.8293 57.217 36.3399 60.3031 33.7089 63.5467L33.3283 64.0072C29.3073 68.9678 23.618 69.113 22.9379 69.113L21 69.0551L21.5902 70.8428C21.6586 71.0583 23.374 76.1353 28.5245 76.1353L28.7725 76.127C29.3158 76.1104 29.8035 76.04 30.2398 75.957C30.0258 78.7235 28.9779 83.8378 24.2423 85.7457L22.7966 86.3264L23.5795 87.6455C23.6565 87.7656 25.4104 90.6401 29.3886 90.6401C31.1252 90.6358 32.4768 90.2129 33.4908 89.7027C33.6449 90.9554 33.9612 92.5647 34.5816 94.3607C36.0231 98.5169 34.6801 101.429 34.6287 101.545L33.9187 102.997L35.5269 103.411C35.6339 103.436 36.6222 103.677 37.7898 103.677C38.3373 103.677 38.8423 103.618 39.2957 103.515C40.5147 103.237 41.4559 102.714 42.1703 102.117C42.6067 103.419 43.3554 104.888 44.6512 106.19C46.8587 108.389 50.0326 109.5 54.1822 109.5L56.6974 109.467L55.3029 107.414ZM54.0879 108.173C42.6622 108.173 42.9531 98.6701 42.9531 98.6701C42.9531 98.6701 42.1574 101.482 38.9705 102.217C38.5897 102.316 38.1834 102.353 37.7858 102.353C36.759 102.353 35.8734 102.121 35.8734 102.121C35.8734 102.121 37.5334 98.7075 35.8778 93.9334C34.509 89.9722 34.7313 87.0356 34.7313 87.0356C34.7313 87.0356 33.1957 89.2921 29.3757 89.3129H29.3372C26.1589 89.3129 24.7728 86.9775 24.7728 86.9775C32.3871 83.9124 31.6386 74.0158 31.6386 74.0158C31.6386 74.0158 30.6505 74.7291 28.7169 74.7996C28.6485 74.8037 28.5843 74.8037 28.5159 74.8037C24.3151 74.8037 22.8949 70.4444 22.8949 70.4444H22.9804C23.7548 70.4444 29.9875 70.2704 34.3978 64.8325C37.3023 61.2572 39.6849 58.1173 44.3778 56.8769L44.8483 56.7982L44.9508 56.3421C45.0792 55.6454 44.5914 54.994 43.4752 54.2887C36.9899 50.1699 41.3961 44.919 41.3961 44.919C41.3961 44.919 43.2396 49.1164 47.3934 49.1164C47.4959 49.1164 47.5902 49.1125 47.6971 49.1125C48.1634 49.0875 48.6254 49.0708 49.0786 48.9755L49.8444 48.8303C49.8444 48.8303 48.6595 45.7153 51.5171 42.8533C53.6646 40.6924 56.2783 40.3273 57.7838 40.3273C58.5496 40.3273 59.0245 40.4228 59.0245 40.4228C57.5956 42.2395 56.5606 45.2509 58.2118 47.1089C59.6404 48.7061 63.1267 48.7847 63.1267 51.1655C63.1267 52.1735 62.1557 53.3515 60.4104 54.4091C55.1616 57.6153 49.9514 61.8709 47.7868 67.5659C45.0834 74.6753 48.1335 79.3912 52.4925 82.0998C52.4925 82.0998 51.1234 83.3194 49.1431 83.4726C48.7408 83.51 48.3516 83.5266 47.975 83.5266C43.8 83.5266 41.6398 81.6269 41.6398 81.6269C41.6398 81.6269 41.9991 84.2525 44.1593 86.6914C46.1786 88.9438 48.8092 90.271 52.8304 90.3248C52.8304 90.3248 52.9588 92.1334 51.1792 93.697C50.037 94.6842 47.4104 95.0077 47.4104 95.0077C47.4104 95.0077 52.3384 95.9743 52.8773 103.026C53.1726 106.845 54.1691 108.173 54.1691 108.173H54.0879Z" fill="black"/>
<path d="M28.8446 63C29.4346 63 30.0111 62.9151 30.5556 62.7317C32.0923 62.235 33.0668 61.0405 34.0959 59.8014C35.1481 58.5308 36.3328 57.0992 38.3868 56.0298L40.5 54.9204L38.5378 53.5736C38.373 53.4708 36.9 52.5 34.9101 52.5C33.2725 52.5 31.754 53.1533 30.505 54.4059C27.4587 57.4481 24.7278 57.6943 24.627 57.6987L22.5 57.8195L23.3736 59.7296C24.2519 61.6222 26.5527 63 28.8446 63ZM31.5528 55.417C32.6873 54.2761 33.881 53.9363 34.9101 53.9363C36.4928 53.9363 37.6917 54.7593 37.6917 54.7593C33.4098 56.9918 32.5315 60.5664 30.0842 61.3717C29.6818 61.5103 29.2608 61.573 28.8446 61.573C27.0468 61.573 25.3086 60.4368 24.7138 59.1347C24.7138 59.1303 28.0075 58.9334 31.5528 55.417Z" fill="black"/>
<path d="M37.9773 78.7833C37.7672 73.5733 39.0686 69.3468 41.1086 65.8665C39.9711 69.4933 40.1264 73.9357 43.9968 78.0802C43.9968 78.0802 36.2981 68.6049 47.0612 58.8926C51.3681 55.1964 56.078 52.9149 58.5 51.2975C49.7395 54.2347 45.462 51 45.462 51C48.2574 53.4928 51.8804 53.4498 54.1303 53.0874C53.5216 53.3937 52.8837 53.7127 52.2076 54.0882C44.8113 58.2154 38.1746 64.9994 37.037 74.3928V74.3195C35.32 83.5446 31.5 85.9124 31.5 85.9124C34.5394 84.3726 36.4534 80.2841 36.9195 78.8089C37.4274 86.9173 41.2766 92.5454 45.7809 97.9624C48.119 100.77 48.9418 103.5 48.9418 103.5C48.9418 103.5 48.4843 100.408 46.4566 97.8891C42.2631 92.7095 38.271 86.2488 37.9773 78.7833Z" fill="black"/>
<path d="M72 60V61.9202C72.5327 61.1156 73.5621 61.2802 73.5621 61.2802V64.0488C73.5621 64.0488 73.5263 65.4089 73.1367 66H74.2518H75.3635C74.981 65.4135 74.9417 64.0488 74.9417 64.0488V61.2802C74.9417 61.2802 75.971 61.1156 76.5 61.9202V60H74.2518H72Z" fill="black"/>
<path d="M70.3772 50.0642C71.1927 50.7274 71.664 50.8363 71.6804 50.849L72 51V49.2923L69 48C69 48.0042 69.0286 48.9902 70.3772 50.0642Z" fill="black"/>
<path d="M78.1188 50.0642C79.4754 48.9902 79.5 48 79.5 48L76.5 49.2923V51L76.8156 50.849C76.8362 50.8363 77.3032 50.7274 78.1188 50.0642Z" fill="black"/>
<path d="M83.3936 42.3929C83.3936 39.8171 79.0536 37.5 74.2625 37.5H74.2584H74.2459H74.2334C69.4423 37.5 65.1025 39.8171 65.1025 42.3929L65.1985 43.0276L67.1115 54.0035L65.1902 55.1182L60.2196 58.0198H60.2362C60.2362 58.0198 59.1168 58.5919 58.5988 58.9467C56.7066 60.2617 56.3056 62.178 57.4042 62.9713C57.6757 61.41 58.9119 59.7732 61.2261 59.7732C62.8929 59.7732 64.1625 60.6335 65.1902 61.9235C65.4533 62.2491 65.7039 62.5954 65.9378 62.9713C66.226 63.4431 66.5141 63.8563 66.8025 64.2572H54C54.9397 66.1483 55.8335 68.1524 55.8335 70.3275V98.6504C55.8335 105.506 61.1092 108.779 66.8151 108.779C71.2258 108.779 71.819 108.578 74.2541 111C76.6769 108.574 77.2701 108.779 81.6849 108.779C87.3952 108.779 92.6622 105.506 92.6622 98.6504V70.3275C92.6622 68.1524 93.5561 66.1483 94.5 64.2572H81.6936C81.9776 63.8607 82.2656 63.4431 82.554 62.9713C82.792 62.5954 83.0384 62.2491 83.2974 61.9235C84.3334 60.6291 85.5989 59.7732 87.2657 59.7732C89.5795 59.7732 90.8117 61.4056 91.0876 62.9713C92.1862 62.178 91.7895 60.2617 89.8845 58.9467C89.375 58.5919 88.2556 58.0198 88.2556 58.0198H88.2722L83.3015 55.1182L81.3885 54.0035L83.3015 43.0276L83.3936 42.3929ZM66.9863 43.6705L73.7113 45.9501V56.5086L68.7616 53.8993L66.9863 43.6705ZM68.3772 66.0984C69.4799 67.1962 70.5617 67.877 71.5894 68.2527C71.4556 68.7828 71.2801 69.8766 71.7771 70.9664C72.1824 71.8429 72.9177 72.5194 73.9744 72.9703C74.0913 74.0559 74.7764 75.6883 76.6769 76.4105C75.8456 77.2496 75.0352 78.0387 74.7053 78.3602L66.9988 78.2391C66.8233 78.1514 66.5267 77.9552 66.3931 77.6755C66.3762 77.6379 66.3514 77.617 66.3386 77.5752L67.5961 77.7797C67.6253 77.784 67.6504 77.784 67.6755 77.784C67.9178 77.784 68.1307 77.617 68.1725 77.3666C68.2144 77.0869 68.0263 76.8322 67.7548 76.7904L66.2093 76.5483L67.926 70.624L66.3012 67.2047L63.6949 69.9601L63.536 76.1225L61.7858 75.8469C61.5143 75.7925 61.2553 75.993 61.2095 76.2643C61.1677 76.5357 61.3513 76.7904 61.6271 76.8405L62.3624 76.9531C62.0991 77.1034 61.9278 77.2205 61.9069 77.2372L61.7566 77.3414L61.7149 77.5252C61.2888 79.2535 62.2536 80.8942 63.2939 81.629L63.2561 81.8463C63.2143 82.1136 63.2729 82.3724 63.4314 82.5895C63.5819 82.8107 63.8158 82.9443 64.075 82.9902C64.129 82.9984 64.1876 83.0026 64.2377 83.0026C64.6889 83.0026 65.0815 82.6896 65.1941 82.2345C65.5828 82.2806 65.9378 82.2889 66.1799 82.2889H66.3849L76.4972 84.1132L76.6684 84.0005C77.4748 83.4369 80.5448 81.1992 81.5513 80.4601C81.8272 80.6982 82.1361 80.9151 82.5123 81.0948C82.1863 82.1886 82.1653 83.8711 83.4561 85.1988H57.684V70.3317C57.684 68.8913 57.262 67.4427 56.765 66.1067H68.3772V66.0984ZM80.8747 79.7003C79.8515 80.4518 77.2199 82.3724 76.2674 83.0404L67.0782 81.3912C67.0991 81.3077 67.1197 81.2283 67.1406 81.1448C67.2619 80.6689 67.3832 80.0177 67.3914 79.2535L75.1147 79.3788L75.2609 79.2287C75.3778 79.1117 77.8256 76.7487 79.0743 75.3875C79.3711 75.7592 79.7428 76.1142 80.2274 76.4272C80.0603 77.329 80.1312 78.6147 80.8747 79.7003ZM65.4909 78.1097C65.708 78.5647 66.1008 78.8696 66.3721 79.0406C66.3639 79.4665 66.3222 80.1303 66.2093 80.7148C66.1842 80.8444 66.1507 80.9654 66.1131 81.0865C66.0922 81.1616 66.0716 81.2242 66.0548 81.2742C65.6496 81.2742 64.8517 81.2242 64.2001 80.9862C63.4776 80.7189 62.3998 79.3956 62.6503 77.9385C62.9638 77.7464 63.6863 77.3414 64.3629 77.3414C64.8852 77.3375 65.2404 77.5835 65.4909 78.1097ZM64.5343 76.2769L64.6889 70.361L66.0171 68.9541L66.8527 70.6992L65.2069 76.377L64.5343 76.2769ZM80.7912 106.946C80.2899 106.946 79.8264 106.954 79.4085 106.971L80.5029 103.569C80.6743 103.097 79.8096 102.491 79.4548 101.961C79.9933 102.299 81.3885 103.038 82.0611 103.335C81.99 103.443 80.7912 106.946 80.7912 106.946ZM84.2249 103.08L83.5106 106.804C83.0551 106.867 82.5706 106.9 82.0736 106.921L82.8255 103.339C83.051 102.274 80.1896 101.945 78.7779 99.8528C78.0887 100.629 76.7897 100.859 75.4863 100.859C74.296 100.859 73.1055 100.667 72.3828 100.525C72.1991 100.496 72.0238 100.475 71.8525 100.475C71.4347 100.475 71.0546 100.604 70.7915 101.047L70.5825 101.398L66.6856 100.479L65.7164 102.082C65.5785 102.341 65.5703 102.562 65.7914 102.804L66.0548 103.093C65.8751 103.661 65.0648 104.516 65.0648 104.516L64.4842 103.794C64.0248 103.281 64.0998 102.345 64.5802 101.477L66.1257 98.8676L69.4257 99.3433L68.9118 98.1744C68.2226 96.6299 69.2711 94.6634 69.3837 93.5321C69.3463 93.8744 69.0329 93.9495 68.6654 93.9495C68.3314 93.9495 67.9595 93.8868 67.7131 93.8868C67.6171 93.8868 67.5334 93.8951 67.4874 93.9284L66.5935 94.4713L65.8876 93.8492C65.8042 93.7283 65.7748 93.4486 65.9838 93.2397L67.6171 91.4111L65.6872 89.1608L68.3897 90.5178L69.2127 89.5199C69.438 89.7411 69.342 90.3212 69.342 90.3212C70.1858 90.3423 72.5499 91.6491 72.6753 94.6966C72.6838 94.7886 72.6838 94.8928 72.6838 94.9931C72.6838 94.9931 72.7047 95.0307 72.7462 95.0934C72.9133 95.3231 73.3727 95.9117 73.9575 95.9658L77.692 96.3334H77.7087C78.1179 96.3334 78.9325 95.8532 79.9767 95.8532C80.5448 95.8532 81.1797 95.9993 81.8564 96.4252C81.8564 96.4252 82.1947 96.1581 82.7462 96.1289C82.7879 96.1246 82.8337 96.1246 82.8757 96.1246C84.5506 96.1246 85.2439 97.6359 86.142 98.8926C86.8188 99.8486 87.7207 101.268 87.7207 101.268C87.3867 101.665 87.0776 101.882 86.5596 101.882C86.4178 101.882 86.2546 101.869 86.0793 101.836C84.2832 101.506 84.0242 97.8153 83.0008 97.5232C82.9468 97.5065 82.8882 97.5023 82.838 97.5023C82.5079 97.5023 82.3618 97.7944 82.3618 97.7944C82.8296 99.0512 82.5581 99.5606 83.0594 100.529C83.4353 101.247 84.1036 101.84 84.3792 102.12C84.3792 102.128 84.3042 102.671 84.2249 103.08ZM64.1709 99.5563L64.3422 99.9863C64.2293 100.362 62.9344 100.897 62.9344 100.897L62.6546 100.287C62.358 99.6359 62.4207 98.5377 63.3231 97.8656L65.4198 96.5879L67.642 97.0597C67.6002 97.7653 68.022 98.2915 68.022 98.2915L65.6911 97.8447L64.2961 98.8091C64.0622 98.9718 64.0456 99.2768 64.1709 99.5563ZM84.5755 106.599L85.2147 103.268C85.248 103.072 85.29 102.842 85.3192 102.65C85.4988 102.725 85.6908 102.788 85.8998 102.825C86.1376 102.871 86.3592 102.892 86.5596 102.892C87.537 102.892 88.1051 102.379 88.4852 101.94L88.9783 101.368L88.5772 100.742C88.5396 100.679 87.6539 99.2766 86.9691 98.3163C86.8355 98.1285 86.7058 97.9406 86.5763 97.7361C85.7995 96.5755 84.8261 95.1184 82.8757 95.1184L82.7001 95.1225C82.3787 95.1434 82.1028 95.2061 81.8814 95.2896C81.2673 95.0016 80.6367 94.8554 79.981 94.8554C79.1746 94.8554 78.4939 95.0766 78.0427 95.2313C77.9132 95.2687 77.7963 95.3105 77.7044 95.3272L74.0578 94.9681C74.012 94.9598 73.8615 94.8722 73.6821 94.6551V94.6383L74.4714 94.321C74.2502 91.695 71.7269 90.0791 70.3194 89.5323C70.2569 89.2693 70.1315 89.0063 69.9101 88.7934L69.1248 88.0504L68.4356 88.8769L68.0974 89.2984L62.993 87.2027L66.3137 91.3692L65.0022 93.3524C64.5218 93.8616 65.0523 94.371 65.0523 94.371L66.4054 95.302L67.8091 94.7802C67.8592 94.7802 67.9012 94.7928 67.947 94.7969C67.8802 95.0099 67.7924 95.8449 67.734 96.0787L65.2988 95.5984L62.7381 97.0429C61.4224 98.0074 61.2428 99.6065 61.7315 100.7L62.0156 101.322L62.4207 102.199L63.3144 101.828C63.3272 101.823 63.3397 101.819 63.3479 101.811C63.0265 102.838 63.156 103.815 63.7323 104.458L64.2754 105.142L64.9978 106.057L65.7914 105.205C66.0254 104.971 66.7816 104.124 67.0155 103.397L67.1867 102.842L66.7982 102.416L66.7357 102.341L67.1698 101.623L70.3486 102.37L71.0628 102.533L71.4429 101.907L71.6519 101.565C71.6895 101.494 71.7021 101.481 71.8482 101.481C71.9611 101.481 72.0737 101.494 72.195 101.519C73.3937 101.744 74.5008 101.857 75.4822 101.857C76.4345 101.857 77.0026 101.819 77.6836 101.594C77.6836 101.594 79.3919 103.531 79.4505 103.606L78.4063 106.829L78.3601 107.025C76.3803 107.184 75.4152 107.618 74.2502 108.783C72.5582 107.105 71.3594 106.929 66.8107 106.929C61.3679 106.929 57.6797 103.74 57.6797 98.6462V86.1924H90.8117L90.8203 98.6462C90.8245 102.78 88.3976 105.66 84.5755 106.599ZM91.7393 66.0984C91.2337 67.4344 90.8117 68.883 90.8117 70.3236L90.816 79.6168C88.8738 79.2912 88.644 77.1996 88.6356 77.1078L88.5982 76.6819L88.1805 76.6443C87.3366 76.5649 86.7769 76.206 86.3047 75.7466C85.3527 74.7948 85.3484 73.25 85.3527 73.2376C85.3401 73.3168 84.3042 74.7654 85.507 76.3478C86.0125 77.0158 86.7434 77.4249 87.6916 77.5878C87.9131 78.7485 88.7776 80.385 90.816 80.6354V85.1862H85.0853C82.4411 83.7165 83.5607 81.1281 83.6148 81.0197L83.8405 80.5271L83.335 80.335C80.4737 79.2746 81.2591 76.4189 81.3008 76.2978L81.4177 75.8804L81.0295 75.6966C78.6651 74.6027 78.9868 71.6511 79.0159 71.5301C78.2893 72.1187 78.026 73.3211 78.5272 74.4985C78.2558 74.8074 77.8924 75.183 77.4955 75.5924C75.0479 74.9701 74.9727 72.7199 74.9727 72.6155L74.9684 72.2688L74.6469 72.1437C73.6903 71.789 73.0346 71.2585 72.7129 70.5446C72.3495 69.7555 72.479 68.9289 72.5791 68.5322C72.8591 68.595 73.1388 68.6409 73.4062 68.6616C73.6821 68.6912 73.9661 68.7077 74.2502 68.7077H74.2669H74.2876C74.5717 68.7077 74.8514 68.6912 75.1273 68.6616C76.6518 68.5115 78.3601 67.8561 80.1395 66.0943H91.7393V66.0984ZM82.8089 56.7046L85.0727 58.0198H85.1062L85.6741 58.3498C84.3959 58.7046 83.4185 59.3434 82.5998 60.1824C82.5706 60.2076 82.5414 60.2411 82.5123 60.2702C82.3242 60.4705 82.1361 60.6876 81.9608 60.909C81.9275 60.9506 81.894 60.9965 81.8564 61.0426C81.681 61.2679 81.518 61.4976 81.3594 61.7397C81.3341 61.7815 81.3049 61.8233 81.2757 61.8607C81.0878 62.1404 80.9082 62.4412 80.7285 62.7501C79.1163 65.5264 76.5433 67.1838 74.2541 67.1882C71.9695 67.1838 69.3965 65.5264 67.7842 62.7501C67.6085 62.4495 67.4331 62.1571 67.2453 61.8735C67.2074 61.8191 67.1741 61.7647 67.1406 61.7188C66.9822 61.4892 66.8233 61.2638 66.6603 61.0509C66.6188 60.9926 66.5811 60.9465 66.5392 60.8964C66.3639 60.6835 66.1842 60.4705 66.0046 60.2744C65.967 60.245 65.9419 60.2076 65.9045 60.1741C65.0815 59.3349 64.1082 58.7002 62.8259 58.3498L63.4022 58.0198H63.4275L65.6911 56.7046L68.0179 55.3729L74.2334 58.7546L74.2459 58.7422L74.2625 58.7546L80.478 55.3729L82.8089 56.7046ZM79.7428 53.9032L74.7887 56.5127V45.9501L81.5096 43.6705L79.7428 53.9032ZM74.2502 44.7895L66.8819 41.8795C67.5084 40.3973 70.3987 39.1365 74.2502 39.1324C78.1054 39.1365 80.996 40.3973 81.6181 41.8795L74.2502 44.7895Z" fill="black"/>
</svg>
