<svg width="150" height="150" viewBox="0 0 150 150" fill="none" xmlns="http://www.w3.org/2000/svg">
<rect width="150" height="150" fill="#27282E"/>
<path d="M40.4869 74.2924C40.4869 79.7602 40.4777 85.2282 40.5 90.6959C40.5025 91.3058 40.3668 91.5146 39.7329 91.4992C37.907 91.4547 36.0786 91.4552 34.2528 91.4989C33.6107 91.5143 33.4156 91.3432 33.422 90.6714C33.4551 87.168 33.4118 83.6639 33.4576 80.1608C33.4675 79.3997 33.228 79.2702 32.5488 79.2753C28.4774 79.3062 24.4057 79.3003 20.3342 79.2795C19.7786 79.2766 19.5372 79.3832 19.4329 80.0158C18.8492 83.5568 18.6224 87.1247 18.5745 90.7062C18.5662 91.3314 18.4108 91.5059 17.7949 91.4983C15.1071 91.4645 12.4185 91.4675 9.73046 91.497C9.17297 91.5031 8.99211 91.3046 9.00026 90.7752C9.14693 81.3939 11.1971 72.6786 17.7185 65.6006C21.3169 61.695 25.8413 59.3842 30.9127 58.1155C33.8648 57.3769 36.8739 57.1322 39.9 57.0015C40.5193 56.9748 40.4907 57.3031 40.4902 57.7297C40.4851 63.2507 40.4868 68.7716 40.4868 74.2926L40.4869 74.2924ZM33.4372 67.9108C33.4372 65.5221 33.4201 63.1333 33.4488 60.7452C33.4564 60.1145 33.2779 60.0455 32.7357 60.2449C31.0551 60.8627 29.4895 61.6905 28.0876 62.8154C24.0882 66.0248 21.9271 70.396 20.5199 75.2434C20.3546 75.8127 20.7472 75.646 20.9794 75.6463C24.9199 75.6538 28.8606 75.642 32.801 75.6635C33.3191 75.6663 33.4539 75.511 33.4484 74.9966C33.4231 72.6349 33.4372 70.2727 33.4372 67.9106V67.9108Z" fill="#EC1D31"/>
<path d="M108.014 74.2409C108.014 68.7458 108.014 63.2505 108.014 57.7554C108.014 57.3605 107.919 56.9793 108.576 57.0009C112.766 57.1384 116.893 57.6385 120.857 59.1148C129.031 62.1595 134.255 68.1101 137.159 76.3149C138.774 80.8756 139.456 85.6051 139.499 90.4386C139.508 91.48 139.493 91.4805 138.475 91.4806C135.942 91.4808 133.409 91.451 130.878 91.4992C130.14 91.5132 129.934 91.3449 129.922 90.5568C129.841 84.9722 129.36 79.4361 127.632 74.0869C126.154 69.513 123.925 65.4428 120.02 62.5173C118.731 61.5517 117.317 60.8347 115.818 60.264C115.154 60.0113 115.052 60.2033 115.053 60.8482C115.069 70.7235 115.066 80.5988 115.062 90.4743C115.062 91.57 115.231 91.4758 114.048 91.4794C112.299 91.4847 110.549 91.4464 108.801 91.4981C108.122 91.5183 107.997 91.285 108 90.647C108.025 85.1784 108.014 79.7098 108.014 74.2412L108.014 74.2409Z" fill="#EC1D31"/>
<path d="M43.5157 69.7799V66.7358C43.5157 64.5712 43.5382 62.4061 43.5003 60.2419C43.4905 59.6799 43.6907 59.4872 44.2163 59.334C48.497 58.0859 52.8843 57.4699 57.3249 57.1762C62.4685 56.8358 67.6033 57.0178 72.7331 57.4726C73.22 57.5158 73.3922 57.6775 73.3959 58.1295C73.4014 58.7882 73.3875 59.4539 73.4793 60.1033C73.5887 60.8756 73.2628 61.0809 72.5305 61.1131C69.1408 61.2625 65.7668 61.5798 62.4073 62.0626C61.6048 62.178 61.3324 62.4155 61.3361 63.2717C61.3768 72.3791 61.3515 81.4866 61.3797 90.5942C61.3819 91.3347 61.1706 91.5157 60.4431 91.4951C58.639 91.4442 56.831 91.4357 55.0278 91.4982C54.2461 91.5252 54.1129 91.2556 54.1147 90.5633C54.137 82.0629 54.1293 73.5624 54.1291 65.0621C54.1291 64.3693 53.8058 64.1406 53.1592 64.376C49.8027 65.597 46.6845 67.2221 43.9806 69.554C43.8711 69.6485 43.7953 69.8207 43.5156 69.7796L43.5157 69.7799Z" fill="#EC1D31"/>
<path d="M97.2027 64.2794C95.8818 62.5474 94.2495 61.2906 92.221 60.5563C85.3225 58.0592 77.9438 63.5839 78.3335 70.941C78.427 72.7077 78.8749 74.3472 79.7683 75.8593C79.9882 76.2314 79.9404 76.4361 79.6346 76.7196C77.1051 79.0667 74.5822 81.4213 72.0799 83.7975C71.6261 84.2284 71.5324 83.8827 71.3606 83.582C69.6268 80.5475 68.8473 77.268 69.0247 73.7892C69.4236 65.9571 74.8011 59.3303 82.3511 57.5391C88.5213 56.0754 93.9807 57.6092 98.6564 61.9341C99.093 62.3379 99.1435 62.5809 98.6333 62.96C98.1281 63.3353 97.6992 63.8141 97.2028 64.2792L97.2027 64.2794Z" fill="#EC1D31"/>
<path d="M102.317 64.5C104.262 67.6587 105.116 70.9929 104.987 74.5711C104.712 82.2524 99.5534 88.8889 92.1074 90.8436C85.7679 92.5077 80.1274 90.9859 75.2951 86.5277C74.9209 86.1824 74.8822 85.9622 75.297 85.6282C75.7904 85.2308 76.1873 84.5004 76.7108 84.4111C77.2821 84.3134 77.5566 85.1914 77.9972 85.608C81.7863 89.1912 87.4781 89.5532 91.5296 86.4442C95.7125 83.2345 96.9382 77.5839 94.3918 73.0023C94.0442 72.3769 94.1388 72.0933 94.6332 71.6423C97.195 69.3064 99.7164 66.9262 102.317 64.5003V64.5Z" fill="#EC1D31"/>
</svg>
